<svg width="238" height="160" fill="none" xmlns="http://www.w3.org/2000/svg"><path d="M76.921 99.092c.312.063-3.223-20.75 7.39-34.78l21.163-4.308 26.095 91.13 3.067 3.715c1.202 1.459.164 3.659-1.725 3.659h-19.977a5.528 5.528 0 0 1-5.415-4.409l-9.209-44.425 3.052 41.413 3.223 3.723c1.256 1.443.226 3.698-1.686 3.698H84.085a5.534 5.534 0 0 1-5.533-5.361l-1.631-54.04v-.015z" fill="#fff"/><path d="M132.91 158.688h-19.977c-2.7 0-5.056-1.92-5.603-4.565l-8.615-41.562 2.833 38.433 3.184 3.675c.632.726.772 1.725.374 2.599a2.406 2.406 0 0 1-2.208 1.42H84.084a5.693 5.693 0 0 1-5.72-5.548L76.733 99.1s0-.062.023-.093c0-.125-.031-.539-.062-1.015-.18-2.294-.601-7.663.156-14.023.952-7.967 3.418-14.624 7.312-19.774a.185.185 0 0 1 .117-.07l21.163-4.308a.182.182 0 0 1 .219.133l26.079 91.091 3.036 3.683c.6.733.725 1.717.319 2.575a2.405 2.405 0 0 1-2.192 1.389h.007zm-34.6-49.217c.085 0 .171.063.187.156l9.208 44.426c.507 2.466 2.708 4.253 5.228 4.253h19.977c.796 0 1.507-.453 1.85-1.171a2.02 2.02 0 0 0-.273-2.169l-3.067-3.715s-.031-.046-.039-.07l-26.04-90.958-20.922 4.253c-6 7.975-8.474 19.236-7.35 33.485.062.827.085 1.07.046 1.186l1.631 53.985a5.319 5.319 0 0 0 5.338 5.182h18.814c.812 0 1.522-.461 1.857-1.194a2.018 2.018 0 0 0-.312-2.185l-3.223-3.723s-.047-.07-.047-.109l-3.05-41.413c0-.102.062-.188.163-.203h.024v-.016z" fill="#000"/><path d="M80.082 152.88a.192.192 0 0 1-.187-.141.186.186 0 0 1 .133-.234c.093-.031 9.855-2.715 19.68-1.95a.196.196 0 0 1 .18.202c-.008.11-.102.18-.203.18-9.755-.765-19.455 1.912-19.548 1.935h-.055v.008zM109.186 153.623a.186.186 0 0 1-.171-.109c-.047-.094 0-.211.085-.257.078-.039 7.905-3.723 20.415-2.849.109 0 .187.102.179.203 0 .109-.101.18-.203.18-12.408-.867-20.141 2.778-20.219 2.817-.023.015-.054.015-.086.015zM98.334 109.962a.183.183 0 0 1-.187-.18l-1.63-27.632c-.11-1.764.858-3.41 2.403-4.089l2.255-.991c.094-.039.211 0 .25.101.039.094 0 .211-.102.25l-2.255.991c-1.397.617-2.279 2.107-2.177 3.715l1.63 27.632a.198.198 0 0 1-.179.203h-.008zM99.847 10.988c-1.904-1.576-4.87-1.576-7-.452-2.192 1.155-3.316 2.606-3.987 4.947a10.997 10.997 0 0 0-.367 4.151 5.657 5.657 0 0 0-2.95 2.334c-1.06 1.724-.491 3.91 1.046 5.142 1.46 1.17 3.41 1.163 5.065.468 2.442.188 4.62-2.075 5.79-4.003a13.663 13.663 0 0 0 1.397-3.2c1.56-.896 2.762-2.395 3.176-4.166.507-2.177-.437-3.785-2.162-5.213l-.008-.008z" fill="#000"/><path d="m91.475 21.68-5.221 10.566s5.985 7.374 10.488 7.078c4.51-.29 3.668-5.393.312-6.977l-2.411-.367 3.067-8.24-6.235-2.06z" fill="#fff"/><path d="M94.464 32.868s-.047 0-.063-.007a.195.195 0 0 1-.117-.242l3.176-8.748-5.891-1.943-4.69 9.637a.194.194 0 0 1-.258.086.194.194 0 0 1-.085-.257l4.76-9.786c.039-.086.14-.125.234-.101l6.235 2.06a.198.198 0 0 1 .109.101.165.165 0 0 1 0 .148l-3.246 8.936a.192.192 0 0 1-.18.124l.016-.008z" fill="#000"/><path d="M96.61 32.479h-.032l-1.787-.273a.199.199 0 0 1-.164-.219.194.194 0 0 1 .219-.164l1.786.273c.102.016.18.118.164.219a.192.192 0 0 1-.187.164z" fill="#000"/><path d="M100.861 18.29c.227 1.24.234 2.543-.187 3.73-.421 1.185-1.295 2.247-2.474 2.691-1.022.39-2.185.297-3.191-.124-1.007-.422-1.865-1.148-2.568-1.982-1.077.382-2.388-.063-3.004-1.023-.359-.554-.484-1.287-.195-1.88.289-.594 1.061-.945 1.654-.664.336.164.578.484.929.632.382.164.843.07 1.194-.164.343-.234.593-.585.796-.952a5.536 5.536 0 0 0 .515-3.831c.031.125.67.304.788.343.289.102.585.172.89.219a5.54 5.54 0 0 0 1.794-.016 5.63 5.63 0 0 0 .882-.234c.226-.078.523-.296.765-.296.507 0 .663.92.78 1.28.258.74.484 1.498.625 2.278l.007-.008z" fill="#fff"/><path d="M96.82 25.15a5.03 5.03 0 0 1-1.881-.383c-.921-.382-1.78-1.037-2.552-1.943-1.14.336-2.45-.132-3.106-1.139-.43-.663-.507-1.451-.203-2.068.351-.71 1.241-1.061 1.904-.75.188.087.336.212.484.336.148.117.281.235.437.297.297.125.687.07 1.015-.148.273-.188.507-.468.733-.89.601-1.116.78-2.466.5-3.699a.19.19 0 0 1 .351-.133c.047.04.195.102.6.227.04.008.063.023.079.023a5.1 5.1 0 0 0 .858.211 5.374 5.374 0 0 0 1.732-.016 4.55 4.55 0 0 0 .85-.226c.071-.023.15-.062.235-.11.18-.093.39-.194.593-.202.57 0 .765.71.898 1.186.023.086.046.164.062.219.304.89.507 1.623.632 2.302.265 1.428.195 2.715-.195 3.823-.46 1.32-1.428 2.365-2.583 2.81a4.091 4.091 0 0 1-1.452.257l.008.016zm-4.378-2.731c.054 0 .109.023.148.07.757.905 1.6 1.56 2.49 1.927 1.021.43 2.137.476 3.05.125 1.054-.406 1.936-1.366 2.365-2.583.367-1.045.429-2.263.179-3.628-.125-.664-.32-1.374-.616-2.248a2.267 2.267 0 0 1-.07-.242c-.094-.343-.258-.913-.523-.913-.117 0-.281.086-.422.156-.101.047-.187.094-.28.133-.297.101-.602.187-.914.242-.616.109-1.24.109-1.857.015a5.293 5.293 0 0 1-.92-.226l-.07-.023c-.157-.047-.282-.094-.391-.133a5.71 5.71 0 0 1-.609 3.55c-.257.477-.53.804-.858 1.023-.43.289-.96.359-1.374.187-.203-.086-.366-.218-.53-.351-.133-.11-.265-.218-.406-.28-.476-.227-1.14.046-1.405.577-.242.483-.171 1.147.18 1.693.57.882 1.787 1.295 2.778.944.023 0 .039-.008.062-.008l-.007-.007z" fill="#000"/><path d="M90.629 20.6c.6-.031 1.202.328 1.46.874l-1.46-.874z" fill="#fff"/><path d="M92.08 21.67c-.07 0-.14-.039-.171-.11-.227-.475-.75-.795-1.273-.764-.101 0-.195-.078-.202-.18 0-.109.078-.194.18-.202a1.765 1.765 0 0 1 1.638.983c.047.094 0 .21-.094.258-.023.015-.054.015-.078.015z" fill="#000"/><path d="M81.213 66.7c-2.208-1.147-3.597-3.402-4.65-5.657-2.482-5.291-3.684-11.16-3.668-17.004.008-2.895.366-5.947 2.06-8.295 1.834-2.544 4.97-3.87 8.069-4.331 1.248-.188 2.575-.25 3.73.273 1.498.67 2.411 2.177 3.535 3.37a10.737 10.737 0 0 0 4.838 2.935c1.17.328 2.59.414 3.356-.71.343-.507.452-1.124.366-1.733-.171-1.272-.999-2.247-1.802-3.183 1.545-.25 3.137.366 4.354 1.35 1.217.983 2.123 2.294 2.942 3.628 2.513 4.066 4.44 8.475 5.985 13.001.546 1.6 1.054 3.27.882 4.955-.195 1.904-.554 3.723-1.959 5.018-.452.421-.889.796-1.264 1.116-.718.6-1.654.85-2.583.726-5.103-.703-17.448 3.3-18.494 4.143-1.576 1.272-3.949 1.32-5.705.406l.008-.008z" fill="#5479F7"/><path d="M86.252 51.21a.192.192 0 0 1-.18-.133l-2.442-7.655a.193.193 0 0 1 .367-.117l2.442 7.655a.193.193 0 0 1-.125.242c-.015 0-.039.008-.054.008h-.008zM103.491 48.268a.191.191 0 0 1-.187-.164 31.58 31.58 0 0 0-1.553-6.227.183.183 0 0 1 .117-.242.183.183 0 0 1 .242.117 32.454 32.454 0 0 1 1.576 6.306.192.192 0 0 1-.164.218h-.031v-.008z" fill="#000"/><path d="M87.084 64.483c.085.281.21.593.483.687.219.07.484.023.664-.125 3.839-3.137 6.906-5.15 11.455-7.109.578-.25-.335 2.279 2.958.024.523-.36.086-1.42-.539-1.522.515-.07.952-.515 1.015-1.03a1.228 1.228 0 0 0-.726-1.249c.499.094.96-.405.983-.905.024-.507-.273-.975-.632-1.327 1.374.672 3.301 2.615 4.394 1.304.288-1.327-.64-2.037-1.67-2.927-1.03-.89-2.38-1.326-3.715-1.576-2.973-.562-6.071-.28-8.982.562-2.56.741-4.994 1.904-7.257 3.309-.554.343-.741.42-.75 1.06-.007.688.196 1.444.297 2.123a63.51 63.51 0 0 0 .812 4.207c.343 1.513.741 3.02 1.202 4.51l.008-.016z" fill="#fff"/><path d="M99.77 58.077a.192.192 0 0 1-.054-.374l1.318-.422a.193.193 0 1 1 .117.367l-1.318.421s-.04.008-.055.008h-.008zM80.068 56.086a.192.192 0 0 1-.148-.07.186.186 0 0 1 .023-.266 21.24 21.24 0 0 1 4.331-2.739c.094-.047.21 0 .258.094.047.094 0 .21-.094.257a20.466 20.466 0 0 0-4.253 2.685.191.191 0 0 1-.125.047l.008-.008z" fill="#000"/><path d="M103.845 59.179c.024.866.266 1.794.952 2.333.882.687 2.146.492 3.215.18 5.096-1.468 9.685-4.293 12.33-8.881.109-.187 1.077-2.513.679-3.036-.375-.491-1.303.445-1.904.57a64.53 64.53 0 0 0-7.741 2.138 62.5 62.5 0 0 0-3.863 1.475c-.968.406-1.795.515-2.45 1.397a6.247 6.247 0 0 0-1.226 3.824h.008z" fill="#fff"/><path d="M108.012 61.885c-.086 0-.156-.054-.188-.14a.186.186 0 0 1 .133-.234c5.611-1.616 9.833-4.659 12.213-8.795.187-.32.983-2.442.694-2.825a.188.188 0 0 1 .039-.265.189.189 0 0 1 .266.039c.515.679-.656 3.223-.672 3.246-2.426 4.23-6.734 7.328-12.438 8.974h-.055.008z" fill="#000"/><path d="M123.737 45.327h-9.364a.659.659 0 0 0-.515.25l-7.546 9.605a.651.651 0 0 0 .515 1.054h9.037a.62.62 0 0 0 .499-.242l7.874-9.606a.648.648 0 0 0-.5-1.061z" fill="#000"/><path d="M119.757 46.568c-.109-.102-.273-.203-.406-.133-.117.063-.14.218-.148.351-.078 1.303-.149 2.599-.227 3.902.016-1.163-.288-2.364-1.037-3.254-.188-.219-.515-.421-.734-.242-.133.11-.14.304-.133.476.063 1.46.648 2.965.133 4.339a9.944 9.944 0 0 0-.616-2.544c-.133-.336-.289-.68-.578-.882-.289-.21-.749-.219-.968.062-.234.305-.085.734.039 1.093a8.387 8.387 0 0 1 .461 3.254c-.141-.858-.32-1.787-.96-2.38-.187-.172-.421-.312-.671-.336-.258-.023-.531.102-.64.328-.125.25-.023.554.062.82a5.637 5.637 0 0 1 0 3.199c-.226.78-1.201 1.826-.171 2.435.351.21.788.226 1.202.163 1.147-.163 2.146-.858 3.043-1.591.921-.75 1.787-1.577 2.458-2.552.671-.976 1.132-2.123 1.163-3.309.031-1.186-.39-2.403-1.264-3.207l-.008.008zM68.52 21.46H41.629V.195H74.45L68.52 5.041V21.46z" fill="#fff"/><path d="M68.52 21.647h-26.9a.193.193 0 0 1-.194-.195V.195c0-.11.086-.195.195-.195h32.821c.079 0 .157.055.18.125a.194.194 0 0 1-.062.21L68.7 5.128V21.46c0 .109-.087.195-.196.195l.016-.008zm-26.704-.382h26.516V5.04c0-.055.024-.11.07-.148L73.92.383H41.824v20.882h-.008z" fill="#000"/><path d="M60.693 4.621H45.226a.193.193 0 0 1-.195-.195c0-.11.086-.195.195-.195h15.467c.11 0 .195.086.195.195 0 .11-.086.195-.195.195zM65.242 9.029H45.218a.193.193 0 0 1-.195-.195c0-.11.086-.195.195-.195h20.024c.11 0 .195.086.195.195 0 .11-.085.195-.195.195zM65.242 13.437H45.218a.193.193 0 0 1-.195-.195c0-.11.086-.196.195-.196h20.024c.11 0 .195.086.195.196 0 .109-.085.195-.195.195zM60.693 17.848H45.226a.193.193 0 0 1-.195-.195c0-.11.086-.196.195-.196h15.467c.11 0 .195.086.195.195 0 .11-.086.196-.195.196z" fill="#000"/><path d="M37.517 88.023c-3.036-5.806-9.107-9.763-16.115-9.763v18.175l16.115-8.405v-.007z" fill="#E2EAFF"/><path d="M21.405 96.426V78.25c-10.035 0-18.175 8.14-18.175 18.175S11.37 114.6 21.405 114.6s18.174-8.139 18.174-18.174a18.02 18.02 0 0 0-2.06-8.405l-16.114 8.405z" fill="#fff"/><path d="M21.405 114.789c-10.13 0-18.362-8.241-18.362-18.362 0-10.121 8.24-18.362 18.362-18.362.109 0 .195.086.195.195 0 .11-.086.195-.195.195-9.91 0-17.98 8.07-17.98 17.98s8.07 17.979 17.98 17.979 17.979-8.069 17.979-17.98c0-2.894-.702-5.766-2.037-8.318-.047-.093-.015-.21.078-.257.094-.047.211-.016.258.078a18.46 18.46 0 0 1 2.083 8.498c0 10.129-8.24 18.361-18.361 18.361v-.007z" fill="#000"/><path d="M44.558 35.86H.195v32.447h44.363V35.858z" fill="#fff"/><path d="M44.55 68.502H.195A.193.193 0 0 1 0 68.307V35.858c0-.109.086-.195.195-.195h44.363c.11 0 .195.086.195.195v32.447c0 .11-.086.196-.195.196h-.008zM.382 68.119h43.981V36.054H.383V68.12z" fill="#000"/><path d="M10.629 39.041a.193.193 0 0 1-.195-.195c0-.11.086-.195.195-.195a3.03 3.03 0 0 0 3.028-3.028 3.03 3.03 0 0 0-3.028-3.027A3.03 3.03 0 0 0 7.6 35.623c0 .11-.086.195-.195.195a.193.193 0 0 1-.195-.195c0-1.88 1.53-3.41 3.41-3.41 1.88 0 3.41 1.53 3.41 3.41 0 1.88-1.53 3.41-3.41 3.41l.008.008zM22.371 39.041a.193.193 0 0 1-.195-.195c0-.11.086-.195.195-.195a3.03 3.03 0 0 0 3.028-3.028 3.03 3.03 0 0 0-3.028-3.027 3.03 3.03 0 0 0-3.028 3.027c0 .11-.085.195-.195.195a.193.193 0 0 1-.195-.195c0-1.88 1.53-3.41 3.41-3.41 1.88 0 3.41 1.53 3.41 3.41 0 1.88-1.53 3.41-3.41 3.41l.008.008zM34.117 39.041a.193.193 0 0 1-.195-.195c0-.11.086-.195.195-.195a3.03 3.03 0 0 0 3.028-3.028 3.03 3.03 0 0 0-3.028-3.027 3.03 3.03 0 0 0-3.028 3.027c0 .11-.085.195-.195.195a.193.193 0 0 1-.195-.195c0-1.88 1.53-3.41 3.41-3.41 1.881 0 3.41 1.53 3.41 3.41 0 1.88-1.529 3.41-3.41 3.41l.008.008z" fill="#000"/><path d="M10.497 41.907h-6.04v6.04h6.04v-6.04z" fill="#E2EAFF"/><path d="M17.942 41.907h-6.04v6.04h6.04v-6.04z" fill="#fff"/><path d="M17.95 48.133h-6.04a.193.193 0 0 1-.195-.196v-6.04c0-.109.086-.194.195-.194h6.04c.11 0 .195.085.195.194v6.04c0 .11-.086.196-.195.196zm-5.853-.383h5.658v-5.657h-5.658v5.657z" fill="#000"/><path d="M25.395 41.907h-6.04v6.04h6.04v-6.04z" fill="#5479F7"/><path d="M32.84 41.907H26.8v6.04h6.04v-6.04z" fill="#fff"/><path d="M32.848 48.133h-6.04a.193.193 0 0 1-.195-.196v-6.04c0-.109.086-.195.195-.195h6.04c.11 0 .195.086.195.196v6.04c0 .109-.085.194-.195.194zm-5.852-.383h5.657v-5.657h-5.657v5.657z" fill="#000"/><path d="M40.29 41.907h-6.04v6.04h6.04v-6.04z" fill="#fff"/><path d="M40.29 48.133h-6.04a.193.193 0 0 1-.195-.196v-6.04c0-.109.086-.194.195-.194h6.04c.109 0 .195.085.195.194v6.04c0 .11-.086.196-.195.196zm-5.853-.383h5.658v-5.657h-5.658v5.657zM10.497 55.295h-6.04a.193.193 0 0 1-.195-.195v-6.04c0-.109.086-.195.195-.195h6.04c.109 0 .195.086.195.195v6.04c0 .11-.086.195-.195.195zm-5.853-.382h5.658v-5.658H4.644v5.658z" fill="#000"/><path d="M17.942 49.06h-6.04v6.04h6.04v-6.04z" fill="#fff"/><path d="M17.95 55.295h-6.04a.193.193 0 0 1-.195-.196v-6.04c0-.109.086-.194.195-.194h6.04c.11 0 .195.085.195.195v6.04c0 .109-.086.195-.195.195zm-5.853-.383h5.658v-5.657h-5.658v5.657zM25.395 55.295h-6.04a.193.193 0 0 1-.195-.195v-6.04c0-.109.086-.195.195-.195h6.04c.11 0 .195.086.195.195v6.04c0 .11-.086.195-.195.195zm-5.852-.382H25.2v-5.658h-5.657v5.658z" fill="#000"/><path d="M32.84 49.06H26.8v6.04h6.04v-6.04z" fill="#fff"/><path d="M32.848 55.295h-6.04a.193.193 0 0 1-.195-.196v-6.04c0-.109.086-.194.195-.194h6.04c.11 0 .195.085.195.195v6.04c0 .109-.085.195-.195.195zm-5.852-.383h5.657v-5.657h-5.657v5.657z" fill="#000"/><path d="M40.294 49.06h-6.04v6.04h6.04v-6.04z" fill="#fff"/><path d="M40.294 55.295h-6.04a.193.193 0 0 1-.195-.196v-6.04c0-.109.085-.194.195-.194h6.04c.109 0 .195.085.195.195v6.04c0 .109-.086.195-.195.195zm-5.853-.383h5.657v-5.657h-5.657v5.657z" fill="#000"/><path d="M10.497 56.22h-6.04v6.04h6.04v-6.04z" fill="#fff"/><path d="M10.497 62.454h-6.04a.193.193 0 0 1-.195-.195v-6.04c0-.11.086-.195.195-.195h6.04c.109 0 .195.086.195.195v6.04c0 .11-.086.195-.195.195zm-5.853-.382h5.658v-5.658H4.644v5.658z" fill="#000"/><path d="M17.942 56.22h-6.04v6.04h6.04v-6.04z" fill="#fff"/><path d="M17.95 62.454h-6.04a.193.193 0 0 1-.195-.195v-6.04c0-.11.086-.195.195-.195h6.04c.11 0 .195.086.195.195v6.04c0 .11-.086.195-.195.195zm-5.853-.382h5.658v-5.658h-5.658v5.658z" fill="#000"/><path d="M25.395 56.219h-6.04v6.04h6.04v-6.04z" fill="#E2EAFF"/><path d="M54.795 94.793c6.443 0 11.666-5.223 11.666-11.666 0-6.443-5.223-11.666-11.666-11.666-6.443 0-11.666 5.223-11.666 11.666 0 6.443 5.223 11.666 11.666 11.666z" fill="#fff"/><path d="M54.795 94.988c-6.54 0-11.861-5.322-11.861-11.861 0-6.54 5.322-11.861 11.861-11.861 6.54 0 11.861 5.322 11.861 11.861 0 6.54-5.322 11.861-11.861 11.861zm0-23.332c-6.329 0-11.479 5.15-11.479 11.479 0 6.328 5.15 11.479 11.479 11.479 6.329 0 11.479-5.15 11.479-11.48 0-6.328-5.15-11.478-11.479-11.478z" fill="#000"/><path d="M61.788 89.325H47.812a.193.193 0 0 1-.195-.195V78.712c0-.11.086-.195.195-.195h13.976c.11 0 .196.086.196.195V89.13c0 .109-.086.195-.196.195zM48 88.942h13.593V78.907H48v10.035z" fill="#000"/><path d="M56.141 85.126h-2.684a.193.193 0 0 1-.195-.195v-2.333c0-.11.086-.195.195-.195h2.684c.11 0 .195.085.195.195v2.333c0 .11-.085.195-.195.195zm-2.49-.382h2.303v-1.951h-2.302v1.95z" fill="#000"/><path d="M53.455 84.111s-.078-.008-.11-.03l-4.947-3.49a.19.19 0 0 1-.046-.264.19.19 0 0 1 .265-.047l4.947 3.488a.19.19 0 0 1 .047.265.182.182 0 0 1-.156.078zM56.14 84.111a.204.204 0 0 1-.156-.078.19.19 0 0 1 .047-.265l4.948-3.488a.19.19 0 0 1 .265.047.19.19 0 0 1-.047.265L56.25 84.08s-.07.031-.11.031zM58.246 77.925a.193.193 0 0 1-.195-.195v-.96a.811.811 0 0 0-.812-.811h-4.885a.811.811 0 0 0-.812.811v.96c0 .11-.085.195-.195.195a.193.193 0 0 1-.195-.195v-.96c0-.663.539-1.194 1.194-1.194h4.885c.664 0 1.194.539 1.194 1.195v.96c0 .109-.086.194-.195.194h.016z" fill="#000"/><path d="M58.979 78.277h-1.46a.193.193 0 0 1-.195-.195c0-.11.086-.195.195-.195h1.46c.109 0 .195.086.195.195 0 .11-.086.195-.195.195zM52.072 78.277h-1.459a.193.193 0 0 1-.195-.195c0-.11.086-.195.195-.195h1.46c.109 0 .194.086.194.195 0 .11-.085.195-.195.195z" fill="#000"/><path d="M52.722 125.587c-16.426.203-17.394 28.374-16.575 29.427 2.302 2.958 16.575 3.332 16.575 3.332h.25s14.273-.374 16.574-3.332c.82-1.053-.148-29.224-16.574-29.427h-.25z" fill="#fff"/><path d="M52.722 158.535c-.593-.016-14.39-.414-16.723-3.402-.554-.718-.375-11.674 3.652-20.063 3.051-6.352 7.452-9.606 13.07-9.669h.25c5.62.07 10.02 3.324 13.072 9.669 4.034 8.389 4.213 19.352 3.66 20.063-2.334 2.988-16.138 3.386-16.724 3.402h-.257zm0-32.751c-5.197.062-9.34 2.965-12.306 8.615-4.464 8.505-4.55 19.86-4.12 20.507 2.223 2.849 16.285 3.254 16.426 3.254h.25c.14 0 14.202-.405 16.426-3.254.43-.64.343-12.002-4.12-20.507-2.966-5.65-7.11-8.553-12.306-8.615h-.25z" fill="#000"/><path d="M46.711 127.124c-.288-1.373-6.75-5.244-7.585-7.881-.835-2.638 1.655-.976 3.793-1.046 2.138-.07 2.567-1.49 5.252-1.529 2.575-.032 2.754 1.045 4.573 1.116h.109c2.255.046 2.49-1.132 5.017-1.116 2.685.015 2.81 1.436 4.948 1.506 2.138.07 4.48-1.569 3.644 1.069-.835 2.637-7.382 6.742-7.53 7.881h-12.22z" fill="#fff"/><path d="M46.712 127.321a.192.192 0 0 1-.188-.157c-.109-.53-1.428-1.623-2.825-2.778-1.997-1.662-4.268-3.535-4.76-5.087-.234-.75-.234-1.226.016-1.499.359-.398 1.077-.242 1.99-.054.616.132 1.31.273 1.966.257.952-.031 1.561-.343 2.2-.679.742-.39 1.577-.827 3.06-.85 1.475-.024 2.208.327 2.856.632.515.242.96.452 1.725.484h.101c1.07.023 1.662-.235 2.294-.516.68-.296 1.382-.608 2.685-.608h.039c1.482 0 2.24.445 2.903.835.57.328 1.1.64 2.044.671.648.016 1.335-.125 1.935-.258.859-.187 1.538-.327 1.881.055.25.273.25.741 0 1.522-.5 1.584-2.95 3.644-4.924 5.298-1.256 1.054-2.552 2.146-2.606 2.552a.194.194 0 0 1-.219.164.194.194 0 0 1-.164-.219c.07-.522 1.038-1.357 2.74-2.793 1.927-1.623 4.33-3.644 4.799-5.127.241-.757.171-1.038.078-1.147-.196-.219-.843-.078-1.522.062-.624.133-1.327.281-2.03.265-1.045-.031-1.646-.382-2.23-.725-.656-.383-1.328-.773-2.716-.781h-.04c-1.225 0-1.888.289-2.536.57-.64.281-1.295.57-2.45.546h-.11c-.85-.031-1.35-.273-1.88-.523-.64-.304-1.31-.616-2.692-.593-1.381.016-2.146.422-2.887.804-.68.359-1.32.695-2.365.726-.694.023-1.42-.133-2.052-.265-.726-.157-1.413-.297-1.623-.063-.102.109-.172.39.062 1.124.46 1.444 2.778 3.363 4.643 4.908 1.577 1.303 2.817 2.334 2.95 2.989a.193.193 0 0 1-.148.226h-.04l.04.032z" fill="#000"/><path d="M57.28 125.949s-.047 0-.07-.016c-.102-.039-.149-.148-.102-.25.063-.148 1.514-3.628 3.683-4.315a.192.192 0 0 1 .117.367c-1.997.632-3.433 4.065-3.441 4.097a.197.197 0 0 1-.18.117h-.007zM50.465 125.785a.2.2 0 0 1-.187-.149c-.632-2.817-3.566-3.535-3.597-3.542a.189.189 0 0 1-.14-.227.188.188 0 0 1 .225-.14c.032 0 3.2.78 3.887 3.831a.188.188 0 0 1-.149.227h-.039zM54.297 125.948a.192.192 0 0 1-.188-.195c.063-2.146.57-3.762 1.499-4.799a.196.196 0 0 1 .273-.016c.078.07.086.195.015.273-.874.968-1.342 2.505-1.404 4.55a.19.19 0 0 1-.188.187h-.007zM60.618 133.346a.192.192 0 0 1-.187-.164c-.546-3.426-4.011-6.297-4.05-6.328-.078-.071-.094-.188-.024-.266.07-.078.188-.093.266-.023.148.117 3.613 2.996 4.182 6.563a.193.193 0 0 1-.156.218h-.03zM53.808 132.597c-.11 0-.188-.086-.188-.195.047-3.636-.928-5.587-.936-5.611a.193.193 0 0 1 .086-.257.193.193 0 0 1 .257.086c.04.078 1.023 2.044.976 5.79a.192.192 0 0 1-.195.187zM45.66 134.096h-.038a.194.194 0 0 1-.149-.227c1.07-5.376 4.027-7.374 4.152-7.46a.198.198 0 0 1 .265.055.198.198 0 0 1-.055.265c-.03.016-2.95 2.006-3.987 7.218a.19.19 0 0 1-.187.156v-.007zM52.318 150.638v-1.569c-.898-.015-1.834-.296-2.38-.686l.374-1.038a4.137 4.137 0 0 0 2.24.671c1.1 0 1.85-.64 1.85-1.522s-.61-1.381-1.757-1.849c-1.584-.625-2.567-1.335-2.567-2.685s.913-2.27 2.349-2.505v-1.568h.96v1.506c.928.031 1.568.281 2.02.546l-.39 1.022a3.742 3.742 0 0 0-1.958-.53c-1.194 0-1.647.718-1.647 1.334 0 .812.578 1.21 1.928 1.772 1.6.655 2.411 1.459 2.411 2.84 0 1.225-.858 2.38-2.458 2.638v1.615h-.975v.008z" fill="#000"/><path d="M46.424 127.048a.552.552 0 0 0 .491.156c.718-.125 2.724-.507 6.087-.499 2.973 0 5.096.452 5.837.585a.508.508 0 0 0 .46-.156l.562-.663a.212.212 0 0 0-.109-.344c-.967-.234-3.894-.866-6.906-.874-3.574-.008-6.313.632-7.085.835a.13.13 0 0 0-.063.219l.726.741z" fill="#fff"/><path d="M58.926 127.493c-.04 0-.086 0-.125-.016l-.14-.023c-.859-.164-2.872-.554-5.658-.562h-.094c-3.145 0-5.111.351-5.86.484l-.102.015a.778.778 0 0 1-.663-.21l-.726-.742a.35.35 0 0 1-.086-.312.33.33 0 0 1 .227-.226c.757-.195 3.496-.843 7.07-.843h.062c2.989 0 5.86.617 6.953.882.14.031.25.133.289.265a.397.397 0 0 1-.078.39l-.562.664a.695.695 0 0 1-.515.234h.008zm-6.017-.983h.094c2.817 0 4.861.398 5.728.561l.14.024a.296.296 0 0 0 .281-.094l.562-.663s.008-.008 0-.024c-1.093-.273-3.933-.874-6.875-.881-3.418 0-6.063.585-6.937.803l.655.664c.086.086.21.125.32.101l.101-.015c.758-.133 2.747-.484 5.923-.484l.008.008zM21.851 28.747a.193.193 0 0 1-.195-.195V11.806c0-.11.086-.195.195-.195H37.21c.109 0 .195.086.195.195 0 .11-.086.195-.195.195H22.046v16.56c0 .108-.085.194-.195.194v-.008zM20.648 74.822a.193.193 0 0 1-.195-.195V70.24c0-.11.086-.195.195-.195.11 0 .195.086.195.195v4.386c0 .109-.085.195-.195.195zM18.262 125.402a.193.193 0 0 1-.196-.195v-8.303c0-.11.086-.195.196-.195.109 0 .195.085.195.195v8.303a.193.193 0 0 1-.195.195zM33.814 154.628H18.66a.193.193 0 0 1-.195-.195v-7.757c0-.109.086-.195.195-.195.11 0 .195.086.195.195v7.562h14.967c.11 0 .195.085.195.195a.193.193 0 0 1-.195.195h-.008zM54.758 112.918a.193.193 0 0 1-.196-.195v-14.96c0-.109.086-.194.196-.194.109 0 .195.085.195.195v14.959a.193.193 0 0 1-.195.195zM73.501 82.797h-5.384a.193.193 0 0 1-.195-.195c0-.11.086-.195.195-.195h5.384c.11 0 .195.085.195.195 0 .109-.085.195-.195.195zM55.552 68.64a.193.193 0 0 1-.195-.196v-14.57H46.57a.193.193 0 0 1-.195-.194c0-.11.086-.195.195-.195h8.974c.11 0 .195.086.195.195v14.756c0 .11-.086.195-.195.195l.008.008zM55.154 51.283h-8.373a.193.193 0 0 1-.195-.195c0-.109.086-.195.195-.195h8.186V24.572c0-.11.086-.195.195-.195.11 0 .195.086.195.195v26.524c0 .11-.086.195-.195.195l-.008-.008z" fill="#000"/><path d="M18.189 144.344a2.232 2.232 0 1 0-.001-4.465 2.232 2.232 0 0 0 0 4.465zM18.189 137.826a2.232 2.232 0 1 0 0-4.463 2.232 2.232 0 0 0 0 4.463zM18.189 131.318a2.232 2.232 0 1 0 0-4.463 2.232 2.232 0 0 0 0 4.463z" fill="#E2EAFF"/><path d="M201.527 135.706a2.972 2.972 0 0 0 2.973 2.973h18.931a2.972 2.972 0 0 0 2.973-2.973c0-4.581 1.733-9.006 4.878-12.33a23.783 23.783 0 0 0 6.539-16.403c0-13.196-10.714-23.887-23.918-23.855-12.759.03-23.379 10.324-23.785 23.075a23.766 23.766 0 0 0 6.399 17.05c3.168 3.395 5.01 7.82 5.01 12.463z" fill="#fff"/><path d="M223.431 138.866H204.5a3.167 3.167 0 0 1-3.161-3.16c0-4.534-1.763-8.912-4.955-12.338-4.362-4.674-6.657-10.777-6.454-17.183.195-6.22 2.794-12.057 7.312-16.442 4.519-4.386 10.434-6.805 16.653-6.82h.062c6.415 0 12.439 2.489 16.981 7.023 4.557 4.541 7.062 10.589 7.062 17.027 0 6.438-2.341 12.056-6.594 16.536-3.113 3.285-4.83 7.616-4.83 12.197 0 1.748-1.42 3.16-3.161 3.16h.016zm-9.466-55.561h-.062c-12.611.031-23.192 10.3-23.59 22.895-.203 6.306 2.052 12.314 6.352 16.911 3.262 3.496 5.057 7.967 5.057 12.595a2.784 2.784 0 0 0 2.778 2.778h18.931a2.785 2.785 0 0 0 2.778-2.778c0-4.683 1.748-9.107 4.932-12.463a23.548 23.548 0 0 0 6.485-16.27c0-6.079-2.466-12.283-6.953-16.754-4.472-4.456-10.402-6.906-16.708-6.906v-.008z" fill="#000"/><path d="M203.273 138.695v9.497c0 5.899 4.784 10.691 10.691 10.691a10.687 10.687 0 0 0 10.691-10.691v-9.497H203.273z" fill="#fff"/><path d="M213.964 159.07c-6.001 0-10.878-4.877-10.878-10.878v-9.497c0-.109.086-.195.195-.195h21.374c.109 0 .195.086.195.195v9.497c0 6.001-4.877 10.878-10.878 10.878h-.008zm-10.496-20.188v9.31c0 5.79 4.706 10.495 10.496 10.495s10.496-4.705 10.496-10.495v-9.31h-20.992z" fill="#000"/><path d="M201.625 145.455a.192.192 0 0 1-.187-.156c-.023-.101.047-.202.148-.226l24.636-4.986a.191.191 0 0 1 .226.148c.024.101-.046.203-.148.226l-24.636 4.987h-.039v.007zM201.625 150.238a.194.194 0 0 1-.039-.382l24.636-4.987a.193.193 0 0 1 .226.149c.024.101-.046.203-.148.226l-24.636 4.986h-.039v.008zM203.274 154.694a.19.19 0 0 1-.187-.156c-.024-.101.046-.203.148-.226l22.614-4.581a.194.194 0 0 1 .227.149c.023.101-.047.202-.149.226l-22.614 4.581h-.039v.007z" fill="#000"/><path d="M208.299 132.679a.185.185 0 0 1-.187-.156l-4.487-26.672a.196.196 0 0 1 .07-.187.18.18 0 0 1 .195-.024l6.274 2.911 3.645-3.496a.2.2 0 0 1 .249-.016l4.433 3.364 5.977-2.451a.198.198 0 0 1 .195.032.19.19 0 0 1 .063.187l-5.455 26.352a.193.193 0 0 1-.226.149c-.102-.024-.172-.125-.148-.227l5.384-25.993-5.751 2.356a.198.198 0 0 1-.187-.023l-4.394-3.332-3.621 3.472a.19.19 0 0 1-.21.04l-6.064-2.81 4.433 26.314a.193.193 0 0 1-.156.218h-.032v-.008zM137.498 26.457c4.616 0 8.358-3.749 8.358-8.373 0-4.625-3.742-8.374-8.358-8.374-4.616 0-8.357 3.75-8.357 8.374 0 4.624 3.741 8.373 8.357 8.373z" fill="#5479F7"/><mask id="a" style="mask-type:luminance" maskUnits="userSpaceOnUse" x="130" y="10" width="15" height="16"><path d="M137.495 25.412c4.043 0 7.32-3.28 7.32-7.328 0-4.047-3.277-7.327-7.32-7.327-4.042 0-7.319 3.28-7.319 7.327 0 4.047 3.277 7.328 7.319 7.328z" fill="#fff"/></mask><g mask="url(#a)"><path d="M142.075 26.196h-9.153a.196.196 0 0 1-.141-.063.187.187 0 0 1-.054-.14l.452-9.115c.148-2.942 2.045-5.244 4.316-5.244 2.27 0 4.167 2.302 4.315 5.244l.452 9.115a.187.187 0 0 1-.054.14.196.196 0 0 1-.141.063h.008zm-8.95-.383h8.755l-.445-8.911c-.14-2.74-1.865-4.878-3.933-4.878-2.068 0-3.792 2.146-3.933 4.878l-.444 8.911z" fill="#fff"/><path d="m141.639 21.615-4.144-.952-4.143.952a3.155 3.155 0 0 0-2.318 2.2l-.897 4.753h14.717l-.897-4.752a3.155 3.155 0 0 0-2.318-2.2z" fill="#fff"/><path d="M137.494 23.222a1.792 1.792 0 0 1-1.787-1.787l.577-3.348h2.427l.578 3.348c0 .991-.796 1.787-1.787 1.787h-.008z" fill="#fff"/><path d="M140.489 15.768a.634.634 0 0 0-.382.023c-.102-1.654-1.233-2.778-2.607-2.778-1.373 0-2.505 1.124-2.606 2.778a.59.59 0 0 0-.383-.023c-.39.093-.608.546-.491.999.117.452.515.749.905.647a.673.673 0 0 0 .172-.07c.398 1.225 1.326 2.154 2.411 2.154s2.013-.937 2.411-2.154c.055.031.11.055.172.07.39.094.788-.195.905-.647.117-.453-.109-.905-.491-1h-.016z" fill="#fff"/><path d="M137.492 19.694c-1.053 0-2.044-.835-2.52-2.091h-.016c-.242.063-.491 0-.71-.148a1.071 1.071 0 0 1-.421-.64c-.141-.554.148-1.108.632-1.233.086-.024.171-.024.257-.024.188-1.6 1.327-2.73 2.778-2.73 1.452 0 2.591 1.139 2.778 2.73.086 0 .172 0 .258.024.491.125.772.671.632 1.233a1.112 1.112 0 0 1-.421.64.845.845 0 0 1-.711.148h-.015c-.476 1.256-1.475 2.091-2.521 2.091zm-2.403-2.536s.047 0 .062.016a.213.213 0 0 1 .117.117c.398 1.21 1.288 2.021 2.224 2.021.937 0 1.834-.812 2.224-2.021a.178.178 0 0 1 .117-.117.174.174 0 0 1 .164.015c.039.024.078.04.117.055.133.031.273 0 .398-.086a.715.715 0 0 0 .273-.421c.086-.351-.07-.695-.351-.765a.391.391 0 0 0-.265.024.193.193 0 0 1-.172-.016.169.169 0 0 1-.086-.148c-.093-1.507-1.108-2.599-2.419-2.599s-2.325 1.092-2.419 2.599a.184.184 0 0 1-.086.148.19.19 0 0 1-.171.015.546.546 0 0 0-.273-.023c-.281.07-.445.414-.352.765a.73.73 0 0 0 .274.421.444.444 0 0 0 .398.086.264.264 0 0 0 .117-.055c.031-.015.062-.03.101-.03h.008z" fill="#5479F7"/><path d="M134.848 16.214c1.304-.242 2.661-1.405 3.481-2.458.156.928.983 2.013 1.842 2.396 0 0 .413-3.7-2.669-3.582-3.083.117-2.654 3.636-2.654 3.636v.008z" fill="#5479F7"/></g><path d="M164.279 29.508c4.616 0 8.358-3.745 8.358-8.366 0-4.62-3.742-8.365-8.358-8.365-4.615 0-8.357 3.745-8.357 8.365s3.742 8.366 8.357 8.366z" fill="#5479F7"/><mask id="b" style="mask-type:luminance" maskUnits="userSpaceOnUse" x="156" y="13" width="16" height="16"><path d="M164.281 28.467c4.042 0 7.319-3.28 7.319-7.328 0-4.047-3.277-7.327-7.319-7.327-4.043 0-7.32 3.28-7.32 7.327 0 4.047 3.277 7.328 7.32 7.328z" fill="#fff"/></mask><g mask="url(#b)"><path d="M165.582 23.953a1.446 1.446 0 0 1-1.444-1.443c0-.086-.023-.149-.078-.188a.386.386 0 0 0-.226-.062c-.203 0-.476.117-.476.343 0 .702-.57 1.28-1.272 1.28-.702 0-1.272-.57-1.272-1.272-.047 0-.094.008-.148.008a1.314 1.314 0 0 1-1.311-1.311c0-.133.023-.258.062-.39a1.743 1.743 0 0 1-.733-1.413c0-.679.398-1.287.998-1.56a1.482 1.482 0 0 1 1.709-2.302 1.499 1.499 0 0 1 1.428-1.085c.297 0 .578.086.82.242a1.688 1.688 0 0 1 3.207.663c.07-.008.133-.016.203-.016a1.559 1.559 0 0 1 1.467 2.076c.788.187 1.358.89 1.358 1.733 0 .936-.726 1.709-1.647 1.779a1.388 1.388 0 0 1-1.209 1.264 1.445 1.445 0 0 1-1.428 1.654h-.008zm-1.74-2.083c.406 0 .686.257.686.64a1.063 1.063 0 0 0 2.123 0c0-.11-.016-.227-.055-.336-.023-.062-.007-.125.032-.18a.219.219 0 0 1 .163-.078h.055a1.01 1.01 0 0 0 1.007-1.006v-.047c0-.055.015-.117.054-.156.039-.04.094-.07.141-.063h.054c.773 0 1.397-.624 1.397-1.396 0-.726-.546-1.327-1.272-1.39a.173.173 0 0 1-.148-.1.185.185 0 0 1 0-.18 1.176 1.176 0 0 0-1.022-1.748c-.117 0-.234.015-.351.054a.21.21 0 0 1-.18-.039.194.194 0 0 1-.07-.171c0-.055.008-.102.008-.156 0-.718-.586-1.304-1.303-1.304-.578 0-1.093.39-1.249.945a.19.19 0 0 1-.133.132.19.19 0 0 1-.179-.046 1.074 1.074 0 0 0-.765-.313c-.562 0-1.046.445-1.092 1.007 0 .07-.047.125-.11.156a.198.198 0 0 1-.187-.008 1.07 1.07 0 0 0-.593-.171 1.105 1.105 0 0 0-.695 1.959.195.195 0 0 1 .071.187.209.209 0 0 1-.141.148 1.337 1.337 0 0 0-1.006 1.303c0 .484.257.929.678 1.163a.19.19 0 0 1 .079.242.925.925 0 0 0 1.147 1.256c.062-.023.14 0 .187.039.055.047.07.117.055.187a.896.896 0 0 0 .866 1.092.89.89 0 0 0 .889-.897c0-.444.445-.725.859-.725z" fill="#fff"/><path d="m168.424 24.671-4.143-.952-4.144.952a3.158 3.158 0 0 0-2.318 2.193l-.897 4.752h14.717l-.897-4.752a3.132 3.132 0 0 0-2.318-2.193z" fill="#fff"/><path d="M164.279 26.287a1.792 1.792 0 0 1-1.787-1.787l.578-3.347h2.427l.577 3.347c0 .991-.796 1.787-1.787 1.787h-.008z" fill="#fff"/><path d="M167.27 18.835a.634.634 0 0 0-.382.023c-.102-1.654-1.233-2.778-2.607-2.778-1.373 0-2.504 1.124-2.606 2.778a.586.586 0 0 0-.382-.023c-.39.094-.609.546-.492.999.117.452.515.749.905.648a.662.662 0 0 0 .172-.07c.398 1.224 1.327 2.153 2.411 2.153 1.085 0 2.014-.936 2.412-2.154a.655.655 0 0 0 .171.07c.39.094.788-.195.905-.647.118-.453-.109-.905-.491-.999h-.016z" fill="#fff"/><path d="M164.28 22.759c-1.054 0-2.045-.835-2.521-2.092h-.015c-.242.063-.492 0-.71-.148a1.077 1.077 0 0 1-.422-.64 1.163 1.163 0 0 1 .07-.765.859.859 0 0 1 .562-.468.726.726 0 0 1 .258-.023c.187-1.6 1.326-2.732 2.778-2.732 1.451 0 2.591 1.14 2.778 2.732.086 0 .172 0 .257.023a.859.859 0 0 1 .562.468c.117.226.141.5.07.765-.07.265-.218.492-.421.64a.842.842 0 0 1-.71.148h-.016c-.476 1.256-1.474 2.091-2.52 2.091zm-2.411-2.537s.046 0 .07.016a.22.22 0 0 1 .117.117c.398 1.21 1.287 2.021 2.224 2.021.936 0 1.834-.812 2.224-2.021a.174.174 0 0 1 .117-.117.174.174 0 0 1 .164.015c.039.024.078.04.117.055.132.031.273 0 .398-.086a.72.72 0 0 0 .273-.421.75.75 0 0 0-.047-.507.473.473 0 0 0-.312-.266.418.418 0 0 0-.273.024.193.193 0 0 1-.172-.016.169.169 0 0 1-.086-.148c-.093-1.506-1.108-2.599-2.419-2.599s-2.325 1.093-2.419 2.599a.184.184 0 0 1-.086.148.19.19 0 0 1-.171.016.526.526 0 0 0-.266-.024.475.475 0 0 0-.312.266.796.796 0 0 0-.047.507c.039.18.141.328.273.421a.445.445 0 0 0 .398.086.265.265 0 0 0 .117-.055c.032-.015.063-.03.102-.03h.016z" fill="#5479F7"/><path d="M161.721 18.897c1.303-.242 2.575-1.03 3.387-2.076.156.929.944 1.694 1.81 2.076 0 0 .445-3.379-2.637-3.262-3.083.117-2.56 3.262-2.56 3.262z" fill="#5479F7"/></g><path d="M148.596 52.915c4.616 0 8.357-3.745 8.357-8.365s-3.741-8.366-8.357-8.366-8.358 3.746-8.358 8.366c0 4.62 3.742 8.365 8.358 8.365z" fill="#5479F7"/><mask id="c" style="mask-type:luminance" maskUnits="userSpaceOnUse" x="141" y="37" width="15" height="15"><path d="M148.597 51.875c4.043 0 7.32-3.28 7.32-7.328 0-4.046-3.277-7.327-7.32-7.327s-7.32 3.28-7.32 7.327c0 4.047 3.277 7.328 7.32 7.328z" fill="#fff"/></mask><g mask="url(#c)"><path d="m152.741 48.08-4.144-.952-4.144.952a3.157 3.157 0 0 0-2.317 2.193l-.898 4.752h14.718l-.898-4.752a3.13 3.13 0 0 0-2.317-2.193z" fill="#fff"/><path d="M146.809 44.561h3.574v3.465c0 .92-.75 1.67-1.67 1.67h-.234c-.921 0-1.67-.75-1.67-1.67v-3.465z" fill="#fff"/><path d="M151.552 42.293a.64.64 0 0 0-.382.023c-.102-1.639-1.218-2.747-2.583-2.747-1.366 0-2.482 1.108-2.583 2.747a.585.585 0 0 0-.383-.023c-.382.093-.601.538-.491.99.109.453.515.742.897.648a.662.662 0 0 0 .172-.07c.398 1.21 1.311 2.138 2.388 2.138s1.99-.928 2.388-2.138a.655.655 0 0 0 .171.07c.383.094.781-.195.898-.647.109-.453-.11-.898-.492-.991z" fill="#fff"/><path d="M148.596 46.185c-1.093 0-2.123-.913-2.568-2.271a.193.193 0 0 1 .367-.117c.39 1.202 1.28 2.005 2.201 2.005.92 0 1.81-.803 2.2-2.005a.193.193 0 0 1 .367.117c-.445 1.358-1.475 2.27-2.567 2.27zM149.471 38.32c-2.216-.375-4.783.086-3.699 3.582l.281.835.453.304s-.125-2.302.593-2.42c.679-.108.726.336 1.545.32.819.024.858-.428 1.545-.32.718.118.593 2.42.593 2.42l.453-.304.281-.835c.718-2.708-.437-3.777-2.037-3.582h-.008z" fill="#5479F7"/><path d="M146.506 43.227s-.078-.008-.109-.031l-.453-.304s-.062-.055-.07-.094l-.281-.835c-.429-1.366-.343-2.403.25-3.082.889-1.023 2.645-.913 3.636-.75.804-.093 1.491.125 1.92.617.406.46.788 1.397.304 3.207l-.289.85a.21.21 0 0 1-.07.095l-.452.304c-.063.039-.141.047-.203.008a.184.184 0 0 1-.094-.18c.047-.89-.078-2.161-.437-2.224-.289-.047-.421.016-.616.11a1.747 1.747 0 0 1-.906.21 1.78 1.78 0 0 1-.889-.21c-.187-.094-.328-.157-.617-.11-.359.063-.483 1.327-.437 2.224a.21.21 0 0 1-.093.18.212.212 0 0 1-.094.023v-.008zm3.473-2.817c.07 0 .148 0 .242.024.686.117.772 1.506.764 2.24l.086-.063.265-.773c.344-1.295.266-2.278-.226-2.84-.445-.508-1.124-.546-1.607-.484h-.055c-1.537-.258-2.739-.031-3.309.616-.499.57-.554 1.483-.171 2.716l.257.773.086.062c0-.733.078-2.123.765-2.24.405-.07.624.04.842.149.188.093.367.187.726.171.359.008.546-.078.734-.171.171-.086.343-.164.608-.164l-.007-.016z" fill="#fff"/></g><path d="M156.969 14.383s-.047 0-.078-.015a15.582 15.582 0 0 0-6.079-1.226c-1.537 0-3.059.227-4.511.664a.192.192 0 0 1-.117-.367 15.936 15.936 0 0 1 4.628-.679c2.161 0 4.253.421 6.227 1.257a.196.196 0 0 1 .102.25.199.199 0 0 1-.18.116h.008zM139.932 40.4a.183.183 0 0 1-.133-.054c-3.215-3.051-4.979-7.172-4.979-11.596 0-.258 0-.515.016-.773 0-.11.101-.187.203-.18.109 0 .187.094.179.204-.015.25-.015.507-.015.749 0 4.323 1.724 8.342 4.861 11.323a.189.189 0 0 1 0 .273.195.195 0 0 1-.14.062l.008-.008zM158.521 42.74a.182.182 0 0 1-.164-.1.19.19 0 0 1 .07-.258 15.563 15.563 0 0 0 7.749-10.824c.016-.101.117-.171.227-.156.101.016.171.117.156.227-.851 4.705-3.746 8.747-7.944 11.088a.208.208 0 0 1-.094.024z" fill="#5479F7"/><path d="M232.299 70.7h-41.858a.193.193 0 0 1-.195-.195V44.449c0-.11.086-.195.195-.195.109 0 .195.086.195.195v25.868h41.663c.11 0 .195.086.195.196 0 .109-.085.195-.195.195V70.7z" fill="#000"/><path d="M195.461 51.487h-3.277v17.511h3.277v-17.51zM200.625 59.596h-3.277v9.41h3.277v-9.41zM205.785 55.928h-3.277V69h3.277V55.93zM210.949 50.207h-3.277v18.799h3.277v-18.8zM216.028 46.275h-3.114v22.731h3.114V46.275zM221.274 45.065h-3.278v23.933h3.278V45.064zM226.43 48.046h-3.278v20.952h3.278V48.046zM231.598 51.487h-3.278v17.511h3.278v-17.51zM230.093 15.895H195.82V29.52h34.273V15.895z" fill="#E2EAFF"/><path d="M203.484 24.82a.21.21 0 0 1-.132-.046.189.189 0 0 1-.008-.273l14.803-16.06s.086-.062.133-.062c.047 0 .101.015.14.054l6.337 5.876 9.801-10.636a.188.188 0 0 1 .273-.008c.078.07.086.195.008.273l-9.934 10.777s-.086.063-.133.063a.2.2 0 0 1-.14-.055l-6.337-5.876-14.67 15.919a.196.196 0 0 1-.141.062v-.007z" fill="#000"/><path d="m234.06 6.287-.351-.148.968-2.31-2.232 1.155-.172-.343 3.161-1.631-1.374 3.277z" fill="#000"/><path d="M158.786 87.416c-.086 0-.172.016-.257.032a8.72 8.72 0 0 0-1.148-2.341 2.148 2.148 0 0 0-.007-3.215 2.148 2.148 0 0 0-3.184.398 8.67 8.67 0 0 0-2.474-.843v-.258a2.153 2.153 0 0 0-2.279-2.005 2.153 2.153 0 0 0-2.005 2.278c0 .086.016.172.031.258a8.704 8.704 0 0 0-2.341 1.147 2.148 2.148 0 0 0-3.215.008 2.147 2.147 0 0 0 .398 3.184 8.662 8.662 0 0 0-.843 2.473h-.257a2.153 2.153 0 0 0-2.006 2.28 2.153 2.153 0 0 0 2.279 2.005c.086 0 .171-.016.257-.032a8.747 8.747 0 0 0 1.147 2.341 2.148 2.148 0 0 0 .008 3.215 2.148 2.148 0 0 0 3.184-.397 8.67 8.67 0 0 0 2.474.842v.258a2.152 2.152 0 0 0 2.278 2.005 2.153 2.153 0 0 0 2.006-2.278c0-.086-.016-.172-.031-.258a8.704 8.704 0 0 0 2.341-1.147 2.148 2.148 0 0 0 3.215-.008 2.148 2.148 0 0 0-.398-3.184c.398-.764.687-1.6.843-2.473h.257a2.154 2.154 0 0 0 2.006-2.279 2.153 2.153 0 0 0-2.279-2.005zm-8.397 6.672a3.988 3.988 0 0 1-4.229-3.722 3.987 3.987 0 0 1 3.722-4.23 3.989 3.989 0 0 1 4.23 3.723 3.989 3.989 0 0 1-3.723 4.23z" fill="#fff"/><path d="M150.694 101.236a2.344 2.344 0 0 1-2.333-2.185v-.117a8.845 8.845 0 0 1-2.216-.757c-.024.031-.047.063-.071.086-.413.468-.983.75-1.607.788a2.321 2.321 0 0 1-1.694-.577 2.325 2.325 0 0 1-.788-1.608 2.317 2.317 0 0 1 .578-1.693c.023-.031.054-.055.078-.086a8.86 8.86 0 0 1-1.03-2.1c-.039 0-.078.009-.117.009a2.345 2.345 0 0 1-2.482-2.185 2.345 2.345 0 0 1 2.185-2.482h.117a8.86 8.86 0 0 1 .757-2.216 2.325 2.325 0 0 1-.874-1.678 2.317 2.317 0 0 1 .578-1.693 2.343 2.343 0 0 1 3.301-.21c.031.023.054.054.085.077a8.89 8.89 0 0 1 2.1-1.03c0-.039-.008-.078-.008-.117a2.344 2.344 0 0 1 2.185-2.482 2.318 2.318 0 0 1 1.693.578c.468.413.749.983.788 1.607v.117a8.849 8.849 0 0 1 2.216.757c.024-.03.047-.062.078-.085.414-.469.984-.75 1.608-.789a2.318 2.318 0 0 1 1.693.578c.469.413.75.983.789 1.607a2.317 2.317 0 0 1-.578 1.694c-.023.031-.055.054-.078.086.437.655.78 1.357 1.03 2.099.039 0 .078-.008.117-.008a2.345 2.345 0 0 1 2.482 2.185 2.345 2.345 0 0 1-2.185 2.481h-.117a8.861 8.861 0 0 1-.757 2.217c.031.023.062.046.086.078.468.413.749.983.788 1.607a2.317 2.317 0 0 1-.578 1.694c-.413.468-.983.749-1.607.788a2.332 2.332 0 0 1-1.694-.578c-.031-.023-.054-.046-.086-.078a8.868 8.868 0 0 1-2.099 1.03c0 .04.008.078.008.117a2.321 2.321 0 0 1-.577 1.694 2.327 2.327 0 0 1-1.608.788h-.148l-.008-.008zm-4.612-3.496s.063 0 .086.024a8.534 8.534 0 0 0 2.419.827.189.189 0 0 1 .156.203v.234a1.956 1.956 0 0 0 2.076 1.826 1.953 1.953 0 0 0 1.826-2.068c0-.07-.016-.148-.031-.234a.197.197 0 0 1 .132-.219 8.594 8.594 0 0 0 2.295-1.123.19.19 0 0 1 .249.03c.063.07.117.126.164.172a1.957 1.957 0 0 0 2.755-.171c.343-.39.515-.898.484-1.413a1.933 1.933 0 0 0-.656-1.342c-.054-.047-.117-.094-.187-.148a.197.197 0 0 1-.063-.25 8.454 8.454 0 0 0 .828-2.419c.015-.094.101-.156.203-.156h.234a1.955 1.955 0 0 0-.25-3.902c-.07 0-.148.016-.234.031a.198.198 0 0 1-.219-.132 8.594 8.594 0 0 0-1.123-2.294.191.191 0 0 1 .031-.25 4.15 4.15 0 0 0 .172-.164c.343-.39.515-.898.483-1.413a1.928 1.928 0 0 0-.655-1.342 1.957 1.957 0 0 0-2.755.172c-.047.055-.093.117-.148.187a.194.194 0 0 1-.25.063 8.531 8.531 0 0 0-2.419-.828.189.189 0 0 1-.156-.202v-.234a1.947 1.947 0 0 0-2.068-1.826 1.956 1.956 0 0 0-1.826 2.075c0 .07.016.148.031.234a.197.197 0 0 1-.132.219c-.82.257-1.592.64-2.295 1.124a.19.19 0 0 1-.249-.032 4 4 0 0 0-.164-.171 1.958 1.958 0 0 0-2.755.171c-.343.39-.515.898-.484 1.413.032.522.266.999.656 1.342.054.047.117.094.187.148a.197.197 0 0 1 .063.25 8.535 8.535 0 0 0-.828 2.419.189.189 0 0 1-.203.156h-.234a1.955 1.955 0 0 0-1.826 2.076c.032.523.266.999.656 1.342.39.343.889.515 1.412.484.071 0 .149-.016.234-.031a.197.197 0 0 1 .219.132c.257.82.64 1.592 1.124 2.294a.191.191 0 0 1-.032.25c-.07.063-.117.11-.171.164a1.954 1.954 0 0 0 .171 2.755c.391.343.898.523 1.413.484a1.928 1.928 0 0 0 1.342-.656c.047-.055.094-.117.148-.187a.19.19 0 0 1 .156-.086l.008-.008zm4.05-3.457a4.181 4.181 0 0 1-2.754-1.038 4.144 4.144 0 0 1-1.405-2.871 4.145 4.145 0 0 1 1.03-3.02 4.146 4.146 0 0 1 2.872-1.405c2.294-.148 4.284 1.608 4.432 3.902a4.184 4.184 0 0 1-3.902 4.432c-.093 0-.179.008-.273.008v-.008zm.008-7.967h-.242a3.741 3.741 0 0 0-2.606 1.28 3.76 3.76 0 0 0-.937 2.746 3.743 3.743 0 0 0 1.28 2.607 3.736 3.736 0 0 0 2.747.936 3.797 3.797 0 0 0 3.543-4.026 3.797 3.797 0 0 0-3.785-3.551v.008z" fill="#000"/><path d="M137.848 78.706c-.055.015-.101.031-.148.047a5.21 5.21 0 0 0-.96-1.28c.031-.04.062-.086.094-.133a1.315 1.315 0 0 0-.461-1.802 1.313 1.313 0 0 0-1.802.46.58.58 0 0 0-.071.14 5.367 5.367 0 0 0-1.584-.234c0-.054-.015-.101-.031-.156a1.316 1.316 0 0 0-1.6-.952 1.31 1.31 0 0 0-.905 1.748 5.194 5.194 0 0 0-1.28.96c-.039-.031-.086-.062-.132-.094a1.314 1.314 0 0 0-1.803.46 1.313 1.313 0 0 0 .601 1.874 5.37 5.37 0 0 0-.234 1.584c-.055 0-.102.015-.156.031-.703.18-1.132.89-.952 1.6a1.314 1.314 0 0 0 1.599.952c.055-.016.102-.032.149-.047.257.476.577.913.959 1.28a1.313 1.313 0 0 0 .367 1.935 1.314 1.314 0 0 0 1.873-.6 5.367 5.367 0 0 0 1.584.233c0 .055.016.102.031.156.18.703.89 1.132 1.6.952a1.31 1.31 0 0 0 .905-1.748 5.192 5.192 0 0 0 1.28-.96c.039.032.086.063.133.094a1.313 1.313 0 0 0 1.802-.46 1.313 1.313 0 0 0-.6-1.873 5.371 5.371 0 0 0 .234-1.584c.054 0 .101-.016.156-.032a1.316 1.316 0 1 0-.648-2.551zm-4.308 4.97a2.444 2.444 0 0 1-2.965-1.763 2.444 2.444 0 0 1 1.764-2.965 2.444 2.444 0 0 1 2.965 1.763 2.444 2.444 0 0 1-1.764 2.966z" fill="#5479F7"/><path d="m184.063 147.541-33.563.015.016-22.786 16.379-14.039 17.184 14.031-.016 22.779z" fill="#fff"/><path d="M150.5 147.744a.19.19 0 0 1-.133-.055.205.205 0 0 1-.055-.133l.024-22.786a.19.19 0 0 1 .07-.148l16.38-14.039a.18.18 0 0 1 .242 0l17.183 14.023c.047.039.07.094.07.148l-.023 22.787c0 .109-.086.187-.195.187H150.5v.016zm.21-22.888-.023 22.505h33.181l.023-22.513-16.988-13.867-16.193 13.875z" fill="#000"/><path d="M167.308 138.629a.213.213 0 0 1-.117-.039l-15.568-12.377c-.086-.062-.094-.187-.031-.265.062-.086.187-.094.265-.031l15.451 12.283 15.24-12.4a.181.181 0 0 1 .266.031.18.18 0 0 1-.032.265l-15.357 12.502s-.078.046-.117.046v-.015z" fill="#000"/><path d="m177.773 129.881-10.449 8.553-10.738-8.545.008-13.695 21.186-.008-.007 13.695z" fill="#fff"/><path d="M167.323 138.629a.215.215 0 0 1-.117-.039l-10.745-8.553a.192.192 0 0 1-.07-.148l.015-13.695c0-.11.086-.188.195-.188h21.187c.055 0 .101.016.133.047a.183.183 0 0 1 .054.133l-.015 13.695a.191.191 0 0 1-.071.148l-10.441 8.553s-.078.047-.125.047zm-10.55-8.834 10.55 8.397 10.254-8.397.016-13.414h-20.804l-.016 13.422v-.008z" fill="#000"/><path d="M162.474 125.659a1.85 1.85 0 1 0-1.164-3.511 1.85 1.85 0 0 0 1.164 3.511zM167.876 125.671a1.85 1.85 0 1 0-1.163-3.51 1.85 1.85 0 0 0 1.163 3.51zM173.29 125.659a1.85 1.85 0 1 0-1.168-3.51 1.85 1.85 0 0 0 1.168 3.51z" fill="#5479F7"/><path d="M122.572 82.795h-5.385a.193.193 0 0 1-.195-.195c0-.11.086-.195.195-.195h5.385c.109 0 .195.086.195.195 0 .11-.086.195-.195.195zM150.687 75.614a.193.193 0 0 1-.195-.195V60.436c0-.11.086-.195.195-.195h35.499c.109 0 .195.086.195.195 0 .11-.086.195-.195.195h-35.311v14.796c0 .109-.086.195-.196.195l.008-.008zM166.941 106.743a.193.193 0 0 1-.195-.195v-4.534c0-.109.086-.195.195-.195h20.906c.109 0 .195.086.195.195 0 .11-.086.196-.195.196h-20.719v4.346a.193.193 0 0 1-.195.195l.008-.008zM147.698 132.861h-14.757a.193.193 0 0 1-.195-.195v-41.21c0-.11.086-.196.195-.196.109 0 .195.086.195.195v41.023h14.569c.11 0 .196.086.196.195 0 .11-.086.196-.196.196l-.007-.008zM213.715 80.407a.193.193 0 0 1-.195-.195v-6.976c0-.11.085-.195.195-.195.109 0 .195.085.195.195v6.976c0 .11-.086.195-.195.195zM193.723 21.964h-19.501a.193.193 0 0 1-.195-.195c0-.11.086-.195.195-.195h19.501c.11 0 .196.086.196.195 0 .11-.086.195-.196.195zM88.32 3.618h-9.832a.193.193 0 0 1-.195-.195c0-.11.086-.195.195-.195h9.832c.11 0 .196.086.196.195 0 .11-.086.195-.196.195zM128.592 10.626c-.046 0-.101-.016-.132-.055l-6.969-6.953h-10.862a.193.193 0 0 1-.195-.195c0-.11.085-.195.195-.195h10.94c.047 0 .102.023.133.055l7.023 7.007a.189.189 0 0 1 0 .273.183.183 0 0 1-.133.055v.008z" fill="#000"/><path d="M92.642 5.7a2.232 2.232 0 1 0 0-4.464 2.232 2.232 0 0 0 0 4.464zM99.15 5.7a2.232 2.232 0 1 0 0-4.465 2.232 2.232 0 0 0 0 4.465zM105.665 5.7a2.232 2.232 0 1 0 0-4.464 2.232 2.232 0 0 0 0 4.464z" fill="#E2EAFF"/></svg>