<svg width="274" height="202" viewBox="0 0 274 202" fill="none" xmlns="http://www.w3.org/2000/svg">
<g style="mix-blend-mode:luminosity">
<mask id="mask0_387_11288" style="mask-type:luminance" maskUnits="userSpaceOnUse" x="0" y="0" width="274" height="202">
<path d="M273.62 0H0V201.609H273.62V0Z" fill="white"/>
</mask>
<g mask="url(#mask0_387_11288)">
<path d="M88.9572 131.77C89.5976 132.436 90.0194 133.254 90.4666 134.042C90.7767 134.586 91.1019 135.109 91.4729 135.612C91.6457 135.846 91.8185 136.085 91.9913 136.319C93.4245 138.22 94.7764 140.166 95.8691 142.291C96.2554 143.038 96.7433 143.729 97.1803 144.44C97.221 144.501 97.2515 144.567 97.3023 144.613C97.3531 144.659 97.4294 144.72 97.4853 144.715C97.6225 144.7 97.6327 144.573 97.6276 144.466C97.6225 144.323 97.6022 144.176 97.5869 144.034C97.2769 142.982 96.7382 142.036 96.1944 141.096C95.5032 139.902 94.7561 138.743 94.1716 137.493C94.2733 137.427 94.3749 137.366 94.4715 137.3C94.6392 137.467 94.8018 137.635 94.9695 137.803C95.0051 137.92 95.0814 137.966 95.2033 137.96C95.5693 138.499 95.9199 139.043 96.1893 139.643C96.4637 140.247 96.9618 140.7 97.3582 141.223C97.5107 141.427 97.6784 141.615 97.841 141.813C97.841 141.935 97.8766 142.031 98.0138 142.057C98.0596 142.179 98.1002 142.306 98.146 142.428L98.1256 142.484L98.1815 142.504C98.4255 142.911 98.6593 143.327 98.9185 143.729C99.2031 144.161 99.5233 144.567 100.103 144.588C100.367 144.598 100.474 144.771 100.616 144.944C101.79 146.402 102.761 148.003 103.853 149.518C106.283 152.887 108.875 156.119 111.777 159.103C113.291 160.658 114.841 162.172 116.407 163.667C117.281 164.5 118.287 165.196 119.222 165.959C119.675 166.33 120.117 166.716 120.564 167.097C120.594 167.194 120.655 167.25 120.762 167.255L120.808 167.285C121.123 167.682 121.377 168.17 121.992 168.159C122.063 168.154 122.104 168.185 122.109 168.256C122.17 168.571 122.368 168.759 122.678 168.835C122.846 168.912 123.034 168.952 123.171 169.059C124.371 170.014 125.712 170.751 126.978 171.61C127.125 171.712 127.262 171.834 127.405 171.951C127.491 172.113 127.638 172.144 127.806 172.129L127.847 172.139C127.948 172.281 128.091 172.347 128.269 172.332L128.304 172.352C128.365 172.49 128.467 172.566 128.614 172.576C128.696 172.576 128.746 172.622 128.757 172.703C128.782 173.023 129.036 172.998 129.25 173.033C129.336 173.013 129.387 173.043 129.397 173.13C129.509 173.475 129.783 173.42 130.047 173.399C130.347 173.43 130.596 173.572 130.85 173.73C131.191 173.938 131.552 174.116 131.903 174.309C132.06 174.634 132.38 174.467 132.624 174.543C132.726 174.578 132.853 174.583 132.924 174.649C133.564 175.234 134.357 175.549 135.12 175.925C135.277 176.133 135.501 176.123 135.724 176.108C136.522 176.271 137.142 176.769 137.788 177.211C138.006 177.47 138.306 177.419 138.591 177.429C139.353 177.729 140.11 178.024 140.873 178.324C141.025 178.527 141.249 178.537 141.478 178.527L141.528 178.537C141.676 178.72 141.879 178.756 142.103 178.741C142.723 178.954 143.353 179.142 143.963 179.386C144.664 179.666 145.31 180.088 146.133 179.935C146.357 179.894 146.636 180.032 146.86 180.143C147.139 180.281 147.424 180.286 147.713 180.255C147.683 180.484 147.856 180.443 147.983 180.459C148.013 180.459 148.054 180.448 148.074 180.428C148.13 180.382 148.1 180.352 147.993 180.337C147.886 180.321 147.785 180.301 147.678 180.286C146.88 179.894 146.011 179.696 145.188 179.381C144.812 179.234 144.374 179.152 144.191 178.71L144.288 178.731C144.923 178.731 145.462 179.076 146.046 179.244C147.327 179.61 148.608 180.011 149.828 180.565C149.711 180.753 149.533 180.733 149.345 180.718C149.162 180.702 148.989 180.459 148.776 180.682C149.309 181.007 149.848 181.282 150.615 181.099C150.422 180.992 150.3 180.931 149.995 180.763H150.895C151.535 180.835 152.16 180.977 152.77 181.201C152.735 181.262 152.714 181.333 152.669 181.389C152.572 181.505 152.582 181.546 152.745 181.556C153.065 181.577 153.411 181.556 153.705 181.658C154.168 181.821 154.625 181.79 155.093 181.79C155.139 181.76 155.179 181.765 155.205 181.821C155.286 181.902 155.372 181.983 155.454 182.065C155.444 182.136 155.433 182.207 155.423 182.278C155.423 182.314 155.423 182.385 155.433 182.385C156.145 182.42 156.826 182.756 157.558 182.629C157.97 182.669 158.386 182.7 158.742 182.944C158.925 183.183 159.144 183.178 159.382 183.03C159.698 182.934 160.002 182.868 160.328 183.02C160.521 183.111 160.744 183.132 160.953 183.183C161.202 183.406 161.476 183.416 161.766 183.274C161.959 183.183 162.152 183.193 162.345 183.269C162.833 183.452 163.311 183.498 163.763 183.183L163.845 183.167L163.901 183.183L163.956 183.162C164.068 183.178 164.175 183.188 164.287 183.203C164.622 183.432 164.963 183.472 165.308 183.213C165.573 183.086 165.817 183.172 166.055 183.284C166.172 183.396 166.31 183.401 166.452 183.355C166.67 183.376 166.889 183.391 167.107 183.411C167.204 183.462 167.296 183.543 167.397 183.554C168.891 183.676 170.38 183.615 171.875 183.554C171.966 183.554 172.058 183.447 172.149 183.386C172.185 183.371 172.22 183.34 172.251 183.345C172.998 183.488 173.745 183.645 174.482 183.294C174.619 183.228 174.756 183.294 174.904 183.315C175.188 183.366 175.483 183.361 175.768 183.376C176.317 183.376 176.865 183.376 177.409 183.371C177.735 183.366 178.075 183.416 178.355 183.178L178.405 183.172C178.761 183.152 179.137 183.239 179.437 182.964C180.296 182.873 181.16 182.776 182.019 182.685C182.354 182.71 182.69 182.761 182.979 182.522L183.035 182.517C183.467 182.486 183.925 182.598 184.316 182.314H184.372C184.799 182.278 185.256 182.39 185.643 182.105C185.831 182.08 186.014 182.054 186.202 182.029C186.466 182.054 186.725 182.085 186.928 181.856C187.152 181.694 187.396 181.612 187.67 181.633C187.991 181.622 188.311 181.633 188.626 181.597C189.256 181.526 189.886 181.475 190.471 181.195L190.522 181.19C190.811 181.185 191.121 181.236 191.355 180.992C191.721 180.88 192.077 180.723 192.473 180.728C192.753 180.769 192.925 180.499 193.169 180.479C193.967 180.398 194.694 180.098 195.411 179.762C195.573 179.686 195.756 179.61 195.924 179.625C196.458 179.671 196.808 179.401 197.103 179.015L197.154 179C197.372 178.99 197.591 178.985 197.723 178.771L197.789 178.741C198.668 178.502 199.583 178.36 200.386 177.887L200.427 177.877C200.661 177.892 200.884 177.867 201.037 177.658L201.077 177.643C201.255 177.663 201.403 177.618 201.515 177.47L201.565 177.455C201.789 177.455 202.002 177.424 202.15 177.226L202.19 177.211C202.363 177.226 202.511 177.175 202.612 177.028L202.668 177.013C202.892 177.013 203.105 176.982 203.258 176.784L203.298 176.774C203.471 176.784 203.619 176.743 203.71 176.586C203.852 176.444 204.005 176.327 204.223 176.347C204.442 176.347 204.655 176.322 204.803 176.128C204.803 176.128 204.849 176.113 204.849 176.118C205.016 176.128 205.159 176.093 205.255 175.94C206.607 175.33 207.959 174.726 209.311 174.116C209.672 173.953 210.027 173.77 210.383 173.597C210.663 173.526 210.729 173.323 210.698 173.064C210.8 173.043 210.902 173.023 211.003 173.003C211.095 173.054 211.176 173.12 211.273 173.145C211.4 173.181 211.552 173.216 211.542 172.993C211.618 172.855 211.735 172.764 211.882 172.723L211.959 172.733L212.009 172.672C212.009 172.596 212.045 172.561 212.121 172.561C212.208 172.566 212.253 172.525 212.258 172.439C212.543 172.271 212.812 172.078 213.112 171.946C213.814 171.626 214.49 171.28 215.079 170.782C215.242 170.645 215.44 170.548 215.633 170.441C215.826 170.34 216.014 170.228 216.223 170.167C216.528 170.075 216.207 169.791 216.416 169.648C216.619 169.511 216.777 169.323 217.016 169.211C217.137 169.156 216.949 168.846 217.163 168.713C217.376 168.576 217.569 168.403 217.788 168.271C219.048 167.524 220.258 166.716 221.376 165.761C221.788 165.41 222.276 165.146 222.728 164.841C222.911 164.82 223.145 164.917 223.226 164.642C223.744 163.885 224.492 163.423 225.3 163.047C225.442 163.001 225.528 162.93 225.442 162.772C225.549 162.711 225.655 162.645 225.757 162.584C225.854 162.625 225.91 162.594 225.925 162.488C226.763 161.868 227.373 160.988 228.252 160.404C228.649 160.14 228.761 159.606 229.294 159.265C228.751 159.326 228.517 159.616 228.237 159.86C227.256 160.729 226.27 161.588 225.269 162.432C224.995 162.665 224.664 162.833 224.359 163.021C224.395 162.925 224.431 162.833 224.461 162.742C224.639 162.554 224.786 162.33 224.995 162.188C226.22 161.364 227.139 160.201 228.252 159.255C230.326 157.492 232.201 155.525 234.036 153.517C236.45 150.875 237.152 149.914 239.459 146.494C239.865 145.889 240.409 145.376 240.75 144.72C241.039 144.064 241.07 143.358 241.146 142.662C241.146 142.601 241.172 142.555 241.233 142.529C241.349 142.499 241.4 142.413 241.41 142.296C241.954 141.208 242.666 140.232 243.347 139.231L243.387 139.165C243.83 138.337 244.287 137.513 244.714 136.67C244.841 136.415 244.887 136.121 244.958 135.841C245.029 135.562 245.06 135.267 245.283 135.048L245.344 135.033L245.359 134.972C245.441 134.86 245.522 134.748 245.603 134.642C245.802 134.576 245.949 134.464 245.918 134.22C246.04 133.783 245.974 133.27 246.462 132.98C246.564 132.919 246.625 132.726 246.63 132.589C246.691 131.277 247.372 130.19 247.89 129.046C247.997 129.021 248.012 128.944 247.992 128.853C248.038 128.701 248.089 128.548 248.134 128.396C248.226 128.37 248.241 128.304 248.226 128.223C248.251 128.131 248.277 128.04 248.302 127.953C248.414 127.903 248.439 127.811 248.414 127.699C248.754 126.602 249.095 125.504 249.435 124.406C249.578 124.35 249.557 124.223 249.557 124.106C249.532 123.323 249.832 122.607 250.066 121.885C250.167 121.57 250.269 121.265 250.243 120.925C250.213 120.482 250.294 120.05 250.381 119.618C250.533 118.871 250.675 118.119 250.823 117.367V117.347C250.975 116.178 251.133 115.004 251.285 113.835C251.575 113.682 251.58 113.662 251.423 113.24C251.367 112.991 251.402 112.752 251.504 112.524V112.519C251.539 112.264 251.529 112 251.621 111.766C251.733 111.472 251.727 111.202 251.636 110.918C251.6 110.816 251.539 110.709 251.539 110.608C251.545 110.287 251.875 110.033 251.748 109.678C251.651 109.403 251.504 109.144 251.555 108.839C251.57 108.732 251.55 108.615 251.585 108.514C251.621 108.412 251.738 108.321 251.834 108.402C252.388 108.834 252.104 108.173 252.256 108.087C252.358 108.265 252.459 108.443 252.597 108.676V107.884C252.708 107.528 252.617 107.136 252.815 106.796V106.776C252.815 106.394 252.983 105.988 252.5 105.718C252.312 105.617 252.378 105.317 252.373 105.098C252.342 104.26 252.322 103.416 252.266 102.578C252.241 102.191 252.317 101.77 251.961 101.454C251.844 101.353 251.895 101.19 251.951 101.048C252.231 100.306 252.175 99.5435 252.099 98.771C252.012 97.8968 251.951 97.0176 251.921 96.1434C251.91 95.7877 251.733 95.3303 252.297 95.1524C252.439 95.1066 252.378 94.8881 252.383 94.7509C252.398 94.3494 252.383 93.9428 252.536 93.5616L252.576 93.5464L252.546 93.5159C252.51 92.6468 252.47 91.7778 252.434 90.9087V90.9341C252.505 90.2073 252.556 89.4755 252.652 88.7538C252.683 88.5149 252.891 88.2964 252.902 88.0575C252.942 87.3765 253.14 87.8796 253.288 87.9915C253.384 88.0626 253.481 88.088 253.593 88.0372C253.715 87.9813 253.71 87.8644 253.71 87.7577C253.679 86.8733 253.501 86.0144 253.278 85.1606L253.293 85.1759C253.151 84.998 253.176 84.7896 253.176 84.5863C253.176 84.2763 253.166 83.9714 253.161 83.6664C253.257 83.4428 253.181 83.3208 252.932 83.3056C252.759 82.7211 252.342 82.2332 252.261 81.603C252.185 80.983 252.098 80.368 251.966 79.7582C251.875 79.3312 251.672 78.9297 251.57 78.5079C251.443 77.9743 251.387 77.4203 251.265 76.8867C251.097 76.1802 251.031 75.4331 250.523 74.8436C250.421 74.7267 250.553 74.4827 250.279 74.3354C250.335 75.8753 250.757 77.3441 250.691 78.9196C250.243 78.64 250.101 78.269 250.04 77.8726C249.883 76.8968 249.689 75.921 249.598 74.9402C249.466 73.5476 249.273 72.1703 248.846 70.8387C248.744 70.5135 248.81 70.2949 248.932 70.0154C249.166 69.4716 249.644 69.1565 250.04 68.7652H250.096L250.132 68.7194C250.594 69.2937 251.275 69.5275 251.941 69.9595C252.139 68.6737 251.773 67.5708 251.458 66.468C251.524 66.3257 251.545 66.1783 251.453 66.036C251.458 65.6599 251.341 65.3194 251.199 64.9738C250.614 63.505 249.969 62.0616 249.141 60.7199C248.373 59.4748 247.494 58.2957 246.645 57.1013C246.437 56.8066 246.147 56.5626 245.913 56.2831C245.847 56.2069 245.832 56.0798 245.812 55.9731C245.71 55.4343 245.608 54.8956 245.517 54.3874C245.212 54.7177 245.115 54.7432 244.902 54.4484C244.394 53.7369 243.723 53.1321 243.433 52.2732C243.332 51.9682 243.118 51.8361 242.788 51.7802C242.402 51.7192 241.97 51.6531 241.807 51.1856L241.817 51.2008C241.746 51.1195 241.675 51.0331 241.604 50.9518L241.619 50.9772C241.405 50.8095 241.187 50.6468 240.973 50.4791C240.948 50.3978 240.917 50.3216 240.892 50.2403C240.648 49.8947 240.206 49.6812 240.257 49.1425C240.272 49.0002 240.094 48.8223 239.972 48.6952C239.647 48.3496 239.301 48.0193 238.971 47.6788C238.747 47.4501 238.427 47.3027 238.32 46.9622L238.387 46.9774L238.442 46.9418C239.027 47.262 239.5 47.7245 239.987 48.1718C240.577 48.7054 241.258 49.1526 241.619 49.915C241.726 50.1386 241.954 50.2962 242.127 50.4893C242.28 50.657 242.452 50.7891 242.686 50.779C242.823 50.779 242.762 50.3775 242.544 50.1081C241.995 49.4169 241.436 48.741 240.877 48.06C240.577 47.6889 240.272 47.323 239.886 46.8453C240.242 46.9266 240.369 47.135 240.526 47.2773C240.714 47.4501 240.887 47.6432 241.06 47.8312C241.405 48.2023 241.705 48.5682 242.264 48.7105C242.742 48.8325 243.083 49.2797 243.393 49.7066C243.85 50.3368 244.541 50.6519 245.192 50.9213C245.42 50.7942 245.334 50.6824 245.283 50.6062C244.567 49.5389 244.226 48.2632 243.428 47.2366C243.326 47.1045 243.342 46.8859 243.306 46.7081C243.601 46.6572 243.54 46.2964 243.764 46.1846C244.185 46.0524 244.272 46.6267 244.739 46.6013C244.246 45.9152 243.784 45.2698 243.321 44.6294C243.067 44.2736 242.798 43.9281 242.554 43.5621C242.503 43.491 242.493 43.3334 242.539 43.2724C242.595 43.2013 242.767 43.1301 242.823 43.1657C243.469 43.557 244.231 43.8112 244.541 44.604C244.531 44.7158 244.561 44.8022 244.678 44.8429C244.709 44.9191 244.739 45.0004 244.765 45.0766C244.744 45.1681 244.765 45.2444 244.872 45.2749C244.988 45.6408 245.105 46.0067 245.217 46.3726C245.192 46.4844 245.222 46.5658 245.334 46.6064C245.364 46.6827 245.395 46.764 245.42 46.8402C245.405 46.9469 245.441 47.0232 245.547 47.0587C245.578 47.1248 245.608 47.196 245.634 47.262L245.664 47.3129C245.73 47.4145 245.796 47.5161 245.868 47.6127C245.949 47.8668 246.152 47.9736 246.386 48.0447C246.447 48.0447 246.472 48.0701 246.472 48.1311C246.488 48.1972 246.533 48.2429 246.599 48.2582C246.66 48.2582 246.691 48.2887 246.686 48.3496C246.757 48.5783 246.879 48.7664 247.123 48.8426C247.174 48.8528 247.199 48.8833 247.194 48.9341C247.194 49.0154 247.235 49.0612 247.316 49.0764C247.372 49.0917 247.402 49.1323 247.402 49.1933C247.402 49.2594 247.433 49.3 247.499 49.3051C248.678 50.7993 249.735 52.3799 250.559 54.0977C250.67 54.3264 250.777 54.5602 251.016 54.6974C251.184 54.4331 251.021 54.2146 250.914 53.9961C250.437 53.0457 249.979 52.0902 249.471 51.1601C248.698 49.7473 247.88 48.3598 247.087 46.9571C246.874 46.581 246.691 46.1897 246.452 45.7221C246.849 45.8695 246.96 46.1338 247.123 46.3371C248.231 47.7499 249.202 49.2543 250.223 50.7231C250.818 51.582 251.026 52.5679 251.331 53.5285C251.407 53.7674 251.509 54.0011 251.6 54.24C251.682 54.3467 251.763 54.4535 251.844 54.5551C251.946 55.0532 252.088 55.5411 252.342 55.9883C252.393 56.0798 252.444 56.1814 252.47 56.2882C252.78 57.5537 253.598 58.5396 254.258 59.6171C254.482 59.9881 254.696 60.3642 254.914 60.7352C254.914 60.9181 255.016 61.0909 255.168 61.0858C255.295 61.0808 255.29 60.8927 255.204 60.7707C255.158 60.5979 255.077 60.4302 255.072 60.2574C255.056 59.6679 254.884 59.1241 254.65 58.5904C254.416 58.0619 254.213 57.5232 254.126 56.9489C254.187 56.7811 254.258 56.6287 254.482 56.6388C254.66 56.6439 254.833 56.6236 255.011 56.6134C255.758 56.8421 256.205 57.4622 256.769 58.0416C256.769 57.7773 256.769 57.6045 256.769 57.4317C256.856 57.4317 256.947 57.4266 257.033 57.4215C257.094 57.4673 257.12 57.5282 257.115 57.5994C257.089 57.7112 257.125 57.7976 257.237 57.8383C257.262 57.9196 257.293 58.0009 257.318 58.0771C257.303 58.1737 257.328 58.2499 257.435 58.2753C257.608 58.6616 257.786 59.0529 257.958 59.4392C257.958 59.5357 257.999 59.6018 258.091 59.6374C258.345 60.0541 258.599 60.4709 258.853 60.8876C259.005 61.0757 259.188 61.0096 259.371 60.9486C259.798 61.9549 260.505 62.8138 260.871 63.8506C260.947 64.1606 261.196 64.0285 261.389 64.059C262.039 65.4312 262.69 66.8034 263.417 68.3433C263.402 67.5658 263.091 67.0524 262.969 66.4934C262.898 66.1732 262.787 65.8683 262.71 65.5481C262.675 65.4007 262.72 65.233 262.893 65.2482C262.954 65.2482 263 65.4769 263.051 65.5989C263.086 65.6701 263.122 65.7412 263.158 65.8124C263.396 66.3155 263.615 66.8187 263.712 67.3675C263.701 67.5098 263.701 67.6572 263.864 67.7335C263.889 67.825 263.92 67.9164 263.945 68.0079C263.925 68.0943 263.94 68.1655 264.042 68.1909C264.093 68.323 264.138 68.4552 264.184 68.5822V68.6483L264.245 68.6686C264.489 68.9329 264.525 69.2582 264.54 69.5936L264.484 69.6546L264.55 69.6902C264.662 70.2085 264.769 70.7219 264.88 71.2352C264.865 71.5045 264.957 71.7332 265.145 71.9213C265.424 72.7294 265.628 73.5527 265.714 74.4065C265.673 74.4827 265.694 74.5336 265.77 74.5641C266.049 75.8905 266.324 77.2119 266.598 78.5384V78.5537C266.827 79.0314 266.827 79.5599 266.842 80.0631C266.878 81.2422 267.106 82.3908 267.295 83.5394C267.488 84.7235 267.376 85.862 267.173 87.0106C267.122 87.3155 267.122 87.5645 267.198 87.8593C267.34 88.4234 267.437 89.0028 267.544 89.5771C267.584 89.7906 267.645 90.0193 267.62 90.2277C267.508 91.0764 267.635 91.9048 267.777 92.7383C267.818 92.9873 267.818 93.2465 267.823 93.5057C267.828 93.7039 267.788 93.8615 267.523 93.7649C267.508 93.7649 267.432 93.8615 267.427 93.9174C267.371 95.2744 267.396 96.6212 267.66 97.9578C267.701 98.1611 267.92 98.1967 268.133 98.0595C268.164 98.0391 268.179 97.9985 268.209 97.9832C268.321 97.9121 268.443 97.9324 268.453 98.0595C268.499 98.5677 268.524 99.081 268.555 99.5943C268.55 99.884 268.54 100.174 268.535 100.463C268.535 100.789 268.519 101.119 268.54 101.444C268.555 101.683 268.463 101.942 268.707 102.252C268.646 101.571 268.829 101.017 268.926 100.453C268.982 100.423 269.033 100.387 269.089 100.357C269.124 100.418 269.185 100.479 269.19 100.545C269.388 102.334 269.383 104.128 269.297 105.922C269.282 106.222 269.282 106.501 268.895 106.603C268.667 106.664 268.58 106.898 268.555 107.121C268.408 108.321 268.326 109.53 268.108 110.719C267.93 111.695 267.894 112.681 267.762 113.662C267.666 114.389 267.559 115.116 267.483 115.847C267.447 116.198 267.477 116.549 267.477 117.052C267.848 116.645 268.037 116.31 268.092 115.903C268.118 115.715 268.189 115.553 268.336 115.426C268.448 115.324 268.575 115.217 268.718 115.293C268.834 115.354 268.926 115.482 269.012 115.598C269.048 115.649 269.043 115.741 269.038 115.812C268.936 117.235 268.967 118.663 268.687 120.076C268.077 123.135 267.289 126.149 266.461 129.158C266.364 129.509 266.222 129.849 266.08 130.19C265.485 131.603 265.109 133.097 264.601 134.54C264.596 134.56 264.626 134.591 264.667 134.662C264.784 134.367 264.886 134.098 264.997 133.834C265.084 133.635 265.145 133.376 265.302 133.264C265.856 132.863 265.999 132.248 266.202 131.664C266.675 130.312 267.142 128.965 267.574 127.598C267.818 126.83 267.981 126.037 268.179 125.26C268.27 125.229 268.27 125.168 268.235 125.092C268.275 124.701 268.27 124.304 268.438 123.944C268.494 123.918 268.509 123.872 268.479 123.806C268.865 122.551 269.195 121.28 269.333 119.969C269.348 119.827 269.419 119.69 269.46 119.552H269.51L269.46 119.537C269.47 119.319 269.434 119.09 269.576 118.897V118.887C269.775 117.83 269.8 116.737 270.227 115.731C270.222 115.532 270.212 115.329 270.207 115.126C270.4 114.125 270.501 113.113 270.522 112.092C270.537 111.446 270.649 110.801 270.72 110.155L270.71 110.191C270.766 109.947 270.842 109.703 270.883 109.454C271.02 108.585 271.142 107.721 271.274 106.852C271.33 106.669 271.406 106.491 271.269 106.308C271.157 105.937 271.259 105.581 271.36 105.225V105.241C271.416 103.482 271.452 101.724 271.533 99.9653C271.564 99.3504 271.584 98.7202 271.879 98.1509C271.899 98.1001 271.919 98.0391 271.94 97.9781C272.123 98.3898 272.123 98.8218 272.092 99.264C271.991 100.794 272.006 102.318 272.128 103.843L272.153 103.884C272.255 104.24 272.26 104.59 272.102 104.931C272.041 105.713 272.118 106.506 271.935 107.284C271.95 107.756 272.006 108.234 271.965 108.707C271.782 111.004 271.594 113.301 271.238 115.583C271.167 116.056 271.101 116.528 271.086 117.001C271.045 118.063 270.918 119.1 270.517 120.101C270.369 120.472 270.324 120.879 270.232 121.27C270.151 121.621 270.171 122.007 269.907 122.302C269.612 122.587 269.612 122.683 269.907 122.968C269.937 123.237 269.759 123.456 269.709 123.7C269.541 124.492 269.292 125.234 268.86 125.936C268.601 126.363 268.499 126.881 268.326 127.364C268.316 127.389 268.326 127.435 268.347 127.46C268.408 127.542 268.458 127.537 268.514 127.481C268.616 127.374 268.753 127.176 268.824 127.196C269.404 127.364 269.363 126.871 269.515 126.586C269.587 126.561 269.612 126.51 269.582 126.434C269.856 125.158 270.13 123.877 270.405 122.602C270.471 122.576 270.491 122.531 270.461 122.46C270.501 122.205 270.537 121.956 270.583 121.702C270.908 119.949 271.238 118.195 271.569 116.442V116.452C271.686 115.324 271.808 114.191 271.919 113.062C272.031 111.97 272.092 110.872 272.402 109.805C272.545 109.307 272.539 108.788 272.489 108.275C272.468 108.051 272.448 107.838 272.524 107.624C272.545 107.436 272.57 107.248 272.59 107.06C272.611 106.959 272.636 106.852 272.656 106.75C272.758 106.023 272.722 105.292 272.722 104.555C272.722 103.126 272.758 101.698 272.778 100.27C272.778 100.138 272.865 100.072 272.966 100.062C273.007 100.062 273.093 100.153 273.098 100.214C273.139 100.489 273.358 100.728 273.21 101.043C273.16 101.155 273.175 101.353 273.246 101.465C273.769 102.313 273.612 103.213 273.49 104.112V104.107C273.591 105.353 273.541 106.593 273.403 107.833L273.419 107.823C273.337 108.905 273.149 109.977 273.083 111.055C273.017 112.168 272.865 113.276 272.794 114.384C272.738 115.227 272.57 116.046 272.494 116.879C272.463 117.215 272.407 117.53 272.168 117.784V117.774C272.285 118.744 271.909 119.644 271.726 120.564C271.36 122.424 270.933 124.269 270.466 126.104C270.105 127.511 269.643 128.894 269.226 130.281C269.2 130.632 268.911 130.942 269.058 131.323C268.936 132.055 268.565 132.69 268.291 133.366C268.138 133.737 267.95 134.098 267.854 134.484C267.442 136.126 266.781 137.676 266.105 139.221C265.943 139.592 265.765 139.953 265.612 140.324C264.459 143.104 263.173 145.818 261.607 148.394C261.094 149.243 260.82 150.209 260.261 151.032C260.037 151.362 259.895 151.749 259.569 152.013C259.458 152.104 259.376 152.232 259.3 152.359C258.766 153.228 258.233 154.097 257.699 154.971C257.455 155.377 257.267 155.815 256.891 156.14C256.728 156.277 256.581 156.475 256.52 156.679C256.271 157.471 255.707 158.061 255.224 158.696C254.492 159.662 253.75 160.617 253.008 161.578C252.627 162.071 252.271 162.584 251.788 162.991C251.621 163.133 251.473 163.306 251.362 163.489C250.869 164.317 250.203 165.003 249.552 165.7C248.947 166.34 248.404 167.031 247.89 167.748C247.489 168.307 246.965 168.779 246.503 169.298C246.147 169.699 245.639 169.994 245.614 170.629C245.614 170.741 245.441 170.858 245.339 170.96C244.658 171.631 243.997 172.322 243.286 172.957C242.468 173.689 241.588 174.35 240.755 175.066C240.206 175.539 239.652 175.991 239.022 176.362C238.717 176.54 238.254 176.677 238.346 177.216C238.356 177.267 238.285 177.348 238.234 177.389C237.39 178.085 236.537 178.771 235.698 179.483C235.322 179.803 234.687 179.783 234.524 180.377C234.061 180.545 233.777 180.951 233.375 181.206C232.943 181.48 232.491 181.729 232.181 182.156C231.16 182.654 230.362 183.513 229.315 183.975C229.213 184.021 229.096 184.047 229.02 184.118C227.897 185.119 226.484 185.541 225.122 186.074C224.776 186.212 224.471 186.369 224.248 186.694C224.085 186.928 223.846 187.126 223.612 187.289C223.49 187.376 223.333 187.528 223.124 187.365C222.957 187.238 222.769 187.315 222.621 187.431C221.869 188.021 220.964 188.331 220.121 188.738C217.981 189.774 215.816 190.75 213.641 191.711C212.777 192.092 211.862 192.376 210.973 192.702C210.927 192.697 210.886 192.712 210.851 192.753C210.632 192.814 210.409 192.875 210.19 192.936L210.18 192.925C210.114 192.976 210.048 193.032 209.982 193.083C209.606 193.225 209.224 193.352 208.858 193.515C208.731 193.571 208.498 193.596 208.564 193.855C208.95 193.83 209.265 193.586 209.646 193.632C209.646 193.698 209.656 193.82 209.631 193.83C208.452 194.313 207.298 194.872 206.017 195.065C205.911 195.08 205.809 195.121 205.707 195.167C204.147 195.822 202.511 196.214 200.874 196.62C200.203 196.788 199.568 197.047 198.851 197.042C198.455 197.042 198.094 197.383 197.657 197.494C196.813 197.713 195.949 197.86 195.136 198.206C194.572 198.445 193.957 198.587 193.317 198.582C192.992 198.582 192.666 198.689 192.341 198.734C191.838 198.806 191.34 198.953 190.816 198.836C190.288 198.719 189.785 198.943 189.322 199.095C188.758 199.278 188.194 199.395 187.62 199.507C186.471 199.731 185.333 199.995 184.179 200.178C183.132 200.346 182.065 200.371 181.023 200.559C179.651 200.808 178.238 200.635 176.881 200.966C176.672 200.966 176.459 200.966 176.245 200.966C175.051 200.966 173.852 200.966 172.657 200.96C172.078 200.955 171.478 200.813 170.924 200.92C170.355 201.032 169.847 200.971 169.313 200.818C168.5 200.579 167.661 200.549 166.823 200.579C166.64 200.584 166.823 200.661 166.838 200.711C166.874 200.849 166.838 200.666 166.95 200.757C166.843 200.889 166.67 201.088 166.96 201.128C167.367 201.189 167.794 201.143 168.21 201.143C170.884 201.154 173.557 201.164 176.225 201.174C176.576 201.174 176.932 201.174 177.282 201.174C177.308 201.215 177.338 201.255 177.364 201.296C177.221 201.326 177.084 201.372 176.942 201.377C173.709 201.509 170.487 201.641 167.25 201.489C164.754 201.367 162.259 201.23 159.779 200.96C157.263 200.686 154.752 200.351 152.303 199.654C151.566 199.446 150.798 199.314 150.036 199.217C148.43 199.014 146.89 198.526 145.33 198.145C145.015 198.069 144.71 197.921 144.405 197.804C144.496 197.693 144.583 197.586 144.669 197.474C144.852 197.428 145.015 197.464 145.147 197.596C145.218 197.621 145.289 197.642 145.36 197.667C145.487 197.728 145.609 197.794 145.736 197.855C145.782 198.048 145.925 198.043 146.052 197.977C146.28 197.86 146.524 197.901 146.758 197.881L146.799 197.891C147.383 198.257 148.054 198.414 148.684 198.668C149.081 198.826 149.462 198.775 149.828 198.557L149.879 198.567C150.493 198.882 151.175 198.897 151.835 198.968L151.876 198.983C151.978 199.161 152.11 199.222 152.288 199.075C152.531 198.983 152.775 198.978 153.014 199.105C153.03 199.273 153.141 199.365 153.294 199.375C153.619 199.395 153.944 199.4 154.275 199.41C154.351 199.426 154.432 199.441 154.508 199.456C154.778 199.7 155.108 199.624 155.423 199.619C156.145 199.502 156.867 199.695 157.609 199.639C157.583 199.41 157.421 199.446 157.334 199.451C156.287 199.517 155.317 199.187 154.336 198.912C154.417 198.836 154.493 198.755 154.575 198.678C155.149 198.699 155.718 198.719 156.292 198.739C156.44 198.76 156.587 198.775 156.735 198.795C157.065 199.07 157.451 198.973 157.822 198.968C157.975 198.978 158.127 198.994 158.28 199.004C158.661 199.273 159.093 199.187 159.515 199.171C159.642 199.187 159.764 199.202 159.886 199.217C159.972 199.349 160.109 199.39 160.251 199.395C160.643 199.4 161.039 199.4 161.431 199.4C161.603 199.415 161.776 199.431 161.949 199.446C162.005 199.624 162.162 199.614 162.3 199.619C162.772 199.634 163.245 199.644 163.718 199.659H163.773C164.388 199.969 165.039 199.837 165.679 199.817C166.523 199.705 167.367 199.812 168.205 199.873C168.337 199.919 168.475 200.01 168.607 200.01C170.899 200.025 173.191 200.03 175.483 200.025C175.61 200.025 175.742 199.913 175.869 199.858L175.935 199.812L176.012 199.832C176.342 199.853 176.683 199.924 176.967 199.67C177.328 199.639 177.689 199.609 178.05 199.583C178.878 199.522 179.706 199.482 180.535 199.4C181.074 199.349 181.587 199.131 182.141 199.156C182.629 199.141 183.137 199.319 183.594 199.014C184.23 198.933 184.875 198.902 185.495 198.699C185.724 198.623 185.988 198.668 186.242 198.653C186.522 198.729 186.812 198.867 187.05 198.557C187.35 198.44 187.645 198.328 188.087 198.155C187.803 198.14 187.65 198.089 187.543 198.14C186.761 198.506 185.871 198.267 185.084 198.572C183.904 198.496 182.756 198.8 181.587 198.816C181.221 198.816 180.865 198.816 180.499 198.867C180.011 198.938 179.493 199.156 179.036 198.724C178.98 198.668 178.827 198.699 178.726 198.714C178.405 198.755 178.085 198.8 177.714 198.851C178.039 199.07 178.431 198.75 178.67 199.121C176.103 199.36 173.552 199.426 170.995 199.441C170.264 199.441 169.527 199.466 168.795 199.446C166.34 199.38 163.89 199.293 161.436 199.217C161.293 199.166 161.161 199.049 160.988 199.121C160.785 199.044 160.582 198.928 160.368 198.897C159.504 198.765 158.635 198.628 157.766 198.551C156.425 198.44 155.103 198.226 153.812 197.835C152.979 197.581 152.125 197.398 151.286 197.164C151.063 197.098 151.546 196.915 151.256 196.788C150.859 196.61 150.483 196.427 150.016 196.554C149.594 196.666 149.182 196.691 148.908 196.214C148.837 196.087 148.593 196.041 148.42 195.995C147.368 195.716 146.306 195.446 145.254 195.167C145.045 195.111 144.832 195.035 144.644 194.923C144.334 194.735 144.019 194.735 143.688 194.806H143.709C143.475 194.475 143.033 194.516 142.753 194.257C142.438 193.957 141.991 194.049 141.64 193.861C141.03 193.611 140.415 193.373 139.76 193.251C139.582 193.215 139.399 193.169 139.241 193.083C138.657 192.763 138.016 192.6 137.386 192.402C136.66 192.173 135.943 191.914 135.221 191.675C135.074 191.624 134.993 191.507 134.886 191.421C134.515 191.136 134.139 190.821 133.61 190.908C133.361 190.948 133.198 190.765 133.041 190.643C132.365 190.125 131.582 189.8 130.871 189.358C130.403 189.068 129.885 188.926 129.341 188.809C128.863 188.707 128.624 188.102 128.106 187.955C127.999 187.924 127.903 187.833 127.806 187.828C127.425 187.823 127.181 187.68 126.942 187.35C126.769 187.111 126.388 187.025 126.099 186.872C125.428 186.522 124.823 186.044 124.101 185.775C123.903 185.698 123.73 185.546 123.547 185.429C123.024 185.088 122.51 184.738 121.982 184.407C121.174 183.909 120.34 183.447 119.7 182.71C119.512 182.491 119.232 182.359 118.999 182.181C114.684 178.939 110.389 175.686 106.4 172.042C105.424 171.148 104.448 170.263 103.589 169.257C103.35 168.978 103.101 168.703 102.817 168.474C102.303 168.053 101.82 167.616 101.5 167.016C101.399 166.833 101.211 166.691 101.043 166.548C100.646 166.213 100.306 165.842 100.037 165.395C99.8892 165.146 99.6605 164.947 99.4674 164.729C98.5221 163.656 97.6174 162.554 96.8703 161.329L96.977 161.344L97.0736 161.298C97.4192 161.669 97.7648 162.04 98.1104 162.411C98.2629 162.696 98.4509 162.935 98.7914 163.006C99.3962 163.474 99.8841 164.058 100.372 164.637C100.362 164.805 100.469 164.775 100.575 164.754C100.951 164.734 101.089 165.12 101.455 165.252C101.023 164.597 100.596 164.027 100.052 163.519C99.5792 163.077 99.2641 162.472 98.8677 161.949C98.4102 161.339 97.9224 160.749 97.4802 160.129C97.2058 159.748 96.972 159.337 96.8246 158.869C97.0126 158.894 97.1753 158.869 97.3226 158.757C97.1346 158.874 97.1448 159.042 97.2464 159.194C97.3379 159.331 97.4751 159.438 97.592 159.555C97.7241 159.891 97.9935 160.119 98.2222 160.383C98.3188 160.495 98.4458 160.546 98.5932 160.511C98.5831 160.643 98.5729 160.77 98.5627 160.897C98.6237 161.11 98.7813 161.247 98.9541 161.369C98.9744 161.38 99.0201 161.38 99.0303 161.364C99.0506 161.344 99.0709 161.293 99.0608 161.278C98.9591 161.136 98.8524 161.004 98.7508 160.866C98.6237 160.785 98.5678 160.668 98.5932 160.516C98.2171 160.45 98.1917 160.048 97.9579 159.845C97.841 159.743 97.8105 159.499 97.5666 159.58C97.6276 159.438 97.5818 159.326 97.4853 159.215C97.3735 159.088 97.2871 158.945 97.3023 158.762C97.0075 158.701 96.9313 158.427 96.789 158.224C93.7295 153.934 91.0613 149.401 88.571 144.766C88.3118 144.283 88.0678 143.795 87.7984 143.317C87.6511 143.053 87.5697 142.784 87.5697 142.484V142.479C87.1987 141.554 86.7413 140.664 86.2433 139.8C86.1365 139.617 85.979 139.455 86.1264 139.221L86.1111 139.231C86.228 139.211 86.3449 139.195 86.4618 139.175C86.5533 139.165 86.6448 139.15 86.7413 139.14C86.8938 139.429 86.9548 139.785 87.4224 140.054C87.2191 139.505 87.0818 139.104 86.9192 138.713C86.8379 138.509 86.7464 138.316 86.8379 138.093H86.9345C88.1339 140.446 89.3282 142.794 90.5327 145.137C91.1528 146.341 91.7931 147.53 92.591 148.638C93.0383 149.258 93.3788 149.96 93.765 150.62C94.3749 151.667 95.0458 152.664 95.8183 153.604C96.5806 154.534 97.2413 155.55 97.9376 156.531C98.0392 156.673 98.0901 156.856 98.1663 157.019C98.2832 157.288 98.4814 157.293 98.7101 157.187C98.9795 157.639 99.2387 158.046 99.7266 158.361C100.245 158.696 100.591 159.301 101.012 159.784V159.865L101.089 159.896C101.16 159.921 101.195 159.977 101.195 160.053V160.114L101.256 160.134C101.607 160.551 101.958 160.968 102.303 161.38C102.449 161.583 102.632 161.613 102.852 161.471C102.979 161.598 103.122 161.72 103.233 161.862C104.433 163.346 105.774 164.693 107.152 166.015C110.781 169.486 114.511 172.835 118.541 175.839C121.011 177.679 123.568 179.381 126.241 180.906C126.398 180.997 126.551 181.099 126.708 181.195C126.749 181.292 126.82 181.338 126.927 181.333C126.927 181.333 126.973 181.353 126.968 181.353C127.049 181.5 127.176 181.566 127.344 181.566C128.162 182.029 128.985 182.486 129.804 182.954C130.551 183.381 131.303 183.793 132.126 184.047C132.136 184.235 132.213 184.341 132.421 184.306C133.625 184.931 134.83 185.561 136.034 186.186C136.487 186.512 137.01 186.689 137.529 186.867C137.756 187.054 137.981 187.062 138.205 186.893C138.428 186.689 138.53 186.323 138.992 186.512C139.282 186.633 139.638 186.588 139.968 186.613C141.157 187.005 142.352 187.391 143.541 187.782C143.617 187.96 143.759 187.95 143.912 187.919C144.029 187.94 144.146 187.96 144.263 187.98C144.532 188.316 144.964 188.118 145.279 188.321C145.122 188.026 144.857 187.94 144.583 187.879C141.772 186.938 138.992 185.922 136.309 184.646C133.564 183.34 130.85 181.968 128.187 180.499C127.867 180.321 127.542 180.154 127.232 179.95C124.808 178.375 122.327 176.87 120.071 175.046C119.614 174.675 119.136 174.339 118.663 173.984C114.104 170.553 109.922 166.711 106.156 162.421C105.963 162.203 105.795 161.964 105.617 161.735L105.719 161.7L105.729 161.593C106.018 161.873 106.303 162.157 106.593 162.437C106.847 162.681 107.101 162.925 107.365 163.179C107.502 162.94 107.299 162.904 107.218 162.813C106.811 162.345 106.339 161.939 106.1 161.334C106.034 161.171 105.891 161.034 105.769 160.897C105.088 160.129 104.402 159.362 103.716 158.6C103.62 158.493 103.528 158.361 103.406 158.295C102.898 158.02 102.598 157.563 102.298 157.1C101.881 156.455 101.48 155.809 100.906 155.271C100.596 154.981 100.408 154.554 100.194 154.168C99.7926 153.431 99.2082 152.857 98.6034 152.165C98.644 152.404 98.6796 152.536 98.6796 152.669C98.6796 152.719 98.5932 152.765 98.5475 152.816C98.4306 152.679 98.3035 152.547 98.1917 152.399C97.0075 150.854 96.0114 149.182 94.9848 147.53C94.6748 147.032 94.3241 146.56 94.0141 146.072C93.3737 145.055 92.8655 143.958 92.2759 142.906C91.0206 140.669 90.0245 138.306 88.9216 135.994C88.4896 135.084 88.2457 134.088 87.8493 132.934C88.9115 133.773 88.8861 135.008 89.5772 135.821C89.6687 135.501 89.4654 135.247 89.379 134.977C89.2266 134.494 88.9877 134.047 89.1097 133.493C89.1554 133.275 88.9979 133.005 88.9165 132.761C88.7844 132.38 88.637 132.009 88.4947 131.633C88.5811 131.572 88.6675 131.511 88.7539 131.45C88.8098 131.47 88.8352 131.511 88.8301 131.572C88.8301 131.648 88.8657 131.699 88.947 131.714L88.9572 131.77ZM234.773 155.357C234.875 155.367 234.941 155.332 234.971 155.225C235.291 154.742 235.606 154.28 236.059 153.883C236.653 153.36 237.238 152.76 237.629 152.079C237.944 151.525 238.371 151.113 238.778 150.661C238.951 150.626 238.961 150.483 238.971 150.351C239.007 150.244 239.042 150.138 239.078 150.031C239.134 150.026 239.184 150.021 239.24 150.011C239.215 149.934 239.195 149.853 239.169 149.777C239.184 149.548 239.291 149.35 239.439 149.202C240.038 148.613 240.409 147.871 240.821 147.159C241.039 146.788 241.263 146.417 241.482 146.051C241.583 145.889 241.705 145.731 241.771 145.553C241.812 145.437 241.726 145.391 241.619 145.482C241.349 145.67 241.05 145.808 240.856 146.097C240.78 146.214 240.653 146.356 240.536 146.372C240.013 146.438 239.769 146.758 239.708 147.236C239.682 147.444 239.566 147.566 239.444 147.693C238.468 148.735 237.629 149.878 236.786 151.027C236.247 151.764 235.688 152.501 235.037 153.141C234.544 153.634 234.087 154.148 233.64 154.676C233.426 154.925 233.218 155.179 232.989 155.413C232.227 156.196 231.505 157.019 230.667 157.72C230.56 157.807 230.397 157.903 230.438 158.122C230.717 157.954 230.977 157.883 231.266 158.061C231.398 158.142 231.388 158.264 231.337 158.325C231.144 158.544 230.926 158.737 230.717 158.94C230.529 159.123 230.367 159.316 230.433 159.606C230.235 159.692 230.006 159.743 229.843 159.875C229.066 160.526 228.303 161.197 227.546 161.862C227.485 161.918 227.383 162.03 227.612 162.152C227.973 161.939 228.395 161.751 228.669 161.349C228.964 160.922 229.335 160.582 229.757 160.292C230.036 160.104 230.189 159.814 230.402 159.58C231.896 158.396 233.126 156.943 234.448 155.581C234.6 155.581 234.702 155.515 234.748 155.367L234.778 155.352L234.773 155.357ZM165.994 191.533C166.035 191.619 166.086 191.685 166.198 191.629C167.306 191.69 168.419 191.746 169.527 191.807C169.623 191.853 169.725 191.929 169.821 191.934C171.026 191.944 172.23 191.934 173.43 191.934C173.582 191.934 173.714 191.894 173.811 191.772C174.141 191.68 174.472 191.589 174.807 191.497C175.31 191.512 175.808 191.533 176.311 191.543C176.459 191.543 176.596 191.523 176.657 191.36C176.672 191.284 176.718 191.228 176.789 191.197C177.358 191.33 177.928 191.309 178.497 191.208C177.933 191.07 177.364 191.106 176.799 191.208C176.367 191.065 175.93 191.116 175.488 191.126C175.122 191.136 174.751 191.172 174.39 191.136C173.033 191.014 171.682 191.014 170.325 191.096C169.964 191.116 169.567 191.141 169.237 191.025C168.281 190.699 167.296 190.643 166.31 190.659C165.359 190.674 164.419 190.537 163.474 190.491C162.752 190.455 162.046 190.222 161.304 190.262C160.582 190.303 159.88 189.901 159.133 190.12C159.047 190.145 158.92 190.089 158.823 190.039C158.386 189.805 157.909 189.805 157.431 189.759C156.994 189.713 156.516 189.734 156.135 189.551C155.586 189.286 155.001 189.215 154.442 189.18C153.563 189.119 152.73 188.89 151.901 188.656C151.236 188.468 150.56 188.372 149.884 188.245C148.999 188.077 148.166 187.706 147.266 187.589C147.063 187.564 147.002 187.36 146.926 187.193V187.203C146.753 187.187 146.575 187.172 146.402 187.157C146.357 186.944 146.209 186.999 146.067 187.04C145.777 187.096 145.487 187.137 145.223 186.959C145.243 186.928 145.284 186.903 145.284 186.872C145.284 186.842 145.249 186.791 145.223 186.786C144.654 186.705 144.217 186.232 143.607 186.242C143.485 186.242 143.368 186.08 143.236 186.024C143.002 185.927 142.753 185.856 142.514 185.775C141.605 185.419 140.69 185.099 139.729 184.895C139.17 184.778 138.637 184.535 138.088 184.346C137.864 183.859 137.33 183.853 136.944 183.625L136.7 183.737C135.76 183.437 134.876 183.005 133.996 182.568C133.641 182.39 133.356 182.044 132.99 181.917C132.258 181.663 131.613 181.246 130.917 180.926C129.798 180.408 128.701 179.833 127.603 179.264C127.003 178.949 126.424 178.593 125.834 178.258C125.824 178.253 125.799 178.253 125.799 178.253C125.758 178.395 125.707 178.141 125.982 178.304C126.419 178.817 127.135 179.229 127.887 179.584C128.086 179.676 128.289 179.767 128.457 179.899C129.168 180.479 129.961 180.941 130.779 181.343C132.609 182.253 134.469 183.106 136.314 183.986C136.451 184.052 136.593 184.062 136.736 184.006L136.7 183.986C136.919 184.352 137.31 184.484 137.656 184.651C138.342 184.982 139.043 185.277 139.739 185.587C139.953 185.841 140.243 185.81 140.532 185.79C141.218 185.998 141.925 186.171 142.54 186.562C142.885 186.395 143.216 186.354 143.551 186.613C143.861 186.857 144.197 187.076 144.512 187.32C144.659 187.436 144.812 187.523 145.005 187.497L145.264 187.589C145.416 187.802 145.635 187.792 145.858 187.782C146.423 187.818 146.936 188.021 147.434 188.265C147.678 188.519 147.983 188.448 148.283 188.443C148.705 188.555 149.137 188.788 149.543 188.753C150.041 188.707 150.321 189.124 150.753 189.134C151.058 189.393 151.429 189.317 151.779 189.337C152.125 189.307 152.425 189.459 152.74 189.576C152.948 189.81 153.228 189.785 153.497 189.769C154.656 189.937 155.83 190.003 156.928 190.45C157.375 190.786 157.898 190.623 158.386 190.664C158.813 190.582 159.189 190.75 159.57 190.898C159.875 191.177 160.257 191.086 160.612 191.101H160.668C161.126 191.401 161.629 191.289 162.117 191.269C163.037 191.233 163.956 191.218 164.876 191.324C165.202 191.579 165.588 191.507 165.954 191.512L165.969 191.523L165.994 191.533ZM226.189 163.097C226.042 163.199 225.889 163.296 225.752 163.407C225.671 163.474 225.61 163.58 225.727 163.662C225.767 163.692 225.864 163.672 225.92 163.646C226.143 163.54 226.199 163.341 226.209 163.113L226.255 163.052L226.189 163.092V163.097ZM165.4 200.681C165.329 200.605 165.263 200.462 165.191 200.457C164.663 200.422 164.129 200.406 163.601 200.417C163.545 200.417 163.585 200.595 163.646 200.676C164.231 200.874 164.815 200.838 165.4 200.676V200.681ZM262.842 138.941C263.036 138.702 263.117 138.423 263.158 138.128C263.381 137.488 263.793 136.898 263.839 135.953C263.366 136.659 263.132 137.213 262.964 137.798C262.939 137.879 263.03 137.996 263.066 138.098L262.873 138.331C262.598 138.891 262.319 139.444 262.045 140.004C261.729 140.4 261.47 140.817 261.541 141.508C261.948 141 262.136 140.537 262.314 140.07C262.487 139.699 262.665 139.323 262.837 138.952L262.842 138.941ZM264.128 131.364L264.098 131.374C264.281 131.353 264.301 131.206 264.347 131.069C264.982 129.092 265.8 127.166 266.065 125.082C266.385 124.391 266.288 123.573 266.705 122.907C266.751 122.831 266.71 122.698 266.71 122.546C266.314 123.141 266.1 123.75 265.922 124.376C265.709 125.138 265.404 125.865 265.038 126.566C264.987 126.698 264.936 126.83 264.88 126.967C264.667 127.674 264.454 128.38 264.24 129.092C264.215 129.31 264.184 129.524 264.159 129.737C263.991 129.783 263.961 129.92 263.955 130.063C263.95 130.454 263.95 130.845 263.945 131.237C263.945 131.547 263.783 131.77 263.554 131.963C263.513 132.319 263.483 132.675 263.427 133.031C263.371 133.381 263.066 133.656 263.066 134.139C263.681 133.783 263.671 133.203 263.828 132.721C263.839 132.248 264.21 131.857 264.118 131.364H264.128ZM254.924 94.2427C254.884 93.9835 254.904 93.7344 255.051 93.5108C255.072 93.4397 255.077 93.3736 255.061 93.3024C254.99 93.0991 254.924 92.8908 254.838 92.6926C254.818 92.6417 254.721 92.5858 254.67 92.5909C254.563 92.6062 254.457 92.6824 254.472 92.7993C254.533 93.3024 254.609 93.8005 254.675 94.2986C254.685 94.4205 254.757 94.5019 254.873 94.4663C254.975 94.4358 255.036 94.3443 254.924 94.2427ZM194.496 197.281C194.628 197.24 194.755 197.2 194.974 197.128C193.728 196.986 192.661 197.418 191.553 197.576C191.508 197.581 191.477 197.677 191.436 197.733C191.401 197.743 191.35 197.769 191.34 197.759C191.253 197.642 191.187 197.804 191.33 197.845C191.696 197.957 192.051 197.947 192.382 197.713C192.885 197.479 193.424 197.449 193.962 197.454C194.15 197.428 194.404 197.601 194.496 197.276V197.281ZM261.465 146.793C261.541 146.921 261.577 147.22 261.78 146.921C261.978 146.631 262.106 146.3 262.268 145.985C263.01 144.288 263.732 142.58 264.494 140.893C265.561 138.53 266.537 136.136 267.305 133.656C267.427 133.264 267.635 132.873 267.599 132.421C267.366 132.482 267.498 132.792 267.223 132.812C267.183 132.614 267.142 132.411 267.096 132.182C266.73 132.731 266.669 133.356 266.507 133.951V134.133C266.507 134.133 266.441 134.103 266.441 134.098C266.461 134.042 266.492 133.981 266.517 133.925C266.664 133.956 266.817 134.006 266.786 134.189C266.751 134.403 266.685 134.611 266.614 134.815C266.121 136.222 265.536 137.6 264.906 138.952C264.738 139.312 264.56 139.678 264.438 140.054C264.108 141.086 263.483 142.001 263.224 143.068C263.168 143.307 262.99 143.52 262.848 143.729C262.558 144.146 262.258 144.552 261.958 144.964C261.77 144.786 261.643 145.116 261.47 145.02C261.297 144.552 261.541 144.171 261.735 143.78C262.253 142.733 262.776 141.691 263.295 140.644C263.366 140.502 263.498 140.344 263.295 140.192C263.234 140.242 263.158 140.273 263.127 140.334C262.4 141.767 261.684 143.2 260.962 144.639C260.932 144.705 260.906 144.776 260.896 144.847C260.86 145.076 260.987 145.071 261.155 145.035C261.257 145.015 261.363 145.03 261.47 145.025C261.557 145.254 261.44 145.447 261.348 145.645C261.191 145.97 261.023 146.295 260.886 146.631C260.855 146.702 260.916 146.824 260.962 146.905C260.972 146.926 261.094 146.89 261.16 146.87C261.262 146.844 261.363 146.819 261.47 146.793H261.465ZM258.248 147.459C257.867 148.222 257.343 148.913 257.069 149.731C257.669 149.065 258.182 148.344 258.523 147.51C259.193 146.184 259.864 144.862 260.525 143.531C260.611 143.353 260.891 143.241 260.708 142.87C260.388 143.353 260.174 143.825 259.925 144.283C259.356 145.335 258.807 146.397 258.248 147.459ZM253.166 158.955C253.821 158.579 253.954 157.822 254.477 157.37C254.69 157.187 254.828 156.902 254.955 156.638C255.224 156.079 255.595 155.596 256.007 155.139C256.174 154.951 256.357 154.762 256.49 154.544C257.079 153.583 257.653 152.618 258.228 151.652C258.502 151.19 258.685 150.666 259.158 150.336C259.351 150.199 259.387 149.97 259.427 149.751C259.544 149.167 260.139 148.831 260.2 148.211C260.22 147.983 260.566 148.008 260.698 147.835C260.738 147.779 260.749 147.698 260.759 147.627C260.759 147.596 260.738 147.561 260.723 147.525C260.647 147.586 260.515 147.642 260.51 147.708C260.464 148.217 260.083 148.511 259.803 148.872C259.59 149.152 259.285 149.375 259.295 149.797C259.295 149.955 259.153 150.127 259.046 150.265C257.994 151.647 257.232 153.217 256.185 154.6C256.119 154.686 256.053 154.783 256.027 154.89C255.849 155.626 255.397 156.15 254.818 156.618C254.462 156.907 254.126 157.273 254.091 157.792C253.694 158.091 253.308 158.396 253.166 158.935V158.955ZM252.754 77.7507C252.876 77.3644 252.652 76.9476 253.161 76.8714C253.201 76.8663 253.262 76.7545 253.252 76.6986C253.201 76.3022 253.105 75.9159 252.82 75.6161C252.744 75.5348 252.607 75.5805 252.531 75.6618C252.398 75.8041 252.393 75.9922 252.424 76.1751C252.52 76.6681 252.627 77.1611 252.754 77.7557V77.7507ZM225.894 185.277C226.123 185.404 226.225 185.185 226.377 185.119C226.443 185.088 226.514 185.078 226.585 185.058C226.524 185.043 226.453 184.997 226.408 185.017C226.235 185.088 226.016 185.094 225.899 185.277H225.894ZM112.6 168.109C112.549 168.129 112.519 168.134 112.503 168.149C112.488 168.17 112.468 168.21 112.478 168.236C112.544 168.403 112.666 168.515 112.829 168.581C112.859 168.591 112.895 168.602 112.925 168.591C113.022 168.561 113.037 168.505 112.966 168.439C112.844 168.322 112.717 168.21 112.6 168.103V168.109ZM206.15 194.303C206.322 194.369 206.434 194.303 206.541 194.201C206.627 194.125 206.831 194.252 206.861 193.977C206.597 194.099 206.378 194.196 206.15 194.303ZM168.434 192.092C168.637 192.138 168.846 192.219 169.029 192.041C168.825 191.995 168.622 191.97 168.434 192.092ZM108.021 163.662C107.955 163.575 107.904 163.479 107.828 163.413C107.807 163.392 107.711 163.458 107.655 163.484C107.716 163.575 107.767 163.667 107.838 163.748C107.848 163.763 107.945 163.697 108.026 163.662H108.021Z" fill="white"/>
<path d="M95.2732 35.3093C95.1462 35.3601 94.948 35.4923 94.8972 35.4516C94.6888 35.2839 94.4042 35.1772 94.333 34.8671C94.211 34.3437 94.0027 33.8202 94.5668 33.3933C94.6939 33.2967 94.7396 33.0934 94.8209 32.941C95.0903 33.0578 95.2326 32.9206 95.2123 32.6767C95.197 32.4836 95.3139 32.3565 95.3292 32.1888C95.5833 31.5942 96.0559 31.1825 96.5591 30.8115C96.9199 30.5421 97.2299 30.2423 97.4535 29.8611C97.6518 29.5206 98.0634 29.3681 98.1752 28.931C98.2311 28.7074 98.4751 28.5245 98.6428 28.3313C99.456 27.386 100.391 26.5729 101.321 25.7495C102.388 24.8042 103.425 23.8233 104.472 22.8577C104.686 22.6595 104.894 22.441 105.138 22.2885C105.91 21.8108 106.566 21.2009 107.196 20.5554C107.379 20.3725 107.547 20.1743 107.826 20.1743C107.893 20.1743 107.974 20.2149 108.009 20.2657C108.04 20.3064 108.03 20.4284 107.999 20.4487C107.674 20.6266 107.567 21.023 107.206 21.1856C106.952 21.3025 106.734 21.5363 106.541 21.7498C105.931 22.4359 105.184 22.9594 104.487 23.5489C104.406 23.6201 104.284 23.6658 104.233 23.7522C103.608 24.7636 102.51 25.2972 101.784 26.2069C101.631 26.4001 101.428 26.5525 101.286 26.7761C100.976 27.259 100.554 27.6452 100.101 27.9908C101.606 27.1319 103.003 26.1358 104.188 24.855C104.386 24.7839 104.538 24.6619 104.599 24.4535C105.809 23.0864 107.161 21.8667 108.508 20.6317C110.032 19.2391 111.755 18.1617 113.387 16.9368C113.966 16.4998 114.581 16.1135 115.165 15.6917C116.466 14.7413 117.869 13.9637 119.211 13.0896C120.314 12.373 121.442 11.6868 122.53 10.9448C123.592 10.2232 124.7 9.59295 125.838 9.00848C126.067 9.01357 126.301 9.0339 126.448 8.80519C126.672 8.64764 126.895 8.49517 127.119 8.33762C127.353 8.33762 127.602 8.38336 127.769 8.14958C127.907 7.9717 128.11 7.92596 128.303 7.83448C128.974 7.51938 129.624 7.16362 130.28 6.8231C130.488 6.80786 130.717 6.85868 130.859 6.64014C130.961 6.42668 131.164 6.33012 131.363 6.25389C132.399 5.85239 133.441 5.46105 134.483 5.0697C134.702 5.0697 134.91 5.03412 135.047 4.83592L135.083 4.82575C135.256 4.841 135.408 4.79526 135.515 4.64787L135.571 4.63262C135.789 4.62246 136.008 4.62246 136.16 4.42425C136.765 4.19555 137.375 3.96684 137.98 3.73306C138.203 3.73814 138.422 3.73306 138.579 3.53485C138.712 3.51452 138.844 3.49419 138.981 3.47895C139.174 3.50944 139.337 3.45353 139.459 3.29598L139.499 3.28074C139.672 3.29598 139.819 3.26041 139.926 3.11302C140.008 3.09777 140.084 3.07744 140.165 3.0622C140.399 3.07744 140.628 3.08253 140.8 2.87924C141.1 2.78775 141.4 2.70136 141.695 2.60987C141.929 2.61496 142.167 2.65562 142.33 2.42183L142.376 2.39642C142.544 2.40658 142.701 2.39642 142.808 2.23887C142.864 2.18296 142.93 2.15755 143.011 2.16772C143.321 2.16772 143.646 2.2592 143.901 1.98984L143.951 1.97459C144.617 1.9441 145.273 1.8577 145.867 1.52735L145.908 1.51718C146.365 1.51718 146.828 1.52227 147.285 1.51718C147.636 1.51718 147.997 1.58834 148.297 1.32406C148.693 1.15634 149.095 1.31389 149.491 1.31897C149.71 1.32914 149.928 1.32914 150.081 1.13093C150.609 1.03945 151.138 0.95305 151.666 0.861569C151.951 0.846322 152.256 0.917474 152.479 0.658278C152.774 0.393998 153.14 0.383833 153.506 0.378751C153.841 0.378751 154.192 0.495644 154.487 0.2212L154.543 0.205954C155.386 0.185624 156.225 0.0839787 157.069 0.195789C157.328 0.231365 157.582 0.195789 157.79 0.00266231C157.867 -0.0430783 157.933 -0.037996 157.994 0.0280737C158.146 0.216118 158.365 0.2212 158.578 0.231365C158.502 0.475315 158.309 0.561714 158.08 0.592208C156.967 0.72943 155.874 0.968297 154.782 1.22241C154.258 1.34439 153.704 1.32914 153.191 1.53751C152.459 1.83737 151.671 2 150.985 2.41167C150.797 2.39642 150.67 2.51331 150.584 2.65562C150.523 2.75726 150.574 2.84874 150.696 2.8894C150.69 3.02154 150.589 3.05712 150.487 3.08761C150.426 3.10794 150.375 3.13843 150.314 3.16384C150.365 3.19434 150.411 3.25024 150.462 3.25024C150.604 3.26041 150.746 3.24516 150.894 3.24008C151.087 3.20958 151.285 3.17401 151.478 3.14351C151.514 3.15368 151.554 3.17909 151.585 3.16893C152.291 2.99613 153.008 3.01646 153.73 3.01646C153.999 3.04695 154.263 3.05712 154.482 2.85382L154.538 2.84874C154.96 2.80808 155.412 2.95039 155.783 2.62512C156.749 2.49806 157.745 2.64545 158.695 2.35068C159.036 2.49806 159.31 2.38117 159.574 2.15247C159.651 2.0864 159.778 2.09148 159.884 2.06607C160.215 2 160.454 2.4015 160.814 2.22362C161.068 2.09656 161.348 2.06099 161.638 2.02541C162.436 1.92377 163.223 1.87294 164.026 1.97459C164.24 2 164.463 1.97459 164.677 1.96951C164.89 1.96442 165.114 2.00508 165.307 1.86786C165.907 1.81196 166.501 1.75605 167.101 1.70015C167.238 1.73572 167.381 1.7713 167.518 1.80687C167.498 1.83737 167.477 1.88819 167.452 1.88819C166.817 1.97459 166.247 2.3151 165.602 2.35068C165.414 2.36084 165.246 2.35068 165.089 2.23887C164.84 2.21854 164.585 2.18805 164.331 2.17788C164.28 2.17788 164.225 2.23379 164.174 2.26428C164.22 2.3151 164.255 2.37609 164.311 2.40658C164.372 2.44216 164.448 2.45232 164.519 2.47265C164.123 2.72168 163.737 2.88432 163.223 2.82333C162.746 2.76743 162.217 2.83858 161.856 3.27565C161.836 3.29598 161.805 3.32648 161.805 3.33664C161.831 3.38238 161.866 3.42812 161.902 3.46878C161.602 3.59076 161.297 3.71781 160.992 3.83979C161.201 4.22096 161.607 4.01767 161.892 4.15997C161.877 4.45474 161.445 4.24637 161.445 4.5259C161.445 4.91215 161.8 4.90198 162.029 5.04937C162.253 5.19677 162.41 5.1612 162.624 5.04429C162.756 4.97314 162.898 5.06462 162.979 5.20694C163.467 5.29334 164.001 5.15611 164.438 5.49155C164.341 5.53729 164.24 5.62368 164.143 5.6186C162.746 5.57794 161.419 5.86763 160.138 6.40636C160.016 6.45718 159.854 6.41652 159.712 6.41652C159.64 6.41652 159.584 6.4521 159.6 6.54358C159.61 6.59948 159.671 6.6808 159.717 6.69096C159.894 6.71638 160.149 6.79261 160.25 6.70113C160.642 6.36062 161.058 6.52325 161.475 6.54866C161.729 6.56391 161.983 6.56899 162.237 6.57915C162.614 6.56391 163.005 6.6808 163.345 6.41652C163.772 6.39111 164.199 6.3657 164.631 6.34029C165.272 6.34029 165.912 6.34029 166.552 6.34029C166.801 6.34029 167.055 6.33012 167.254 6.14208C167.254 6.14208 167.31 6.13191 167.304 6.13191C167.726 6.13191 168.148 6.15224 168.57 6.14208C168.89 6.13699 169.083 6.33012 169.281 6.53341C169.093 6.88917 168.702 6.83835 168.402 6.90442C167.991 7.00098 167.538 7.01115 167.106 6.91458C166.811 7.29067 166.374 7.23985 165.973 7.27543C165.942 7.27543 165.897 7.2246 165.876 7.23477C164.901 7.68201 163.869 7.41265 162.863 7.45839C162.664 7.46855 162.507 7.5397 162.436 7.73791C162.425 7.76841 162.436 7.80907 162.436 7.84464C162.441 7.83448 162.456 7.8294 162.456 7.81923C162.456 7.78365 162.466 7.74808 162.456 7.71758C162.405 7.56512 162.288 7.61594 162.187 7.63627C161.902 7.69217 161.607 7.71759 161.343 7.81923C160.474 8.14958 159.59 8.18007 158.665 8.114C158.039 8.06826 157.394 8.24106 156.779 8.44943C156.494 8.546 156.144 8.85093 155.9 8.26647C155.798 8.0276 154.944 8.17499 154.741 8.50534C154.467 8.95258 153.953 8.91192 153.613 9.20161C153.562 9.24227 153.404 9.20161 153.318 9.15079C153.16 9.06439 153.023 8.93225 152.866 8.84077C152.713 8.75437 152.551 8.89667 152.5 9.17112C152.459 9.38457 152.296 9.45573 152.149 9.56245V9.54212C152.017 9.5777 151.875 9.59803 151.753 9.64885C151.483 9.77083 151.382 9.59295 151.285 9.40999C151.097 9.51163 150.909 9.61328 150.716 9.71492C150.568 10.1113 150.116 10.1876 149.867 10.4722C150.04 10.6958 150.345 10.5128 150.472 10.6806C150.635 10.8991 151.077 10.5789 151.056 10.9702C151.036 11.326 151.453 11.1024 151.438 11.3667C151.056 11.5801 150.609 11.6818 150.162 11.758L150.177 11.7783C150.136 11.6818 150.076 11.5903 150.05 11.4886C149.984 11.2345 149.857 11.1583 149.588 11.2294C149.389 11.2803 149.161 11.2294 148.947 11.2193C149.034 11.1634 149.14 11.1126 149.074 10.9804C149.029 10.8838 148.957 10.8076 148.83 10.8229C148.591 10.8534 148.47 11.0363 148.337 11.204C148.307 11.2447 148.302 11.3413 148.327 11.3768C148.363 11.4226 148.444 11.448 148.51 11.448C148.708 11.4531 148.835 11.3158 148.968 11.1989C149.018 11.3413 149.044 11.4988 148.871 11.5649C148.703 11.6259 148.515 11.6259 148.342 11.6767C148.165 11.7326 148.083 11.8749 148.022 12.0629C147.86 12.5508 147.656 12.6881 147.214 12.6728C147.072 12.6728 146.909 12.6017 146.797 12.6525C146.66 12.7135 146.386 12.7084 146.457 12.9625C146.493 13.0946 146.675 13.1353 146.833 13.1251C146.97 13.2268 147.087 13.3894 147.295 13.3183C147.362 13.2573 147.423 13.1963 147.489 13.1353C147.6 13.2065 147.707 13.2014 147.814 13.1251C147.88 13.0692 147.941 13.0133 148.007 12.9574C148.053 12.9422 148.063 12.9168 148.053 12.8761C148.18 12.744 148.327 12.7135 148.51 12.749C148.673 12.7795 148.841 12.7745 149.008 12.7846C149.11 12.8863 149.232 12.9777 149.379 12.9371C149.674 12.8507 149.959 12.7389 150.248 12.6322C150.319 12.5712 150.37 12.4746 150.497 12.5051C150.853 12.5915 151.163 12.4339 151.478 12.3171C151.524 12.3272 151.56 12.3171 151.585 12.2713C151.732 12.1595 151.885 12.2002 152.037 12.2611C152.22 12.3323 152.378 12.3069 152.51 12.1544C153.196 11.9156 153.933 12.0883 154.629 11.8901C154.827 11.8342 154.939 12.0426 155.082 12.1341C155.498 12.0782 155.864 11.8292 156.306 11.8088C156.545 11.7987 156.769 11.6411 156.86 11.3717C157.597 11.5191 158.273 11.2701 158.964 11.0821C159.224 11.1532 159.483 11.2803 159.727 11.0516C159.905 10.9042 160.123 10.8889 160.337 10.8534C160.504 10.8889 160.667 10.9245 160.835 10.955C161.165 11.016 161.236 10.7974 161.272 10.5433C161.516 10.4315 161.765 10.5383 162.009 10.5433C162.502 10.5637 162.99 10.6653 163.493 10.5687C163.757 10.5179 164.062 10.5179 164.286 10.7517C164.275 10.9448 164.408 10.9957 164.56 11.0007C165.139 11.0211 165.719 11.0211 166.298 11.0516C166.461 11.0617 166.578 11.016 166.684 10.9093C166.862 10.7314 167.147 10.6856 167.269 10.4366C167.345 10.3655 167.396 10.2892 167.533 10.2892C168.001 10.2943 168.458 10.2587 168.926 10.1825C169.322 10.1164 169.769 10.2079 170.201 10.1368C171.03 10.0046 171.868 10.1266 172.697 10.1418C172.483 10.6704 172.331 10.8076 171.807 10.767C171.67 10.7568 171.543 10.4214 171.467 10.8229C171.457 10.8788 171.274 10.9398 171.177 10.9296C170.049 10.7924 168.931 11.0262 167.813 11.0566C167.64 11.2091 167.416 11.1481 167.213 11.1888C166.923 11.2447 166.862 11.5141 166.847 11.7732C166.832 11.9969 166.984 12.0731 167.182 12.0934C167.289 12.1036 167.437 12.1087 167.482 12.1747C167.792 12.5915 167.935 12.2002 168.128 12.0579C168.153 12.0883 168.174 12.1239 168.194 12.1544C168.224 12.251 168.224 12.3984 168.362 12.3831C168.575 12.3628 168.788 12.312 168.997 12.2561C169.159 12.2103 169.19 12.0629 169.18 11.9105C169.368 11.8647 169.536 11.8952 169.703 12.002C170.212 12.3221 170.217 12.3171 170.943 12.1087C170.786 11.8088 170.476 11.9969 170.262 11.9003C170.176 11.8596 170.023 11.8444 170.105 11.6868C170.156 11.5954 170.232 11.4632 170.308 11.4531C170.74 11.4022 171.172 11.3717 171.604 11.3565C171.929 11.3463 172.26 11.3667 172.59 11.3717C172.565 11.4734 172.544 11.575 172.519 11.6716C172.483 11.8037 172.549 11.8647 172.676 11.88C172 12.378 171.279 12.744 170.405 12.7186C170.156 12.7135 169.901 12.7795 169.652 12.8253C169.642 12.8253 169.652 12.9371 169.652 12.9981C169.617 13.0896 169.647 13.1505 169.734 13.1505C169.912 13.1556 170.09 13.1505 170.262 13.1505C170.262 13.2115 170.262 13.2725 170.262 13.3335C169.668 13.2674 169.17 13.6232 168.407 13.6588C168.885 13.9129 169.19 13.7858 169.485 13.7655C170.09 13.8519 170.694 13.9383 171.299 14.0247C171.589 14.0501 171.873 14.0959 172.163 14.0959C172.514 14.0959 172.87 13.8112 172.885 13.4555C172.895 13.176 172.946 12.9625 173.144 12.7897C173.398 12.5712 173.683 12.4339 174.033 12.5356C174.288 12.5356 174.562 12.5813 174.755 12.3425C174.831 12.3221 174.902 12.3069 174.979 12.2866C175.416 12.2408 175.873 12.3679 176.28 12.1138C176.407 11.8546 176.376 11.636 176.209 11.6309C175.848 11.6157 175.487 11.6106 175.126 11.6208C175.009 11.6208 174.918 11.6055 174.836 11.5293C174.887 11.4836 174.933 11.3972 174.984 11.3921C175.589 11.3717 176.229 11.4785 176.798 11.3209C177.276 11.1888 177.677 11.2853 178.003 11.4886C178.607 11.8647 179.217 11.8749 179.873 11.7682C180.051 11.7377 180.234 11.7428 180.412 11.7478C180.625 11.7529 180.712 11.9206 180.798 12.0833C180.874 12.2103 180.991 12.2764 181.138 12.2764C181.413 12.2764 181.692 12.2764 181.967 12.2764C182.007 12.378 182.063 12.4746 182.089 12.5813C182.135 12.7745 182.063 12.9066 181.926 12.8659C181.174 12.6423 180.402 12.9371 179.649 12.7338C179.334 12.6474 179.08 12.8558 178.831 12.9828C178.602 13.0997 178.587 13.2573 178.831 13.4656C179.08 13.674 179.004 13.8265 178.704 13.8824C178.541 13.9129 178.338 13.7858 178.16 14.0654C178.729 14.0654 179.253 14.0654 179.771 14.0654C179.868 14.0654 179.919 14.1009 179.914 14.1772C179.914 14.3296 179.781 14.3093 179.69 14.3398C179.659 14.35 179.624 14.3652 179.598 14.3855C179.573 14.4059 179.553 14.4364 179.497 14.5075C179.959 14.4414 180.376 14.6295 180.803 14.5533C181.199 14.4872 181.586 14.4364 181.977 14.5838C181.825 14.9344 181.408 14.5634 181.245 14.8734C181.525 15.158 181.896 14.8379 182.251 15.0971C181.697 15.1174 181.199 15.1225 180.808 15.2953C180.996 15.341 181.281 15.4122 181.57 15.4833L181.616 15.5595C181.382 15.7273 181.149 15.9102 180.833 15.8747C179.888 15.7679 178.923 16.0068 177.992 15.6968C177.926 15.6764 177.835 15.651 177.779 15.6764C177.012 16.0271 176.183 15.712 175.406 15.9051C175.101 15.9814 174.821 15.9153 174.542 15.8238C174.11 15.6764 173.703 15.6358 173.266 15.8543C173.047 15.961 172.758 15.9814 172.509 15.956C171.833 15.8848 171.162 15.7323 170.562 16.2101C170.516 16.2457 170.415 16.2355 170.349 16.2253C169.968 16.1542 169.622 16.2863 169.276 16.4032C169.048 16.4794 168.844 16.4947 168.697 16.266C168.443 15.8696 168.062 16.022 167.716 16.0474C167.66 16.0474 167.604 16.1338 167.548 16.1796C167.63 16.2304 167.706 16.2965 167.797 16.3219C167.889 16.3473 167.991 16.327 168.102 16.4286C167.914 16.4489 167.726 16.4998 167.538 16.4896C166.954 16.454 166.4 16.4642 165.826 16.698C165.449 16.8504 164.967 16.7285 164.362 16.7285C164.931 16.3676 165.322 16.0627 165.907 16.2711C166.095 16.3371 166.339 16.3168 166.547 16.2202C166.679 16.1593 166.532 16.2558 166.578 16.1186C166.593 16.083 166.501 15.961 166.486 15.9661C165.739 16.2152 164.977 16.2202 164.204 16.144C163.96 16.1186 163.706 16.2355 163.457 16.2761C161.734 16.576 160.016 16.9623 158.278 17.1351C156.911 17.2723 155.651 17.7195 154.35 18.0702C153.989 18.1668 154.451 18.3599 154.289 18.431C154.035 18.5479 153.745 18.6902 153.496 18.4412C153.374 18.3141 153.247 18.2938 153.105 18.3192C152.383 18.4514 151.681 18.6496 151 18.9291C150.812 19.0053 150.731 19.1629 150.64 19.3204C150.584 19.417 150.523 19.5644 150.416 19.5186C149.786 19.2544 149.537 20.0116 148.983 20.0269C148.47 20.0421 148.099 20.5249 147.646 20.7282C146.67 21.1653 145.817 21.8209 144.79 22.1818C143.733 22.5528 142.757 23.1677 141.735 23.6505C141.212 23.8996 140.821 24.3265 140.302 24.5958C139.921 24.7941 139.601 25.0431 139.144 25.1397C138.798 25.2108 138.493 25.5513 138.208 25.8156C137.898 26.1053 137.822 26.5983 137.385 26.7965C137.329 26.8219 137.324 26.9947 137.329 27.0963C137.344 27.264 137.263 27.3962 137.141 27.4673C135.398 28.4838 134.046 30.0034 132.359 31.091C131.891 31.3909 131.439 31.7212 131.18 32.0719C131.795 31.767 131.886 31.7466 132.745 31.7263C132.953 31.7365 133.141 31.706 133.263 31.5128C134 31.1063 134.681 30.6031 135.403 30.1864C136.623 29.4799 137.817 28.6515 139.26 28.4025C139.332 28.3923 139.403 28.3618 139.469 28.3415C139.733 28.2653 139.962 28.0162 140.262 28.1484C140.419 28.2195 140.236 28.7735 139.819 29.0428C138.981 29.5765 138.325 30.3236 137.512 30.8826C136.882 31.3197 136.252 31.767 135.662 32.2599C134.59 33.1544 133.416 33.8863 132.257 34.6537C131.439 35.1924 130.509 35.3703 129.609 35.6498C129.121 35.8023 128.613 35.8887 128.171 36.1682C127.744 36.4376 127.251 36.4172 126.783 36.3867C125.919 36.3359 125.254 36.6409 124.75 37.3321C124.69 37.4134 124.578 37.4642 124.496 37.5252C124.476 37.5404 124.446 37.5608 124.42 37.5811C124.308 37.7031 124.146 37.8606 124.273 38.008C124.385 38.13 124.461 37.8555 124.578 37.8606C124.7 37.8708 124.679 38.008 124.689 38.0995C124.761 38.4197 124.669 38.7094 124.405 38.872C123.998 39.1261 123.658 39.3751 123.5 39.8884C123.419 40.1578 123.002 40.2747 122.804 40.5542C122.382 41.159 121.843 41.6571 121.345 42.1958C121.066 42.4957 120.812 42.5211 120.481 42.4753C120.166 42.4296 120.065 42.2263 120.298 41.9569C120.522 41.6977 120.42 41.3267 120.71 41.1031C120.939 40.9252 121.117 40.6813 121.31 40.4627C121.381 40.3814 121.493 40.3001 121.508 40.2035C121.625 39.5327 122.031 39.1617 122.626 38.8618C123.007 38.6687 123.287 38.2672 123.648 37.9267C123.322 37.8708 123.17 38.0334 122.997 38.1605C122.85 38.2672 122.712 38.4654 122.56 38.4654C121.808 38.4908 121.488 39.1464 120.959 39.4971C120.817 39.5937 120.649 39.7614 120.624 39.9139C120.527 40.5034 120.151 40.7118 119.617 40.8439C119.277 40.9303 118.972 41.1641 118.657 41.3521C118.576 41.403 118.504 41.5046 118.474 41.6012C118.291 42.1094 117.961 42.4448 117.417 42.5566C117.391 42.4804 117.371 42.4042 117.346 42.3229C117.01 41.8451 117.295 41.5249 117.63 41.22C117.844 41.0218 117.879 40.8795 117.529 40.8033C117.452 40.788 117.376 40.6609 117.351 40.5695C117.285 40.3509 117.147 40.4068 117.041 40.4881C116.604 40.8083 116.268 41.2149 116.085 41.7333C116.06 41.7994 116.065 41.9061 116.019 41.9366C115.562 42.2263 115.597 42.8565 115.17 43.1614C114.942 43.4257 114.632 43.6544 114.662 44.0712C114.672 44.5286 114.342 44.8132 114.113 45.1486C113.956 45.3265 113.793 45.5044 113.636 45.6822C113.397 45.9262 113.153 46.1498 112.782 45.9211C112.639 45.8347 112.385 45.9109 112.35 45.667C112.314 45.4281 112.411 45.2452 112.629 45.1283C112.695 45.0927 112.756 45.052 112.807 45.0012C113.183 44.6607 113.305 44.3812 113.112 44.3253C112.792 44.2287 112.675 44.4879 112.507 44.676C112.279 44.9352 112.004 45.0876 111.633 44.9911C111.272 44.8945 110.993 45.0673 110.764 45.3265C110.474 45.6467 110.19 45.9719 109.915 46.3074C109.605 46.6936 109.61 46.8867 109.915 47.3746C109.971 47.4661 110.022 47.5576 110.114 47.7101C109.798 47.7507 109.529 47.7914 109.26 47.8219C108.929 47.8575 108.889 48.264 108.574 48.325C108.172 48.4063 108.096 48.7011 108.116 49.067C108.131 49.3262 108.167 49.4736 108.487 49.4228C108.66 49.3923 108.706 49.6058 108.746 49.7277C108.812 49.9412 108.629 49.8904 108.502 49.931C108.126 50.053 107.923 50.3834 107.806 50.7239C107.74 50.9221 107.654 51.1813 108.05 51.3185C108.375 51.4354 108.543 51.7759 108.421 52.1926C108.34 52.4671 108.345 52.7669 108.319 53.0566C108.299 53.2803 108.106 53.326 107.964 53.4276C107.811 53.5395 107.699 53.4683 107.583 53.3768C107.45 53.2752 107.405 53.1684 107.557 53.0414C107.832 52.8076 107.755 52.5382 107.628 52.213C107.466 52.4722 107.339 52.6856 107.196 52.8838C107.171 52.9194 107.064 52.9296 107.008 52.9143C106.891 52.8889 106.82 52.7924 106.846 52.6755C106.881 52.5382 106.962 52.4163 107.008 52.279C107.191 51.7403 107.298 51.2067 106.957 50.6578C106.342 50.9983 105.585 51.1 105.163 51.7657C105.123 51.8267 104.965 51.8166 104.864 51.842C104.752 51.8674 104.62 51.9385 104.645 52.0402C104.747 52.4722 104.406 52.8991 104.63 53.326L104.64 53.3006C104.528 53.3565 104.421 53.4124 104.31 53.4683C104.188 53.5852 104.218 53.7377 104.228 53.8749C104.259 54.1849 104.264 54.1849 104.635 53.9918C104.813 53.6919 105.041 53.4581 105.433 53.5039C105.494 53.5293 105.519 53.57 105.504 53.636C105.392 53.8647 104.991 53.946 105.143 54.317C104.777 55.0591 104.503 55.1861 103.837 54.9218C103.735 54.8812 103.634 54.8304 103.527 54.8202C103.374 54.7999 103.181 54.8456 103.227 55.0235C103.476 55.9688 102.947 56.4313 102.19 56.7667C102.089 56.8124 101.992 56.8582 101.901 56.9141C101.799 56.9802 101.763 57.0869 101.799 57.1936C101.834 57.2953 101.951 57.3817 101.951 57.4731C101.951 57.7527 102.495 57.7577 102.277 58.0779C102.139 58.2761 101.89 57.9915 101.672 58.0627C101.275 58.1999 100.925 58.0322 100.711 57.7273C100.549 57.4986 100.244 57.524 100.117 57.2851C100.112 57.2699 99.9235 57.3258 99.9235 57.3359C99.9744 57.9865 99.461 57.6307 99.2171 57.7171C98.9884 57.7933 98.7241 57.6104 98.6733 57.4376C98.5107 56.8633 98.1701 56.9293 97.7483 57.0716C97.4129 57.1885 97.1029 57.3359 96.7319 57.0564C96.5235 56.9039 96.183 57.3258 95.8933 57.0564C95.8526 57.1072 95.7866 57.153 95.7713 57.2139C95.7154 57.4731 95.7815 57.7222 95.8679 57.961C95.939 58.205 96.1982 58.1796 96.3558 58.2965C95.5528 59.6382 94.9226 61.0765 94.0281 62.3674C93.8756 62.5859 93.7841 62.8248 93.774 63.084C93.7638 63.3483 93.6622 63.4956 93.403 63.5211C93.1133 63.5465 92.9151 63.4092 92.7931 63.1501C92.6609 62.8705 92.6762 62.5758 92.7524 62.2911C92.8337 61.976 92.9608 61.6711 93.0726 61.3611L93.0828 61.3306C93.1336 61.1171 93.1844 60.9037 93.2352 60.6902C93.3369 60.6648 93.3471 60.5937 93.3318 60.5073C93.3623 60.4209 93.3877 60.3396 93.4182 60.2532C93.5351 60.2125 93.5656 60.1261 93.5504 60.0143C93.8248 59.3536 93.9773 58.6624 94.0382 57.9509C94.0942 57.3156 94.1856 56.6854 94.4347 56.0857L94.4448 56.0603C94.5821 55.6334 94.9022 55.2776 94.8057 54.749C94.7548 54.4644 94.9886 54.129 95.075 53.8139C95.1106 53.6767 95.1564 53.4429 95.0954 53.4022C94.9022 53.2701 94.7853 53.448 94.6735 53.5954C94.5617 53.7427 94.4347 53.7427 94.3686 53.5547C94.3229 53.4226 94.3076 53.2752 94.2771 53.138C94.2568 53.0465 94.206 53.0007 94.1297 53.0312C94.0637 53.0566 93.9722 53.077 93.9417 53.1278C93.7079 53.5344 93.4843 53.9511 93.2556 54.3628C93.1133 54.622 92.8846 54.5102 92.6762 54.4949C92.4424 54.4746 92.2391 54.4187 92.2594 54.1138C92.2645 54.0172 92.1171 53.8546 92.2493 53.8393C92.7931 53.7682 92.6 53.1684 92.9354 52.9397C93.2607 52.7212 93.1488 52.2486 93.4182 51.9792C93.5859 51.8115 93.403 51.7302 93.3166 51.6488C93.2149 51.5523 93.098 51.4405 92.9557 51.6031C92.7982 51.7759 92.666 51.8521 92.4018 51.7149C92.1629 51.5879 92.0562 51.7149 92.0104 52.0097C91.9443 52.4213 92.046 52.8737 91.5886 53.1735C91.4565 53.2599 91.4107 53.5801 91.426 53.7834C91.4768 54.4492 91.0397 54.8405 90.6585 55.2725C90.5772 55.364 90.4451 55.3284 90.3739 55.2522C90.2875 55.1556 90.3587 55.0591 90.4298 54.9727C90.7297 54.7135 90.4349 54.7033 90.2875 54.6321C90.1147 54.3831 90.0944 54.1138 90.2062 53.8393C90.3993 53.4734 90.1859 53.0821 90.2723 52.711C90.2621 52.6551 90.2875 52.6145 90.3434 52.5941C90.501 52.5433 90.6331 52.4671 90.6941 52.3045C90.7602 52.0961 90.8008 51.8826 90.8974 51.6895C90.999 51.4811 91.1464 51.3592 91.426 51.4913C91.6801 51.6082 91.802 51.3439 91.9647 51.2169C92.0917 50.9526 91.8173 50.8001 91.7817 50.5765C91.8478 50.3834 92.046 50.3935 92.168 50.3071C92.3509 50.175 92.4373 49.9056 92.5745 49.7023C92.8134 49.3415 93.0574 48.9857 93.3013 48.635C93.3979 48.4927 93.3877 48.386 93.2454 48.2793C93.1488 48.2081 93.1133 48.0811 93.2454 48.015C93.6418 47.8117 93.7689 47.3238 94.1958 47.1459C94.3229 47.0951 94.4652 46.9731 94.5058 46.8512C94.6684 46.348 95.0344 45.9923 95.3495 45.6009C95.38 45.5654 95.3749 45.4485 95.3495 45.423C95.2987 45.3824 95.2123 45.3824 95.1411 45.3773C94.9378 45.357 94.7904 45.423 94.7294 45.6365C94.6735 45.8347 94.5109 45.916 94.3279 45.9669C94.2619 45.7686 94.3076 45.5349 94.1348 45.3722C94.0179 45.1791 94.0078 44.8335 93.6266 45.0266C93.5605 45.0571 93.4894 45.0927 93.4233 45.0927C93.2098 45.0927 92.9557 45.1639 92.8134 44.9656C92.6355 44.7166 92.9405 44.62 93.0218 44.4472C93.3267 43.8272 93.7892 43.3241 94.1501 42.7447C94.2771 42.5414 94.1653 42.2517 93.9264 42.1196C93.8197 42.0637 93.6876 42.0637 93.6367 42.1501C93.5097 42.3686 93.3572 42.4143 93.1031 42.394C92.8642 42.3737 92.7931 42.3178 92.8083 42.0891C92.8337 41.7486 92.9913 41.469 93.1743 41.1997C93.3369 40.9608 93.5249 40.7423 93.7028 40.5136C94.0128 40.8846 94.0078 40.8744 94.2466 40.666C94.6278 40.3306 94.8108 39.8579 95.1106 39.4666C95.4511 39.1718 95.7866 38.872 96.0153 38.4806C96.1169 38.4857 96.1779 38.44 96.1881 38.3383C96.2694 38.1757 96.3304 38.008 96.493 37.8962C97.1893 37.4184 97.7178 36.7527 98.3277 36.1784C98.5716 35.9497 98.4802 35.2788 98.2006 35.1365C98.1447 35.106 98.038 35.1009 97.9974 35.1365C97.4637 35.6244 96.6455 35.6397 96.1982 36.3003C95.9644 36.6459 95.3596 36.4274 95.1004 37.0271C94.9785 36.6866 94.9378 36.5494 94.8768 36.4223C94.8006 36.2597 94.8158 36.1225 95.009 36.1225C95.38 36.1225 95.5172 35.9039 95.5985 35.599C95.7764 35.2229 96.3202 35.045 96.2135 34.3335C95.9441 34.8367 95.5426 34.9942 95.2529 35.289L95.2732 35.3093ZM160.255 14.5228C160.55 14.5024 160.865 14.5787 161.109 14.3347L161.16 14.3246C161.587 14.2788 162.034 14.3957 162.436 14.1518C162.817 14.0654 162.929 13.9739 163.274 13.486C163.345 13.3894 163.432 13.3691 163.554 13.3894C163.655 13.4097 163.762 13.3792 163.869 13.3589C163.889 13.3589 163.925 13.2878 163.915 13.2674C163.889 13.2065 163.828 13.1048 163.803 13.1099C163.32 13.242 162.812 13.054 162.349 13.1556C161.755 13.2827 161.15 13.3945 160.57 13.5673C158.858 14.0806 157.053 14.1924 155.361 14.7667C154.721 14.6397 154.162 15.0259 153.542 15.0666C153.221 15.0869 152.906 15.2089 152.591 15.2902C152.576 15.2902 152.576 15.3563 152.556 15.4528C152.81 15.5138 153.079 15.4884 153.282 15.3715C153.831 15.0615 154.426 15.092 154.99 15.1428C155.503 15.1936 156.012 15.158 156.52 15.1936C156.947 15.158 157.404 15.3308 157.78 14.9903C158.324 14.9141 158.863 14.8379 159.407 14.7616C159.691 14.7515 160.001 14.8277 160.215 14.5482L160.265 14.5228H160.255ZM96.7979 32.3057C96.6048 32.4683 96.4117 32.6259 96.2287 32.7987C96.1626 32.8596 96.1728 32.941 96.244 32.9715C96.31 33.0019 96.3812 33.0324 96.4473 33.0223C96.7268 32.9816 96.7979 32.6665 97.0317 32.5547C97.3605 32.4158 97.5603 32.0956 97.6314 31.5942C97.2655 31.767 97.047 32.0516 96.803 32.3057H96.7979ZM118.352 40.5136C118.499 40.6203 118.642 40.9659 118.83 40.6559C119.028 40.3306 119.272 40.0917 119.587 39.9189C119.79 39.8071 119.927 39.6597 120.004 39.4514C120.024 39.4005 120.014 39.304 119.978 39.2735C119.938 39.2328 119.851 39.2277 119.785 39.2227C119.592 39.2125 119.44 39.3091 119.307 39.4412C119.104 39.6445 118.921 39.8681 118.703 40.0562C118.55 40.1883 118.372 40.173 118.23 40.0104C118.321 39.9139 118.418 39.8224 118.504 39.7207C118.52 39.7055 118.504 39.6292 118.499 39.6292C118.448 39.6191 118.372 39.5988 118.342 39.6292C118.271 39.7004 118.215 39.7919 118.154 39.8783C118.083 40.0867 118.067 40.2899 118.154 40.4983C118.22 40.5085 118.286 40.5186 118.352 40.5288V40.5136ZM95.5883 43.3901C95.878 43.4054 96.1626 43.446 96.3913 43.6493C96.5438 43.7815 96.6251 43.7052 96.7064 43.5528C96.7725 43.4308 96.8538 43.2885 96.9656 43.2275C97.3671 43.014 97.2248 42.7091 97.1588 42.394C97.1029 42.145 96.9707 42.1246 96.7725 42.1653C96.0915 42.3076 95.8831 42.887 95.6188 43.4105C95.5934 43.4206 95.5629 43.4308 95.5426 43.4511C95.5324 43.4613 95.5426 43.4867 95.5375 43.5019C95.5578 43.4613 95.5731 43.4257 95.5934 43.3851L95.5883 43.3901ZM98.1803 53.3362C98.3734 53.0312 98.5564 52.7161 98.7597 52.4163C98.8918 52.2231 98.9833 52.0402 98.8613 51.8115C98.7953 51.6895 98.5564 51.7962 98.3988 52.091C98.2464 52.3807 97.9364 52.5738 97.8906 52.9194C97.8652 53.0973 97.7636 53.143 97.6162 53.1989C97.2096 53.3565 97.0622 53.7529 96.8386 54.0782C96.681 54.3018 96.7624 54.5102 96.8284 54.7795C97.2807 54.3831 97.5704 53.9765 97.6822 53.4632C97.8805 53.5395 98.0634 53.575 98.1803 53.3311V53.3362ZM161.567 5.49155C161.053 5.27301 160.728 5.35941 160.413 5.32891C160.149 5.3035 160.164 5.15611 160.225 4.95281C160.281 4.76476 160.138 4.68345 159.981 4.69361C159.335 4.72919 158.924 5.01379 158.512 5.71517C159.483 5.53729 160.418 5.39498 161.572 5.49155H161.567ZM158.461 6.57407C157.765 6.48767 157.165 6.99082 156.444 6.89934C156.759 7.26526 157.125 7.33641 157.541 7.20427C157.912 7.0823 158.278 6.95016 158.649 6.8231C158.71 6.80277 158.822 6.80786 158.832 6.77736C158.893 6.54358 158.939 6.30471 158.97 6.06584C158.97 6.04043 158.858 5.96928 158.797 5.9642C158.548 5.95403 158.299 5.95403 158.05 5.9642C157.877 5.96928 157.841 6.13699 157.755 6.24881C157.948 6.43685 158.222 6.40127 158.466 6.57407H158.461ZM175.66 14.2026C175.192 14.1975 174.76 14.1772 174.318 14.1213C174.033 14.0857 173.734 14.1365 173.444 14.1416C173.352 14.1416 173.317 14.1823 173.332 14.2788C173.352 14.4008 173.429 14.5024 173.535 14.4821C174.242 14.3296 174.953 14.2331 175.655 14.2026H175.66ZM94.3584 58.1237C94.6278 58.0729 94.7396 57.834 94.8972 57.6663C95.009 57.5443 95.1716 57.4223 95.1055 57.2089C95.0598 57.0666 94.6989 57.1784 94.5821 57.4223C94.4753 57.6307 94.2263 57.8086 94.3635 58.1237H94.3584ZM96.8996 55.9637C96.9148 55.7198 96.9301 55.5774 96.9301 55.4402C96.9301 55.3132 96.8691 55.2369 96.7268 55.2674C96.615 55.2928 96.5133 55.3538 96.5286 55.4809C96.554 55.6638 96.6709 55.8011 96.8945 55.9637H96.8996ZM175.218 13.552C175.014 13.6283 174.745 13.3183 174.389 13.5368C174.714 13.7401 175.019 13.5114 175.218 13.552ZM99.3645 56.1416C99.4255 56.0349 99.4915 55.9485 99.522 55.8519C99.5373 55.8062 99.4915 55.6943 99.4509 55.6842C99.2781 55.6384 99.1968 55.7452 99.1917 55.8976C99.1917 55.9485 99.2578 55.9993 99.3594 56.1416H99.3645ZM176.885 11.8037C176.91 11.8292 176.925 11.8698 176.956 11.88C177.159 11.9562 177.367 11.9867 177.566 11.8495C177.576 11.8393 177.576 11.7885 177.566 11.7834C177.372 11.6462 177.169 11.6513 176.961 11.7377C176.93 11.7529 176.905 11.7834 176.885 11.8037ZM95.4257 34.3894C95.4664 34.2776 95.3647 34.1455 95.319 34.1658C95.2021 34.2166 95.1004 34.3183 95.014 34.425C94.8921 34.5825 95.0801 34.5927 95.1411 34.6079C95.2987 34.6435 95.3952 34.5571 95.4257 34.3945V34.3894Z" fill="white"/>
<path d="M94.5508 90.588C94.5508 86.2172 94.5508 81.8464 94.5508 77.4808C94.5508 76.1746 94.5406 76.2051 95.8163 76.2051C98.7945 76.2102 101.768 76.2051 104.746 76.2051C105.005 76.2051 105.259 76.2102 105.518 76.2203C105.686 76.2254 105.793 76.322 105.798 76.4897C105.813 76.8201 105.818 77.1504 105.818 77.4808C105.818 85.7801 105.818 94.0795 105.818 102.374C105.818 103.624 105.92 104.864 106.204 106.089C106.382 106.841 106.642 107.563 107.013 108.249C107.897 109.89 109.239 110.953 111.043 111.42C112.644 111.837 114.245 111.796 115.825 111.319C117.457 110.826 118.656 109.809 119.413 108.279C119.891 107.319 120.186 106.297 120.318 105.235C120.435 104.29 120.496 103.339 120.496 102.379C120.486 94.1151 120.496 85.8564 120.496 77.5926C120.496 76.1187 120.384 76.2 121.843 76.2C124.745 76.2 127.647 76.2 130.549 76.2C130.843 76.2 131.138 76.2 131.428 76.2203C131.585 76.2305 131.702 76.3322 131.723 76.4948C131.748 76.7133 131.743 76.937 131.743 77.1555C131.743 85.8208 131.753 94.4861 131.738 103.151C131.738 105.215 131.468 107.258 130.854 109.235C129.115 114.815 125.385 118.403 119.825 120.111C117.848 120.716 115.815 120.995 113.747 121.036C111.124 121.087 108.537 120.883 106.016 120.121C102.139 118.947 99.0384 116.752 96.9852 113.199C95.9484 111.4 95.308 109.453 94.9574 107.415C94.6829 105.82 94.561 104.214 94.566 102.592C94.566 98.5875 94.566 94.5877 94.566 90.5829L94.5508 90.588Z" fill="white"/>
<path d="M43.8048 120.244C43.7997 119.843 43.9979 119.487 44.1351 119.116C45.8733 114.247 47.6114 109.379 49.3546 104.51C52.6225 95.3972 55.8905 86.2846 59.1584 77.167C59.2092 77.0298 59.2448 76.8875 59.2956 76.7503C59.5649 76.0489 59.5904 76.0184 60.3273 76.0184C63.9306 76.0184 67.5289 76.0184 71.1322 76.0184C71.6811 76.0184 71.7624 75.932 72.0419 76.7198C73.4802 80.7602 74.9338 84.8006 76.3771 88.841C79.8077 98.4415 83.2331 108.042 86.6586 117.647C86.6942 117.749 86.7399 117.851 86.7755 117.957C87.1465 118.979 87.1922 118.979 86.0182 119.182C84.0666 119.523 82.1049 119.818 80.1482 120.133C79.025 120.316 77.9018 120.493 76.7786 120.676C76.6719 120.692 76.5652 120.727 76.4534 120.743C75.8943 120.829 75.8384 120.804 75.6555 120.28C75.0964 118.689 74.5475 117.093 73.9935 115.498C73.5616 114.252 73.1143 113.007 72.6976 111.757C72.5858 111.427 72.413 111.269 72.0674 111.284C71.8844 111.295 71.7014 111.284 71.5185 111.284C67.2189 111.284 62.9192 111.284 58.6196 111.284C58.5078 111.284 58.4011 111.284 58.2893 111.284C57.6489 111.3 57.6388 111.295 57.4355 111.889C56.6325 114.252 55.8396 116.616 55.0417 118.979C54.9807 119.152 54.9147 119.325 54.8638 119.497C54.564 120.544 54.3963 120.356 53.6136 120.356C50.5998 120.361 47.586 120.356 44.5722 120.356C44.3283 120.356 44.064 120.427 43.8048 120.255V120.244ZM65.125 88.0177C65.0182 88.1295 64.9572 88.1702 64.9268 88.2311C64.8708 88.3277 64.8251 88.4294 64.7895 88.531C63.3106 93.1 61.8266 97.6689 60.3527 102.243C60.3425 102.273 60.3629 102.314 60.373 102.35C60.3832 102.38 60.3984 102.411 60.434 102.497H67.6763C68.0422 102.497 68.4132 102.507 68.7791 102.497C69.0891 102.487 69.4195 102.563 69.7956 102.38C68.2302 97.5724 66.6852 92.8154 65.125 88.0228V88.0177Z" fill="white"/>
<path d="M21.7678 106.11C22.6775 103.218 23.5263 100.53 24.375 97.8361C26.5197 91.0106 28.6645 84.1851 30.8041 77.3647C30.8702 77.1563 30.9464 76.9479 31.0074 76.7345C31.109 76.3634 31.3479 76.1906 31.7341 76.2059C31.9527 76.2161 32.1763 76.2059 32.3948 76.2059C35.4086 76.2059 38.4224 76.2059 41.4362 76.2059C41.7615 76.2059 42.0868 76.2059 42.4324 76.2059C42.5696 76.5667 42.4171 76.8208 42.3256 77.0851C41.0246 80.7088 39.7286 84.3376 38.4275 87.9612C34.6514 98.4561 30.8752 108.946 27.0991 119.441C27.0229 119.649 26.9466 119.853 26.8755 120.061C26.7535 120.422 26.5096 120.569 26.1233 120.564C24.9849 120.549 23.8464 120.564 22.7029 120.564C20.4616 120.564 18.2204 120.564 15.9791 120.564C15.3336 120.564 15.3184 120.559 15.11 119.969C14.185 117.418 13.2651 114.862 12.3452 112.31C8.32007 101.129 4.28982 89.9433 0.264651 78.7623C-0.177508 77.5375 -0.172426 77.5527 1.11847 77.3697C3.33435 77.0496 5.55023 76.709 7.76102 76.3736C8.92486 76.1957 10.0836 76.0077 11.2475 75.8451C12.0149 75.7383 12.0251 75.7536 12.2588 76.4803C12.9907 78.7521 13.7175 81.0239 14.4391 83.2957C16.8075 90.7412 19.1707 98.1919 21.5391 105.637C21.5696 105.739 21.6306 105.831 21.7678 106.12V106.11Z" fill="white"/>
<path d="M188.622 76.2055C193.989 76.2055 199.356 76.2055 204.722 76.2055C204.982 76.2055 205.236 76.2004 205.495 76.2055C206.018 76.2207 206.049 76.236 206.135 76.7391C206.425 78.4417 206.71 80.1392 206.994 81.8417C207.172 82.9293 207.35 84.017 207.518 85.1046C207.563 85.4197 207.426 85.5874 207.101 85.6128C206.806 85.6382 206.511 85.6331 206.222 85.6331C202.695 85.6331 199.162 85.6331 195.635 85.6331C195.305 85.6331 194.975 85.6534 194.644 85.6636C194.507 85.6636 194.436 85.7856 194.431 85.8771C194.405 86.1668 194.405 86.4615 194.405 86.7563C194.405 90.1004 194.405 93.4395 194.405 96.7836C194.405 104.168 194.405 111.553 194.405 118.932C194.405 119.263 194.416 119.593 194.39 119.923C194.37 120.167 194.207 120.315 193.953 120.33C193.806 120.34 193.658 120.34 193.511 120.34C190.279 120.34 187.041 120.34 183.809 120.34C183.661 120.34 183.509 120.345 183.372 120.315C183.275 120.294 183.174 120.223 183.174 120.091C183.168 119.761 183.158 119.43 183.158 119.1C183.158 108.412 183.158 97.7188 183.158 87.0307C183.158 86.7004 183.158 86.37 183.148 86.0397C183.148 85.7703 182.986 85.6484 182.736 85.6382C182.442 85.628 182.147 85.628 181.852 85.628C178.691 85.628 175.53 85.628 172.369 85.628C172.109 85.628 171.855 85.6331 171.596 85.628C171.037 85.6128 170.971 85.5569 170.971 84.9826C170.966 82.2991 170.971 79.6208 170.971 76.9373C170.971 76.8255 170.971 76.7137 170.986 76.607C171.027 76.358 171.184 76.2156 171.433 76.2055C171.764 76.1953 172.094 76.1953 172.425 76.1953C177.827 76.1953 183.229 76.1953 188.632 76.1953L188.622 76.2055Z" fill="white"/>
<path d="M143.725 98.3743C143.725 91.4319 143.725 84.4946 143.725 77.5522C143.725 76.1901 143.654 76.2003 145.026 76.2054C147.928 76.2155 150.83 76.2054 153.737 76.2054C153.956 76.2054 154.18 76.2003 154.398 76.2054C154.856 76.2257 154.922 76.2816 154.932 76.6984C154.942 76.9931 154.932 77.2879 154.932 77.5776C154.932 83.0512 154.932 88.5198 154.932 93.9934C154.932 99.096 154.932 104.204 154.932 109.306C154.932 109.601 154.927 109.896 154.932 110.186C154.947 110.638 154.983 110.679 155.45 110.684C156.334 110.694 157.214 110.684 158.098 110.684C161.147 110.684 164.197 110.684 167.246 110.684C167.541 110.684 167.836 110.684 168.125 110.694C168.288 110.699 168.4 110.8 168.446 110.948C168.496 111.121 168.542 111.304 168.573 111.482C168.994 114.201 169.416 116.92 169.833 119.644C169.914 120.162 169.797 120.299 169.274 120.325C169.203 120.325 169.127 120.325 169.055 120.325C168.908 120.325 168.761 120.325 168.613 120.325C160.715 120.325 152.812 120.325 144.915 120.325C143.558 120.325 143.725 120.452 143.725 119.171C143.725 112.229 143.725 105.291 143.725 98.3489V98.3743Z" fill="white"/>
</g>
</g>
</svg>
