<svg width="235" height="158" fill="none" xmlns="http://www.w3.org/2000/svg"><path d="M230.534 70.645a3.191 3.191 0 0 0-.304.147 11.239 11.239 0 0 0-2.347-2.402c.054-.098.108-.195.151-.298a2.769 2.769 0 0 0-1.453-3.627 2.76 2.76 0 0 0-3.621 1.453 2.302 2.302 0 0 0-.109.314 11.254 11.254 0 0 0-3.361-.038 2.473 2.473 0 0 0-.103-.32 2.759 2.759 0 0 0-3.589-1.534 2.77 2.77 0 0 0-1.535 3.595c.044.103.092.206.147.303a11.24 11.24 0 0 0-2.402 2.353c-.098-.054-.195-.108-.298-.152a2.762 2.762 0 0 0-3.622 1.453 2.77 2.77 0 0 0 1.453 3.627c.103.044.211.082.314.109a11.295 11.295 0 0 0-.038 3.361c-.108.027-.211.06-.319.103a2.77 2.77 0 0 0-1.535 3.595 2.759 2.759 0 0 0 3.893 1.388 11.22 11.22 0 0 0 2.348 2.402 2.834 2.834 0 0 0-.152.298 2.769 2.769 0 0 0 1.453 3.627 2.762 2.762 0 0 0 3.622-1.453c.043-.103.081-.211.108-.314 1.095.178 2.228.195 3.361.038.027.108.06.211.103.32a2.76 2.76 0 0 0 3.59 1.534 2.77 2.77 0 0 0 1.388-3.898 11.235 11.235 0 0 0 2.401-2.353c.098.054.195.108.299.151a2.761 2.761 0 1 0 1.854-5.188c.179-1.1.195-2.229.038-3.362.108-.027.211-.06.32-.103a2.77 2.77 0 0 0 1.534-3.594 2.759 2.759 0 0 0-3.589-1.535zm-7.813 10.974a4.505 4.505 0 0 1-5.855-2.5 4.503 4.503 0 0 1 2.499-5.855 4.505 4.505 0 0 1 5.855 2.5 4.504 4.504 0 0 1-2.499 5.855z" fill="#fff"/><path d="M225.267 90.911a2.95 2.95 0 0 1-1.154-.238 2.92 2.92 0 0 1-1.643-1.8c-1.03.13-2.066.12-3.091-.033a1.287 1.287 0 0 1-.07.18 2.928 2.928 0 0 1-1.61 1.577 2.907 2.907 0 0 1-2.256-.027 2.958 2.958 0 0 1-1.556-3.871c.022-.055.055-.114.082-.174a11.294 11.294 0 0 1-2.164-2.212c-.059.027-.119.054-.173.081a2.907 2.907 0 0 1-2.256-.027 2.92 2.92 0 0 1-1.577-1.615 2.957 2.957 0 0 1 1.637-3.839l.184-.065a11.38 11.38 0 0 1 .033-3.096 2.958 2.958 0 0 1-1.735-3.942 2.928 2.928 0 0 1 1.61-1.577 2.931 2.931 0 0 1 2.256.022c.054.021.114.054.173.081a11.318 11.318 0 0 1 2.212-2.163l-.081-.18a2.957 2.957 0 0 1 1.637-3.838 2.907 2.907 0 0 1 2.256.028 2.917 2.917 0 0 1 1.577 1.615c.022.06.044.12.065.184 1.031-.13 2.066-.119 3.091.033a2.926 2.926 0 0 1 1.681-1.757 2.905 2.905 0 0 1 2.255.028 2.958 2.958 0 0 1 1.556 3.87c-.022.055-.054.114-.081.174a11.317 11.317 0 0 1 2.163 2.212c.06-.027.119-.054.173-.076a2.908 2.908 0 0 1 2.256.027 2.922 2.922 0 0 1 1.578 1.616 2.958 2.958 0 0 1-1.822 3.904c.13 1.03.119 2.07-.033 3.095a2.956 2.956 0 0 1 1.735 3.941 2.925 2.925 0 0 1-1.61 1.579 2.905 2.905 0 0 1-2.429-.109 11.29 11.29 0 0 1-2.212 2.163c.033.06.054.12.081.18a2.956 2.956 0 0 1-2.738 4.055v-.006zm-2.667-2.428c.081 0 .157.054.179.14a2.546 2.546 0 0 0 1.475 1.708 2.554 2.554 0 0 0 1.968.022 2.578 2.578 0 0 0 1.29-3.633.193.193 0 0 1 .054-.244c.9-.65 1.692-1.425 2.359-2.31a.187.187 0 0 1 .244-.048c.103.06.195.103.276.141a2.554 2.554 0 0 0 1.968.022 2.533 2.533 0 0 0 1.404-1.378 2.573 2.573 0 0 0-1.648-3.48.195.195 0 0 1-.135-.212 11.11 11.11 0 0 0 .038-3.307c-.011-.092.043-.184.135-.206a2.576 2.576 0 0 0 1.724-3.448 2.544 2.544 0 0 0-1.377-1.41 2.554 2.554 0 0 0-2.25.114.187.187 0 0 1-.244-.054c-.65-.9-1.426-1.697-2.309-2.364a.187.187 0 0 1-.049-.244c.059-.103.103-.195.141-.276a2.574 2.574 0 0 0-3.324-3.4 2.536 2.536 0 0 0-1.507 1.67.195.195 0 0 1-.211.136 11.055 11.055 0 0 0-3.302-.038.18.18 0 0 1-.206-.136c-.033-.114-.06-.211-.098-.298a2.547 2.547 0 0 0-1.377-1.41 2.554 2.554 0 0 0-1.968-.021 2.577 2.577 0 0 0-1.29 3.632.194.194 0 0 1-.055.244c-.9.65-1.691 1.426-2.358 2.31a.187.187 0 0 1-.244.049 2.554 2.554 0 0 0-2.245-.163 2.523 2.523 0 0 0-1.404 1.377 2.574 2.574 0 0 0 1.648 3.48c.093.028.147.12.136.212a11.077 11.077 0 0 0-.038 3.307c.011.093-.043.185-.136.206-.113.033-.211.06-.298.098a2.577 2.577 0 0 0-1.426 3.35c.255.64.743 1.14 1.377 1.41a2.557 2.557 0 0 0 1.969.022c.086-.038.178-.081.281-.136a.193.193 0 0 1 .244.055c.651.9 1.426 1.697 2.31 2.364.076.06.098.162.049.243-.06.104-.103.196-.141.277a2.574 2.574 0 0 0 3.323 3.4 2.522 2.522 0 0 0 1.508-1.676.195.195 0 0 1 .211-.135c1.095.178 2.207.19 3.302.038h.027zm-1.556-6.35a4.63 4.63 0 0 1-1.838-.379 4.676 4.676 0 0 1-2.51-2.564 4.701 4.701 0 0 1 2.602-6.105 4.655 4.655 0 0 1 3.589.038 4.677 4.677 0 0 1 2.511 2.564 4.693 4.693 0 0 1-4.349 6.441l-.005.006zm0-9.016a4.323 4.323 0 0 0-4.001 5.926 4.267 4.267 0 0 0 2.309 2.359 4.303 4.303 0 0 0 3.302.038 4.325 4.325 0 0 0 2.397-5.612 4.269 4.269 0 0 0-2.31-2.358 4.276 4.276 0 0 0-1.692-.347l-.005-.006z" fill="#000"/><path d="M53.758 10.479h151.889a5.204 5.204 0 0 1 5.199 5.2v103.618H48.559V15.684c0-2.868 2.33-5.2 5.199-5.2v-.005z" fill="#fff"/><path d="M210.85 119.487H48.557a.191.191 0 0 1-.19-.189V15.684a5.396 5.396 0 0 1 5.39-5.39h151.888a5.396 5.396 0 0 1 5.389 5.39v103.619c0 .103-.087.19-.19.19l.006-.006zm-162.109-.379H210.66V15.684a5.021 5.021 0 0 0-5.015-5.015H53.756a5.021 5.021 0 0 0-5.015 5.015v103.429-.005z" fill="#000"/><path d="M205.83 109.69h-53.572a.193.193 0 0 1-.19-.19c0-.103.087-.189.19-.189h53.382V20.46H53.762v68.319c0 .103-.086.19-.19.19a.192.192 0 0 1-.19-.19V20.276c0-.103.088-.19.19-.19h152.252c.103 0 .19.087.19.19v89.23a.192.192 0 0 1-.19.189l.006-.005z" fill="#000"/><path d="M213.669 132.743H45.976c-7.672 0-14.731-3.286-18.369-8.556l-1.751-2.537c-1.23-1.778.043-4.207 2.206-4.207h203.276c2.065 0 3.356 2.234 2.326 4.023l-.96 1.67c-3.367 5.85-10.816 9.612-19.035 9.612v-.005z" fill="#fff"/><path d="M213.669 132.928H45.976c-7.748 0-14.845-3.313-18.526-8.637l-1.751-2.538a2.827 2.827 0 0 1-.179-2.965 2.821 2.821 0 0 1 2.543-1.54h203.275a2.85 2.85 0 0 1 2.489 1.437c.52.9.52 1.973 0 2.868l-.96 1.67c-3.394 5.893-10.93 9.705-19.198 9.705zm-185.606-15.3c-.944 0-1.773.498-2.212 1.333-.44.835-.38 1.8.157 2.581l1.751 2.537c3.611 5.227 10.589 8.474 18.212 8.474h167.692c8.138 0 15.544-3.735 18.873-9.515l.96-1.669c.45-.781.45-1.714 0-2.494a2.468 2.468 0 0 0-2.163-1.247H28.063z" fill="#000"/><path d="M196.051 97.342h-45.742v-28.54l45.742 28.54z" fill="#fff"/><path d="M196.05 97.527h-45.743a.192.192 0 0 1-.19-.19v-28.54c0-.103.087-.19.19-.19.103 0 .19.087.19.19v28.35h45.558c.103 0 .19.087.19.19 0 .103-.087.19-.19.19h-.005z" fill="#000"/><path d="M193.176 77.986h-39.16v16.097h39.16V77.986z" fill="#E2EAFF"/><path d="M157.379 89.918a.193.193 0 0 1-.135-.06.188.188 0 0 1 .005-.266l19.789-18.98c.076-.071.19-.071.266 0l5.535 5.546 12.763-12.79a.184.184 0 0 1 .266 0 .183.183 0 0 1 0 .265l-12.898 12.92a.194.194 0 0 1-.266 0l-5.536-5.546-19.653 18.856a.202.202 0 0 1-.13.055h-.006z" fill="#000"/><path d="m195.012 65.922-.342-.157 1.036-2.234-2.228 1.047-.158-.342 3.167-1.48-1.475 3.166z" fill="#000"/><path d="M183.757 45.909c-3.844 2.857-8.664 4.467-13.511 4.538-.418.005-.672-.445-.434-.781l.748-1.036a64.324 64.324 0 0 1-15.658 1.404c-.889-.027-1.897-.13-2.304-1.013a1.698 1.698 0 0 1-.13-.879c.087-.775.559-1.404 1.036-2 3.15-3.931 6.901-7.368 10.637-10.784l-2.559.277c-.336.038-.542-.342-.32-.591 2.803-3.112 7.189-5.964 10.995-7.835l11.5 18.694v.006z" fill="#5479F7"/><path d="M167.052 36.573a.191.191 0 0 1-.157-.081.187.187 0 0 1 .054-.26l4.468-2.993a.186.186 0 0 1 .26.054c.06.087.033.2-.054.26l-4.468 2.993a.189.189 0 0 1-.103.033v-.006zM158.708 47.057a.197.197 0 0 1-.152-.075.19.19 0 0 1 .032-.266A154.246 154.246 0 0 1 172.858 37a.188.188 0 0 1 .26.065.187.187 0 0 1-.065.26 154.518 154.518 0 0 0-14.232 9.695.177.177 0 0 1-.113.037zM171.83 43.539a.185.185 0 0 1-.163-.092.184.184 0 0 1 .065-.255l3.898-2.277a.184.184 0 0 1 .255.065.184.184 0 0 1-.065.255l-3.898 2.277a.221.221 0 0 1-.092.027z" fill="#000"/><path d="m183.754 44.071 1.063 8.453a.863.863 0 0 0 1.36.602c3.655-2.624 14.471-11.19 13.945-20.294l-16.363 11.24h-.005z" fill="#fff"/><path d="M185.675 53.479a1.057 1.057 0 0 1-1.052-.927l-1.062-8.453a.18.18 0 0 1 .081-.179l16.363-11.239a.196.196 0 0 1 .189-.016c.06.032.103.092.103.157.537 9.255-10.594 18-14.02 20.456-.184.13-.396.2-.613.2h.011zm-1.719-9.315 1.047 8.339a.683.683 0 0 0 .406.542c.217.098.467.07.662-.07 3.345-2.402 14.118-10.855 13.879-19.795l-15.988 10.979-.006.005z" fill="#000"/><path d="m173.586 28.051-7.173-4.51a.873.873 0 0 1 .028-1.497c3.892-2.245 16.145-8.555 24.126-4.256l-16.981 10.269v-.006z" fill="#fff"/><path d="M173.585 28.236a.203.203 0 0 1-.098-.027l-7.173-4.51c-.32-.201-.504-.543-.493-.922.005-.374.206-.71.531-.9 3.649-2.104 16.195-8.631 24.306-4.256a.184.184 0 0 1 .097.163c0 .065-.032.13-.092.162l-16.981 10.269a.218.218 0 0 1-.097.027v-.006zm10.588-11.721c-7.081 0-14.899 4.11-17.642 5.687a.675.675 0 0 0-.342.58c0 .244.114.466.32.597l7.076 4.45 16.595-10.035c-1.832-.916-3.887-1.285-6.007-1.285v.006z" fill="#000"/><path d="M183.562 46.075a3.215 3.215 0 0 0 1.827-.493c8.285-5.221 42.555-27.651 44.789-42.729v-.01c-14.519-4.273-49.088 17.69-57.264 23.08a3.254 3.254 0 0 0-1.393 3.356c1.36 6.717 4.782 12.106 10.263 16.162.531.39 1.155.601 1.784.623l-.006.011z" fill="#fff"/><path d="M221.627 17.156c4.587-4.988 7.9-9.949 8.55-14.302v-.011c-4.234-1.242-10.165-.26-16.65 1.887 0 0 .543 3.6 2.971 7.162 2.619 3.844 5.135 5.259 5.135 5.259l-.006.005z" fill="#5479F7"/><path d="M183.675 46.265h-.038a.187.187 0 0 1 .006-.374h.038a3.01 3.01 0 0 0 1.605-.466c5.557-3.502 24.582-15.89 35.94-28.198a.189.189 0 0 1 .266-.011c.076.07.081.19.011.266-11.391 12.34-30.449 24.755-36.017 28.263a3.382 3.382 0 0 1-1.805.526l-.006-.006zM171.722 27.533s-.049 0-.076-.017c-.098-.043-.141-.151-.098-.249a3.427 3.427 0 0 1 1.258-1.502c5.476-3.61 24.576-15.81 40.397-21.074a.19.19 0 0 1 .238.12.19.19 0 0 1-.119.238c-15.777 5.248-34.84 17.425-40.305 21.03a3.02 3.02 0 0 0-1.117 1.334.188.188 0 0 1-.173.114l-.005.006z" fill="#000"/><path d="M197.725 30.483c3.901 0 7.064-3.187 7.064-7.118 0-3.932-3.163-7.119-7.064-7.119-3.902 0-7.065 3.187-7.065 7.119 0 3.931 3.163 7.118 7.065 7.118z" fill="#fff"/><path d="M197.741 30.673c-.52 0-1.041-.054-1.556-.168a7.207 7.207 0 0 1-4.565-3.204c-2.152-3.394-1.166-7.921 2.201-10.09a7.162 7.162 0 0 1 5.454-.987 7.208 7.208 0 0 1 4.565 3.205c2.153 3.394 1.166 7.92-2.201 10.09a7.19 7.19 0 0 1-3.892 1.154h-.006zm-.027-14.243c-1.296 0-2.57.375-3.692 1.096-3.194 2.06-4.132 6.354-2.088 9.574a6.835 6.835 0 0 0 4.327 3.037 6.781 6.781 0 0 0 5.167-.933c3.193-2.06 4.131-6.354 2.087-9.575a6.83 6.83 0 0 0-4.326-3.036 6.868 6.868 0 0 0-1.475-.163z" fill="#000"/><path d="M197.723 28.281c2.695 0 4.88-2.201 4.88-4.917 0-2.716-2.185-4.918-4.88-4.918s-4.879 2.202-4.879 4.918c0 2.715 2.184 4.917 4.879 4.917z" fill="#5479F7"/><path d="M188.16 42.703a.18.18 0 0 1-.114-.038c-5.736-4.397-9.922-10.99-11.483-18.076a.187.187 0 0 1 .141-.222c.103-.022.2.043.222.141 1.545 7.005 5.677 13.516 11.342 17.86a.189.189 0 0 1 .033.265.19.19 0 0 1-.152.076l.011-.006zM141.359 63.183a.199.199 0 0 1-.163-.087.191.191 0 0 1 .06-.26l12.583-7.753a.192.192 0 0 1 .261.06.191.191 0 0 1-.06.26l-12.584 7.753a.218.218 0 0 1-.097.027zM141.315 52.605a.178.178 0 0 1-.162-.097c-.049-.093-.022-.206.07-.255l7.764-4.392c.092-.048.206-.021.255.07.049.093.022.207-.071.256l-7.763 4.391a.185.185 0 0 1-.093.027zM146.283 42.964a.186.186 0 0 1-.098-.347l8.046-4.722a.185.185 0 0 1 .255.065.185.185 0 0 1-.065.255l-8.046 4.722a.199.199 0 0 1-.092.027zM155.71 63.263a.199.199 0 0 1-.163-.086.191.191 0 0 1 .06-.26l10.301-6.35a.192.192 0 0 1 .261.06.191.191 0 0 1-.06.26l-10.301 6.35a.222.222 0 0 1-.098.026zM90.013 67.642h-9.01a.192.192 0 0 1-.19-.19c0-.102.086-.19.19-.19h8.82v-11.19c0-.102.087-.19.19-.19.103 0 .19.088.19.19v11.38c0 .104-.087.19-.19.19z" fill="#000"/><path d="M77.79 69.708a2.25 2.25 0 1 0-.044-4.5 2.25 2.25 0 0 0 .045 4.5z" fill="#E2EAFF"/><path d="m112.078 157.402 7.623-34.715c.656-2.711 4.066-4.522 6.82-4.126l21.866 3.139s2.228 7.829 3.107 10.393c3.074 8.919 3.34 25.222 3.34 25.222l-19.345.103-23.411-.016z" fill="#fff"/><path d="M154.832 157.505a.191.191 0 0 1-.19-.184c-.45-24.165-6.836-33.886-6.901-33.978a.185.185 0 0 1 .048-.26.185.185 0 0 1 .261.049c.065.097 6.517 9.889 6.967 34.183 0 .104-.082.19-.185.19zM112.099 157.506h-.038a.188.188 0 0 1-.147-.223l6.127-28.458a.188.188 0 1 1 .369.076l-6.127 28.458a.187.187 0 0 1-.184.147z" fill="#000"/><path d="m128.922 71.598 5.828 9.423-7.292 3.003-5.817-10.979 7.281-1.447z" fill="#fff"/><path d="M133.301 78.862a.199.199 0 0 1-.163-.086l-3.79-6.121a.191.191 0 0 1 .06-.26.191.191 0 0 1 .26.06l3.79 6.12a.191.191 0 0 1-.06.26.165.165 0 0 1-.097.028zM126.555 82.175a.18.18 0 0 1-.163-.098l-3.838-6.934a.188.188 0 1 1 .331-.179l3.838 6.934a.187.187 0 0 1-.168.277z" fill="#000"/><path d="M119.655 58.65c-2.965 1.584-3.822 3.52-3.811 5.948.005 1.984 1.496 2.5 3.546 1.73 1.854-.7 3.518 2.347 5.454 1.94-.114 1.15.851 2.093 1.751 2.814.895.722 1.881 1.448 3.031 1.508 1.8.097 3.312-1.562 3.703-3.324.385-1.762.471-4.858-.938-6.267 2.223.77 3.67-.347 4.641-1.426 2.065-2.288.195-5.427-1.99-7.607-2.185-2.18-5.904-3.036-8.154-.932-2.022 1.886.331 5.362.331 5.362s-.911-.645-3.064-.873c-1.366-.147-3.003.325-4.494 1.122l-.006.005z" fill="#000"/><path d="M127.665 69.403s.515-.797 1.388-.515c.857.282 1.345 1.323 1.144 2.201-.195.884-1.024 1.561-1.919 1.648-.504.049-.981.044-1.464-.298-.705.9-1.605 1.665-2.667 2.093-1.058.428-2.283.493-3.34.06-1.768-.727-2.754-2.722-2.846-4.63-.093-1.915.39-3.357 1.03-5.157 0 0 1.046-2.103 4.418-1.003.743.244 1.513.326 1.649 1.1.352 1.964 1.355 4.387 2.607 4.5z" fill="#fff"/><path d="M122.346 75.079a4.295 4.295 0 0 1-1.621-.31c-1.691-.693-2.851-2.58-2.96-4.797-.097-2.017.456-3.579 1.041-5.232 0-.006.006-.017.011-.022.011-.022 1.16-2.234 4.646-1.095.12.038.233.07.347.103.635.184 1.291.374 1.426 1.138.358 1.995 1.318 4.11 2.337 4.327.255-.315.813-.727 1.529-.493.916.298 1.496 1.41 1.269 2.423-.212.943-1.09 1.697-2.088 1.794-.434.044-.938.06-1.442-.238-.764.932-1.67 1.626-2.635 2.017a5.033 5.033 0 0 1-1.865.368l.005.017zm-3.187-10.198c-.673 1.892-1.101 3.269-1.014 5.074.081 1.697.959 3.741 2.727 4.468.959.395 2.125.374 3.199-.06.948-.385 1.843-1.084 2.586-2.033a.182.182 0 0 1 .255-.038c.406.293.813.32 1.339.266.84-.082 1.577-.716 1.756-1.502.185-.819-.292-1.746-1.019-1.984-.721-.234-1.166.433-1.171.439a.186.186 0 0 1-.174.087c-1.453-.125-2.456-2.852-2.775-4.652-.093-.51-.499-.65-1.161-.846-.119-.033-.238-.07-.363-.109-3.074-1.003-4.115.76-4.191.9l.006-.01z" fill="#000"/><path d="M127.439 71.542a.19.19 0 0 1-.147-.31 2.453 2.453 0 0 1 1.497-.855.19.19 0 0 1 .217.157.19.19 0 0 1-.158.217 2.054 2.054 0 0 0-1.263.72.199.199 0 0 1-.146.071z" fill="#000"/><path d="m76.152 121.696.656-.434a17.354 17.354 0 0 1 8.214-2.808l15.88-1.209.016-11.006-21.567 1.404c-1.496.098-2.971.699-4.392 1.176l-1.773.597-3.909 6.441 6.87 5.839h.005z" fill="#fff"/><path d="M76.152 121.88a.19.19 0 0 1-.12-.043l-6.868-5.839a.185.185 0 0 1-.038-.239l3.903-6.441a.192.192 0 0 1 .103-.081l1.773-.596c.244-.082.488-.168.732-.25 1.198-.417 2.44-.851 3.709-.932l21.567-1.405c.054 0 .103.017.141.049.038.038.06.087.06.136l-.017 11.006a.184.184 0 0 1-.173.184l-15.88 1.209a17.218 17.218 0 0 0-8.127 2.776l-.656.434a.183.183 0 0 1-.103.032h-.006zm-6.625-6.067 6.641 5.644.537-.352a17.6 17.6 0 0 1 8.306-2.841l15.707-1.198.016-10.632-21.367 1.393c-1.214.082-2.429.505-3.605.911a51.49 51.49 0 0 1-.732.255l-1.708.575-3.79 6.245h-.005z" fill="#000"/><path d="M131.991 76.555c-7.894 0-12.909 10.66-15.121 17.02l-3.09 9.471-27.19 3.312 1.556 13.067 24.04-.835a14.41 14.41 0 0 0 3.605-.841l1.908 12.069c5.032-5.221 32.178-2.993 32.178-2.993s-5.026-50.27-17.881-50.27h-.005z" fill="#5479F7"/><path d="M115.628 117.006a.19.19 0 0 1-.184-.152c-.022-.108-1.909-10.849 1.1-22.587a.186.186 0 0 1 .228-.135c.103.027.163.13.136.227-2.988 11.657-1.112 22.321-1.09 22.43a.187.187 0 0 1-.152.217h-.038z" fill="#000"/><path d="m102.139 107.474 13.538.889a1.127 1.127 0 0 0 1.155-1.426l-4.517-16.265a1.116 1.116 0 0 0-1.008-.818l-13.533-.89a1.127 1.127 0 0 0-1.154 1.426l4.516 16.265c.13.461.531.792 1.008.819h-.005z" fill="#000"/><path d="M104.637 92.414a.662.662 0 0 0-.06.938.655.655 0 0 0 .932.06.662.662 0 0 0 .06-.939.655.655 0 0 0-.932-.06z" fill="#5479F7"/><path d="M105.743 95.074s-1.144-.33-.607-1.442c.482-1.003 6.625-3.085 16.558 2.922 1.014.613 1.924 1.177 2.749 1.692-.938 2.581-2.912 7.666-6.23 10.784-2.234-2.906-4.82-5.785-7.905-6.447-5.449-1.16-.705-2.022-.705-2.022s-4.104-.314-4.044-1.263c.081-1.258 3.41-1.144 4.814-1.036.38.038.618.055.618.055s-.244-.028-.618-.055c-1.556-.157-5.541-.65-5.855-1.637-.39-1.236 1.225-1.55 1.225-1.55z" fill="#fff"/><path d="M111.772 95.844s-.033 0-.049-.005c-1.979-.505-4.159-.575-5.639-.543a.19.19 0 0 1-.189-.184c0-.103.081-.19.184-.19 1.502-.032 3.719.038 5.736.553.103.028.163.13.136.228a.187.187 0 0 1-.185.141h.006z" fill="#000"/><path d="m131.893 103.595-5.335-25.065s2.473-2.504 4.929-1.86c1.577.413 5.497.359 12.356 14.948 7.682 16.347 9.471 26.16 3.328 30.552-8.013 5.73-20.45-3.356-24.18-7.103-1.621-1.626-3.313-4.061-5.026-6.289 3.318-3.117 5.384-8.04 6.322-10.621 6.874 4.305 7.606 5.443 7.606 5.443v-.005z" fill="#5479F7"/><path d="M141.729 123.981c-6.745 0-14.639-5.558-18.163-9.093a85.973 85.973 0 0 0-1.182-1.16c-1.502-1.469-3.209-3.128-4.543-4.874a.19.19 0 0 1 .032-.266.19.19 0 0 1 .266.033c1.323 1.719 3.015 3.372 4.511 4.831.423.412.824.802 1.182 1.165 2.863 2.879 15.148 12.6 22.907 7.607 1.046-.672 1.393-1.068 2.071-1.892a.189.189 0 0 1 .292.238c-.688.835-1.068 1.269-2.157 1.974-1.573 1.014-3.351 1.437-5.216 1.437zM137.093 108.04a.19.19 0 0 1-.119-.043l-.092-.076c-5.156-4.223-9.374-7.428-12.54-9.52a.191.191 0 0 1-.055-.26.192.192 0 0 1 .261-.055c3.177 2.098 7.406 5.308 12.567 9.542l.092.076a.189.189 0 0 1 .027.266.2.2 0 0 1-.146.07h.005z" fill="#000"/><path d="M69.798 87.899c-3.67-.944-5.617-2.684-6.642-4.197.39-1.241.776-2.477 1.204-3.697 1.643-4.706 4.137-9.488 8.512-11.868.78-.423 1.653-.77 2.532-.667.878.103 1.74.791 1.778 1.68.076 1.99-3.372 2.359-3.746 4.31 1.209-1.035 3.415-.33 3.806 1.215 1.209.152 2.093 1.545 1.718 2.706.743.661 1.02 1.789.667 2.721-.352.927-1.306 1.594-2.298 1.6a69.972 69.972 0 0 1-.63 5.535 10.147 10.147 0 0 1-6.907.656l.006.006z" fill="#fff"/><path d="M72.361 88.42c-.813 0-1.686-.098-2.613-.336-3.855-.987-5.796-2.868-6.75-4.278a.175.175 0 0 1-.022-.163c.385-1.23.78-2.488 1.204-3.703 2.114-6.056 4.923-9.97 8.598-11.97.651-.353 1.627-.808 2.646-.684.922.109 1.903.835 1.941 1.86.044 1.144-.948 1.789-1.908 2.412-.656.423-1.328.862-1.66 1.453.56-.26 1.231-.292 1.898-.08.835.265 1.453.856 1.687 1.588.58.114 1.111.488 1.463 1.04.353.56.467 1.199.32 1.779.738.721.998 1.876.635 2.846-.358.955-1.285 1.638-2.3 1.714a70.216 70.216 0 0 1-.617 5.383.198.198 0 0 1-.103.141 10.367 10.367 0 0 1-4.419 1.003v-.005zm-2.521-.7a9.944 9.944 0 0 0 6.69-.601c.277-1.8.483-3.627.613-5.422a.184.184 0 0 1 .184-.174c.911 0 1.8-.628 2.12-1.48.32-.85.06-1.908-.618-2.515-.054-.049-.076-.125-.054-.2.163-.5.07-1.074-.244-1.573-.315-.499-.797-.824-1.318-.89a.185.185 0 0 1-.157-.14c-.162-.662-.715-1.204-1.469-1.442-.754-.239-1.513-.12-2.028.325a.188.188 0 0 1-.217.022.19.19 0 0 1-.092-.196c.195-1.013 1.117-1.61 2.006-2.19.911-.591 1.773-1.15 1.735-2.082-.032-.813-.862-1.41-1.61-1.502-.91-.108-1.816.315-2.424.645-3.589 1.952-6.343 5.802-8.425 11.765a116.14 116.14 0 0 0-1.17 3.606c.932 1.344 2.807 3.107 6.478 4.05v-.005z" fill="#000"/><path d="M70.621 82.588a1.2 1.2 0 0 1-.471-.092.188.188 0 0 1 .14-.347c.489.206 1.063-.103 1.383-.51.298-.39.456-.889.607-1.371.028-.082.055-.163.076-.244.19-.586.456-1.237.998-1.638.293-.216.629-.33.954-.444a8.92 8.92 0 0 0 .455-.168c.385-.168.803-.494.82-.911.016-.488-.516-.851-.83-1.025a5.562 5.562 0 0 0-3.796-.542 5.601 5.601 0 0 0-3.23 2.071.195.195 0 0 1-.267.038.195.195 0 0 1-.037-.266 5.95 5.95 0 0 1 3.448-2.212 5.923 5.923 0 0 1 4.055.58c.678.37 1.046.852 1.03 1.367-.016.504-.406.965-1.046 1.241-.157.07-.325.125-.483.18-.314.108-.607.21-.856.39-.456.336-.694.921-.862 1.447-.027.081-.05.163-.076.244-.163.515-.325 1.046-.667 1.491-.31.401-.83.721-1.355.721h.01z" fill="#000"/><path d="M74.138 79.838c-.46 0-.927-.162-1.23-.553a.19.19 0 0 1 .298-.233c.363.461 1.073.494 1.555.282.472-.2.89-.618 1.285-1.263a6.88 6.88 0 0 0 .976-3.096.188.188 0 0 1 .374.027 7.262 7.262 0 0 1-1.03 3.264c-.433.716-.91 1.182-1.458 1.415a2.012 2.012 0 0 1-.77.157z" fill="#000"/><path d="M75.799 81.02c-.824 0-1.605-.51-1.833-1.23a.181.181 0 0 1 .125-.234.181.181 0 0 1 .233.125c.195.618.922 1.036 1.648.96.646-.07 1.29-.483 1.773-1.139.423-.58.683-1.241.97-2.044a.19.19 0 0 1 .24-.114.187.187 0 0 1 .113.239c-.238.656-.531 1.47-1.024 2.136-.543.737-1.285 1.21-2.034 1.29-.07.006-.14.011-.211.011z" fill="#000"/><path d="M77.127 81.83c-.558 0-1.122-.287-1.426-.76a.19.19 0 0 1 .055-.26.19.19 0 0 1 .26.055c.287.444.867.678 1.382.558.103-.022.201.038.228.141a.191.191 0 0 1-.14.228c-.12.027-.24.043-.364.043l.005-.005z" fill="#000"/><path d="M37.448 82.117c.445-.255 2.245 1.079 2.684 1.328 1.92 1.068 3.833 2.131 5.752 3.2 4.354 2.417 8.702 4.84 13.056 7.259 1.99-3.107 3.1-6.653 4.212-10.193 1.025 1.513 2.966 3.258 6.642 4.196a10.12 10.12 0 0 0 6.907-.656 70.795 70.795 0 0 1-4.56 16.325c-1.013 2.445-2.244 4.934-4.359 6.522-2.114 1.589-4.922 2.077-7.541 1.724-2.619-.352-5.687-1.339-7.937-2.727-5.677-3.507-10.616-6.153-13.316-12.253-1.35-3.047-1.198-9.124-1.578-12.437-.054-.455-.439-2.006.049-2.288h-.01z" fill="#fff"/><path d="M61.845 112.121c-.542 0-1.09-.038-1.637-.113-2.808-.38-5.877-1.437-8.013-2.755-.445-.276-.89-.547-1.329-.813-5.123-3.139-9.553-5.85-12.063-11.521-.97-2.19-1.171-5.834-1.344-9.043-.071-1.28-.136-2.489-.25-3.449a5.024 5.024 0 0 0-.054-.33c-.163-.933-.282-1.87.195-2.142.374-.217 1.139.2 2.418 1.036.195.124.363.238.456.287l18.65 10.372c1.925-3.058 3.03-6.588 4.099-9.998a.187.187 0 0 1 .152-.13c.07-.01.14.022.184.081.916 1.35 2.792 3.167 6.533 4.12a9.918 9.918 0 0 0 6.777-.644.195.195 0 0 1 .195.021.192.192 0 0 1 .076.18 70.594 70.594 0 0 1-4.576 16.367c-1.024 2.478-2.271 4.988-4.424 6.599-1.62 1.214-3.762 1.87-6.04 1.87l-.005.005zM37.61 82.264c-.027 0-.054 0-.07.017-.288.162-.087 1.317-.011 1.756.027.146.043.266.054.352.114.971.18 2.186.25 3.47.173 3.183.374 6.788 1.317 8.914 2.462 5.562 6.842 8.246 11.917 11.353.44.265.878.536 1.328.813 2.093 1.296 5.107 2.331 7.867 2.705 2.776.374 5.476-.238 7.406-1.686 2.077-1.556 3.296-4.017 4.3-6.446a70.483 70.483 0 0 0 4.494-15.94 10.285 10.285 0 0 1-6.712.52c-3.578-.916-5.508-2.602-6.528-3.963-1.062 3.378-2.18 6.853-4.12 9.879a.196.196 0 0 1-.25.065L40.046 83.614c-.103-.06-.266-.168-.477-.303-1.052-.694-1.708-1.041-1.952-1.041l-.006-.006z" fill="#000"/><path d="M56.399 97.027a.194.194 0 0 1-.136-.06.188.188 0 0 1 .006-.265 15.2 15.2 0 0 0 1.908-2.223.184.184 0 0 1 .26-.044c.087.06.103.18.044.26a15.658 15.658 0 0 1-1.958 2.278.2.2 0 0 1-.13.054h.006z" fill="#000"/><path d="M38.737 79.135c.743.195 1.317.77 1.518 1.512 2.922 10.865 8.577 28.464 11.077 39.454.433 1.914.731 3.931.178 5.812-.504 1.713-1.686 3.161-3.074 4.283-1.388 1.123-2.981 1.952-4.57 2.776-2.196-4.966-2.825-18.108-4.581-23.248-1.703-4.983-3.405-9.976-4.484-15.127-.754-3.61-12.676-3.285-12.573-6.977.027-1.047-3.72-6.69-3.02-7.553 1.675-2.054 18.081-1.312 19.524-.938l.005.006z" fill="#fff"/><path d="M43.871 133.163s-.043 0-.065-.011a.183.183 0 0 1-.108-.103c-1.21-2.738-1.941-7.888-2.652-12.871-.59-4.153-1.149-8.073-1.935-10.388-1.675-4.907-3.41-9.976-4.49-15.148-.346-1.654-3.355-2.467-6.272-3.259-3.275-.889-6.365-1.73-6.306-3.762.011-.385-.656-1.67-1.3-2.912-1.307-2.51-2.126-4.196-1.67-4.75 1.767-2.168 18.4-1.344 19.713-.997.802.212 1.436.84 1.653 1.643 1.117 4.142 2.619 9.233 4.207 14.622 2.62 8.865 5.325 18.038 6.875 24.837.412 1.816.76 3.936.174 5.91-.467 1.583-1.551 3.096-3.14 4.38-1.41 1.139-3.03 1.979-4.597 2.793a.161.161 0 0 1-.087.021v-.005zm-14.188-54.26c-4.652 0-9.505.292-10.318 1.295-.33.407.9 2.776 1.713 4.343.84 1.621 1.361 2.635 1.345 3.096-.049 1.74 3.042 2.575 6.029 3.389 3.025.818 6.148 1.67 6.538 3.545 1.074 5.151 2.803 10.209 4.473 15.105.803 2.348 1.361 6.289 1.952 10.459.689 4.847 1.399 9.851 2.543 12.589 1.496-.776 3.03-1.589 4.359-2.662 1.529-1.236 2.57-2.684 3.014-4.191.559-1.887.223-3.953-.184-5.72-1.545-6.793-4.25-15.956-6.864-24.815-1.594-5.395-3.096-10.486-4.212-14.633a1.94 1.94 0 0 0-1.383-1.377c-.667-.174-4.755-.418-9.01-.418l.005-.005z" fill="#000"/><path d="M.48 157.376c6.82-18.244 13.154-34.298 16.428-40.12l28.204-.857s2.445 17.875 2.315 41.004L.48 157.371v.005z" fill="#fff"/><path d="M27.329 157.593s-.038 0-.06-.011a.19.19 0 0 1-.119-.239l7.514-22.917a4.253 4.253 0 0 1 3.064-2.803l2.103-.488a.19.19 0 0 1 .228.141.191.191 0 0 1-.14.228l-2.104.488a3.87 3.87 0 0 0-2.793 2.553l-7.514 22.918a.186.186 0 0 1-.179.13z" fill="#000"/><path d="M.48 157.565s-.044 0-.066-.011a.188.188 0 0 1-.108-.244c8.089-21.627 13.62-35.132 16.438-40.148a.192.192 0 0 1 .158-.097l28.203-.857c.098 0 .18.065.19.163.027.179 2.44 18.065 2.315 40.944a.188.188 0 0 1-.19.185.184.184 0 0 1-.184-.19c.12-21.67-2.044-38.857-2.288-40.722l-27.927.846c-2.825 5.069-8.328 18.525-16.363 40.001a.185.185 0 0 1-.173.124l-.006.006z" fill="#000"/><path d="M20.892 117.3h23.769a1.836 1.836 0 0 0 1.767-2.326c-.742-2.689-2.098-7.595-3.92-14.156-2.824-10.17-4.651-17.327-5.633-19.708-.986-2.38-1.16-3.665-5.183-3.844-3.708-.162-8.165-.732-8.604 3.46a2.91 2.91 0 0 1-1.187 2.033l-2.635 1.951 1.62 32.579.006.011z" fill="#5479F7"/><path d="M29.59 88.972a.197.197 0 0 1-.141-.06l-3.72-4.055a.188.188 0 0 1 .277-.255l3.551 3.877 2.933-4.657a.168.168 0 0 1 .12-.082.2.2 0 0 1 .146.027l3.876 2.684.58-2.098a.19.19 0 0 1 .234-.13.19.19 0 0 1 .13.233l-.65 2.353a.173.173 0 0 1-.12.125.197.197 0 0 1-.174-.022l-3.93-2.722-2.96 4.695a.188.188 0 0 1-.142.087h-.016.006zM52.361 106.307h12.286c3.681 0 7.32.808 10.654 2.369l-3.053 1.128 5.883 10.214c.986 1.713-.982 3.687-2.445 2.429-.033-.027-.066-.06-.098-.092.363 1.767-2.044 2.223-3.264.678.33 1.621-1.865 2.429-3.334.694.537 1.859-2.082 2.597-3.28.683-1.264-2.017-5.151-8.67-5.151-8.67h-8.414l.222-9.439-.006.006z" fill="#fff"/><path d="M67.568 125.728c-.71 0-1.491-.363-2.023-1.209-1.17-1.865-4.624-7.764-5.096-8.582h-8.306a.213.213 0 0 1-.136-.055.187.187 0 0 1-.054-.135l.222-9.439c0-.103.087-.185.19-.185h12.286c3.687 0 7.395.824 10.735 2.386.07.032.114.103.108.179a.179.179 0 0 1-.125.168l-2.846 1.052 5.769 10.019c.585 1.019.206 2.12-.472 2.684-.613.504-1.372.558-2.011.162-.022.548-.315.987-.82 1.226-.655.303-1.669.216-2.455-.461a1.455 1.455 0 0 1-.846 1.176c-.645.315-1.6.266-2.445-.45a1.44 1.44 0 0 1-.89 1.307 1.953 1.953 0 0 1-.78.163l-.005-.006zm-15.235-10.171h8.224c.065 0 .13.038.163.092.038.065 3.898 6.674 5.145 8.664.624.998 1.648 1.215 2.337.905.564-.254.791-.791.607-1.436a.186.186 0 0 1 .092-.217c.076-.044.174-.022.234.043.796.944 1.778 1.057 2.396.759.499-.244.732-.726.612-1.296a.186.186 0 0 1 .331-.151c.689.867 1.73 1.024 2.359.732.482-.223.688-.684.574-1.258a.186.186 0 0 1 .093-.201.198.198 0 0 1 .222.027c.032.027.06.054.092.082.645.558 1.34.374 1.773.016.542-.45.894-1.328.385-2.207l-5.883-10.214a.198.198 0 0 1-.016-.157.18.18 0 0 1 .114-.114l2.624-.971a25.165 25.165 0 0 0-10.16-2.163H52.55l-.212 9.065h-.005z" fill="#000"/><path d="m64.566 116.725-3.378 1.459a1.342 1.342 0 0 1-1.063-2.467l3.378-1.459a1.341 1.341 0 0 1 1.762.7 1.347 1.347 0 0 1-.7 1.767z" fill="#fff"/><path d="M60.656 118.488c-.19 0-.385-.038-.564-.109a1.518 1.518 0 0 1-.84-.819 1.528 1.528 0 0 1 .796-2.011l3.378-1.458a1.51 1.51 0 0 1 1.171-.017c.38.152.678.439.84.819a1.527 1.527 0 0 1-.796 2.011l-3.378 1.459a1.482 1.482 0 0 1-.607.125zm3.377-4.153a1.11 1.11 0 0 0-.455.097l-3.378 1.459a1.153 1.153 0 0 0-.602 1.518 1.16 1.16 0 0 0 1.518.607l3.378-1.459c.586-.254.857-.932.602-1.518a1.162 1.162 0 0 0-.634-.618 1.16 1.16 0 0 0-.429-.081v-.005z" fill="#000"/><path d="m65.91 119.016-3.378 1.459a1.342 1.342 0 0 1-1.063-2.467l3.378-1.459a1.341 1.341 0 0 1 1.762.7 1.35 1.35 0 0 1-.7 1.767z" fill="#fff"/><path d="M62 120.772a1.518 1.518 0 0 1-1.404-.927 1.527 1.527 0 0 1 .796-2.011l3.378-1.459a1.515 1.515 0 0 1 1.17-.016c.38.152.679.439.841.819a1.528 1.528 0 0 1-.797 2.011l-3.377 1.459a1.498 1.498 0 0 1-.608.124zm3.377-4.147a1.11 1.11 0 0 0-.455.097l-3.378 1.459a1.153 1.153 0 0 0-.602 1.518c.125.282.347.504.634.618.288.114.602.108.884-.011l3.378-1.458c.585-.255.857-.933.602-1.518a1.164 1.164 0 0 0-.635-.619 1.16 1.16 0 0 0-.428-.081v-.005z" fill="#000"/><path d="m67.448 121.302-3.377 1.458a1.34 1.34 0 0 1-1.762-.699 1.348 1.348 0 0 1 .7-1.768l3.377-1.458a1.342 1.342 0 0 1 1.762.699 1.35 1.35 0 0 1-.7 1.768z" fill="#fff"/><path d="M63.538 123.058c-.19 0-.385-.038-.563-.109a1.516 1.516 0 0 1-.84-.818 1.528 1.528 0 0 1 .796-2.012l3.378-1.458a1.51 1.51 0 0 1 1.171-.016c.38.151.678.439.84.818a1.528 1.528 0 0 1-.797 2.012l-3.377 1.458a1.482 1.482 0 0 1-.608.125zm3.378-4.148c-.157 0-.309.033-.455.098l-3.378 1.458a1.158 1.158 0 0 0 .916 2.126l3.378-1.459c.586-.255.857-.932.602-1.518a1.162 1.162 0 0 0-1.058-.699l-.005-.006z" fill="#000"/><path d="m68.709 123.171-2.782 1.204a1.1 1.1 0 0 1-1.453-.58 1.109 1.109 0 0 1 .58-1.459l2.782-1.203a1.1 1.1 0 0 1 1.453.58 1.113 1.113 0 0 1-.58 1.458z" fill="#fff"/><path d="M65.488 124.65a1.291 1.291 0 0 1-1.187-.786 1.297 1.297 0 0 1 .677-1.702l2.782-1.204a1.291 1.291 0 0 1 1.702.678 1.297 1.297 0 0 1-.678 1.702l-2.781 1.204a1.28 1.28 0 0 1-.515.108zm2.787-3.415a.924.924 0 0 0-.364.076l-2.78 1.203a.92.92 0 0 0-.478 1.209.918.918 0 0 0 1.21.483l2.78-1.204a.919.919 0 0 0-.363-1.762l-.005-.005z" fill="#000"/><path d="m74.15 109.094-7.222 2.412s-.163 2.63 2.423 2.055c3.638-.808 4.376.662 6.3 1.182 3.134.841 4.782-.878 4.782-.878l-6.278-4.771h-.005z" fill="#fff"/><path d="M77.335 115.165c-.52 0-1.1-.07-1.74-.244-.58-.157-1.063-.401-1.524-.634-1.122-.57-2.18-1.101-4.684-.548-.824.184-1.48.076-1.941-.32-.775-.661-.71-1.881-.71-1.93 0-.076.054-.141.13-.168l7.222-2.413a.19.19 0 0 1 .238.12.19.19 0 0 1-.12.238l-7.096 2.369c.005.299.076 1.069.58 1.502.369.315.916.396 1.616.239 2.635-.586 3.806 0 4.933.575.467.238.906.46 1.453.607 2.993.802 4.582-.808 4.598-.824a.189.189 0 0 1 .266-.006c.076.071.076.19.005.266-.054.06-1.155 1.171-3.226 1.171z" fill="#000"/><path d="M14.854 86.52c1.236-1.241 2.456-1.837 2.862-3.545.271-1.144.33-2.798 1.502-2.9 0 0 2.358-.261 3.985 2.46.813 1.367 1.052 2.988 1.268 4.566 1.394 10.247 2.467 25.926.586 36.092-.271 1.458-1.355 7.601-4.614 9.163-2.082.997-4.706.786-7.01.786-2.304 0-10.453.84-11.066-.781-.119-.32-.504-.526-.466-1.323 1.068-4.809 4.896-20.201 7.634-29.619 1.935-6.657 3.388-12.963 5.319-14.893v-.005z" fill="#fff"/><path d="M4.811 133.462h-.607a2.483 2.483 0 0 1-1.941-.932 2.487 2.487 0 0 1-.493-2.104c1.854-8.512 9.965-39.388 12.508-43.568.395-.651.975-1.166 1.534-1.66.77-.683 1.496-1.328 1.724-2.266.049-.206.092-.423.135-.65.207-1.074.434-2.294 1.535-2.391.07-.011 1.87-.185 3.442 1.566a.184.184 0 0 1-.016.266.184.184 0 0 1-.265-.016c-1.437-1.6-3.107-1.442-3.123-1.442-.824.07-1.014 1.095-1.204 2.087-.043.233-.087.456-.135.672-.25 1.052-1.058 1.768-1.838 2.462-.543.477-1.101.976-1.464 1.578-2.527 4.153-10.61 34.953-12.46 43.454a2.114 2.114 0 0 0 .424 1.784 2.104 2.104 0 0 0 1.648.792c4.137 0 11.331-.011 12.941-.125 2.711-.19 4.826-1.318 5.66-3.031.559-1.149 3.508-10.534 3.465-11.89 0-.103.081-.189.184-.195h.006c.103 0 .184.082.19.185.043 1.436-2.923 10.865-3.503 12.063-1.285 2.64-4.603 3.144-5.97 3.242-1.55.108-8.153.125-12.36.125l-.017-.006z" fill="#000"/><path d="m23.131 87.784 12.383 18.054h21.812v14.384l-24.051 1.393c-.07 0-.141.006-.206.006a14.349 14.349 0 0 1-11.673-6.154l-7.27-10.453c-4.392-6.316-1.903-15.072 5.156-18.125l.298-.13a2.903 2.903 0 0 1 3.551 1.025z" fill="#fff"/><path d="M26.758 120.293a.156.156 0 0 1-.082-.022 14.551 14.551 0 0 1-5.427-4.701l-7.926-11.39a.186.186 0 0 1 .048-.261.185.185 0 0 1 .26.049l7.927 11.391a14.217 14.217 0 0 0 5.286 4.581c.093.049.13.158.087.255a.186.186 0 0 1-.168.103l-.005-.005z" fill="#000"/><path d="M33.183 121.806a14.54 14.54 0 0 1-11.938-6.235.184.184 0 0 1 .048-.26c.087-.06.201-.038.26.049a14.156 14.156 0 0 0 11.62 6.077l23.969-1.388v-14.02H44.21a.192.192 0 0 1-.19-.19c0-.103.087-.19.19-.19h13.12c.103 0 .19.087.19.19v14.384a.191.191 0 0 1-.179.19l-24.153 1.398-.006-.005zM22.595 63.337c.287-.987 2.911-4.045 3.719-4.673.808-.63 2.06-.787 2.84-.125 1.855-1.274 4.344-1.68 6.43-.846 2.088.835 3.65 2.982 3.59 5.238-.06 2.255-4.288.444-4.131 4.592-.358 1.957-2.19 3.437-4.153 3.74-1.773.277-4.88-.471-5.91-2.244-1.139-1.957-3.101-3.22-2.386-5.687v.005z" fill="#000"/><path d="m34.125 74.62-1.469 9.298s-6.744-4.201-6.799-4.272c-.054-.07 1.15-7.98 1.15-7.98s1.561-2.614 7.113 2.949l.005.005z" fill="#fff"/><path d="M36.59 66.255s2.521 6.647 0 8.789c-1.496 1.269-6.218 1.936-9.238-2.635 0 0-2.093.103-2.57-2.038-.477-2.142.59-2.95 2.32-1.443 0 0 2.093 1.068 1.405-1.903-.299-1.29.802-2.472 3.215-3.171 4.364-1.264 3.963-.158 4.868 2.401z" fill="#fff"/><path d="M33.474 76.172a6.58 6.58 0 0 1-.965-.07c-1.464-.207-3.557-.987-5.26-3.508-.46-.017-2.212-.206-2.65-2.185-.256-1.144-.093-1.99.45-2.31.525-.314 1.295-.076 2.157.672.2.098.721.272 1.003.05.2-.158.385-.592.114-1.752-.336-1.442.884-2.678 3.35-3.394 3.774-1.09 4.154-.493 4.788 1.567.087.282.184.607.309.949.114.303 2.526 6.799-.054 8.994-.624.532-1.811.982-3.237.982l-.005.005zm-6.122-3.952c.066 0 .125.032.158.086 1.632 2.467 3.648 3.226 5.053 3.427 1.735.25 3.21-.239 3.909-.83 2.39-2.027-.027-8.512-.055-8.577-.124-.352-.222-.677-.314-.965-.558-1.81-.727-2.358-4.321-1.317-2.245.65-3.367 1.724-3.085 2.944.255 1.1.174 1.8-.25 2.13-.541.423-1.387 0-1.42-.021-.016-.006-.027-.017-.038-.027-.726-.635-1.36-.873-1.735-.646-.385.228-.488.944-.276 1.903.433 1.958 2.293 1.898 2.374 1.893h.011-.01z" fill="#000"/><path d="M27.397 71.19a.184.184 0 0 1-.163-.092 1.606 1.606 0 0 0-1.355-.786h-.006a.189.189 0 0 1-.19-.19c0-.103.082-.19.19-.19h.006c.683 0 1.344.385 1.68.976a.181.181 0 0 1-.07.255.182.182 0 0 1-.092.027zM26.378 77.179l-.374-.055s.417-2.83.71-4.77a.185.185 0 0 1 .212-.158.187.187 0 0 1 .157.212c-.293 1.94-.71 4.77-.71 4.77h.005zM33.702 77.476h-.027a.19.19 0 0 1-.157-.217l.206-1.301a.19.19 0 0 1 .374.06l-.206 1.3a.186.186 0 0 1-.184.158h-.006z" fill="#000"/><path d="M107.507 55.048c13.446-3.134 21.8-16.604 18.657-30.085-3.142-13.481-16.59-21.87-30.036-18.735-13.446 3.134-21.8 16.603-18.657 30.084 3.142 13.482 16.59 21.87 30.036 18.736z" fill="#fff"/><path d="M101.891 55.902c-1.052 0-2.109-.065-3.166-.195-6.685-.835-12.649-4.229-16.785-9.564-8.534-10.995-6.566-26.886 4.397-35.43C91.638 6.58 98.231 4.758 104.9 5.593c6.685.835 12.649 4.23 16.786 9.564 8.534 10.996 6.566 26.886-4.397 35.431-4.462 3.475-9.835 5.313-15.403 5.313h.005zm-.157-50.129c-5.481 0-10.778 1.811-15.17 5.238-10.794 8.414-12.735 24.072-4.332 34.904 4.077 5.254 9.949 8.6 16.536 9.423 6.571.82 13.067-.97 18.288-5.042 10.794-8.414 12.735-24.072 4.332-34.905-4.077-5.253-9.949-8.598-16.536-9.422a25.136 25.136 0 0 0-3.118-.196z" fill="#000"/><path d="M90.012 4.262c11.835-5.427 26.268-2.233 34.644 8.49l-22.809 17.784S92.029 8.611 90.012 4.262z" fill="#fff"/><path d="M101.847 30.72s-.032 0-.043-.005a.2.2 0 0 1-.125-.103c-.097-.217-9.84-21.974-11.83-26.268a.195.195 0 0 1-.005-.147.167.167 0 0 1 .097-.103c5.818-2.667 12.476-3.313 18.743-1.822 6.452 1.535 12.031 5.124 16.129 10.372a.177.177 0 0 1 .038.141.192.192 0 0 1-.07.125l-22.809 17.783a.181.181 0 0 1-.114.038l-.011-.011zM90.261 4.354c2.039 4.42 10.637 23.612 11.657 25.884l22.473-17.518c-8.176-10.334-22.159-13.76-34.13-8.366z" fill="#000"/><path d="M128.916 30.423c.136 7.276-2.705 14.199-7.628 19.268a37210.038 37210.038 0 0 1-19.198-18.949s22.364-.216 26.821-.314l.005-.005z" fill="#fff"/><path d="M121.287 49.88a.187.187 0 0 1-.13-.054 24629.368 24629.368 0 0 1-19.198-18.954.189.189 0 0 1 .13-.325c.222 0 22.413-.217 26.821-.315.049 0 .097.016.135.054a.205.205 0 0 1 .06.13c.13 7.173-2.667 14.243-7.683 19.4a.167.167 0 0 1-.13.053l-.005.011zm-18.743-18.96c2.142 2.115 14.351 14.178 18.737 18.5 4.82-5.032 7.526-11.863 7.444-18.808-4.429.092-23.036.276-26.186.309h.005z" fill="#000"/><path d="M78.087 56.082c7.019 0 12.709-5.697 12.709-12.725 0-7.027-5.69-12.725-12.709-12.725-7.018 0-12.708 5.698-12.708 12.725 0 7.028 5.69 12.725 12.708 12.725z" fill="#fff"/><path d="M78.086 56.27c-7.114 0-12.898-5.79-12.898-12.914s5.784-12.914 12.898-12.914c7.113 0 12.898 5.79 12.898 12.914s-5.785 12.915-12.898 12.915zm0-25.454c-6.902 0-12.519 5.622-12.519 12.535s5.617 12.535 12.519 12.535c6.901 0 12.518-5.622 12.518-12.535s-5.617-12.535-12.518-12.535z" fill="#000"/><path d="M81.396 56.082c7.019 0 12.708-5.697 12.708-12.725 0-7.027-5.69-12.725-12.708-12.725-7.019 0-12.709 5.698-12.709 12.725 0 7.028 5.69 12.725 12.709 12.725z" fill="#fff"/><path d="M81.394 56.27c-7.113 0-12.898-5.79-12.898-12.914s5.785-12.914 12.898-12.914c7.113 0 12.898 5.79 12.898 12.914s-5.785 12.915-12.898 12.915zm0-25.454c-6.901 0-12.518 5.622-12.518 12.535s5.617 12.535 12.518 12.535c6.902 0 12.519-5.622 12.519-12.535s-5.617-12.535-12.519-12.535z" fill="#000"/><path d="M84.595 56.082c7.019 0 12.709-5.697 12.709-12.725 0-7.027-5.69-12.725-12.709-12.725-7.019 0-12.708 5.698-12.708 12.725 0 7.028 5.69 12.725 12.708 12.725z" fill="#fff"/><path d="M84.594 56.27c-7.114 0-12.899-5.79-12.899-12.914s5.785-12.914 12.899-12.914c7.113 0 12.898 5.79 12.898 12.914s-5.785 12.915-12.898 12.915zm0-25.454c-6.902 0-12.52 5.622-12.52 12.535s5.618 12.535 12.52 12.535c6.901 0 12.518-5.622 12.518-12.535s-5.617-12.535-12.518-12.535z" fill="#000"/><path d="M84.594 53.359c5.518 0 9.992-4.479 9.992-10.003 0-5.525-4.474-10.003-9.992-10.003-5.519 0-9.992 4.478-9.992 10.003 0 5.524 4.473 10.003 9.992 10.003z" fill="#fff"/><path d="M84.592 53.548c-5.611 0-10.182-4.57-10.182-10.193 0-5.622 4.565-10.193 10.182-10.193s10.182 4.57 10.182 10.193c0 5.622-4.565 10.193-10.182 10.193zm0-20.012c-5.405 0-9.802 4.403-9.802 9.819 0 5.416 4.397 9.819 9.802 9.819 5.406 0 9.802-4.403 9.802-9.82 0-5.415-4.397-9.818-9.802-9.818z" fill="#000"/><path d="M87.282 44.498a2.01 2.01 0 0 0-.467-.694 2.979 2.979 0 0 0-.78-.548c-.31-.157-.76-.336-1.34-.531-.574-.195-1.024-.396-1.344-.591-.314-.195-.537-.407-.672-.645-.136-.233-.201-.559-.201-.965 0-.57.206-1.041.607-1.4.402-.357.949-.541 1.621-.541.673 0 1.247.217 1.643.645.401.428.602 1.003.602 1.713 0 .022.016.043.043.043h.342s.043-.016.043-.043c0-.83-.217-1.496-.645-1.979-.423-.477-1.025-.743-1.794-.791v-1.15s-.017-.043-.044-.043h-.347s-.043.016-.043.043v1.15c-.716.032-1.312.26-1.762.672-.461.423-.694.998-.694 1.697 0 .428.081.802.238 1.1.157.304.401.57.727.797.325.223.835.456 1.512.695.673.233 1.193.455 1.535.666.341.206.585.434.726.683.141.244.212.559.212.938 0 .543-.212 1.009-.635 1.378-.422.374-.965.563-1.62.563-.792 0-1.427-.211-1.882-.623-.456-.412-.689-.992-.689-1.73a.043.043 0 0 0-.043-.043h-.341s-.044.016-.044.043c0 .846.255 1.519.748 2.001.488.477 1.188.737 2.071.775v1.15s.017.043.044.043h.352s.043-.016.043-.043v-1.155c.727-.049 1.318-.282 1.752-.7.444-.422.672-.986.672-1.67 0-.34-.049-.645-.152-.9l.006-.01z" fill="#000"/><path d="M16.67 34.838a2.25 2.25 0 1 0-.045-4.5 2.25 2.25 0 0 0 .045 4.5zM16.684 41.403a2.25 2.25 0 1 0-.032-4.5 2.25 2.25 0 0 0 .032 4.5zM16.709 47.975a2.25 2.25 0 1 0-.045-4.5 2.25 2.25 0 0 0 .045 4.5z" fill="#E2EAFF"/><path d="M16.686 28.888a.192.192 0 0 1-.19-.19v-9.396c0-.103.087-.19.19-.19h29.646c.103 0 .19.087.19.19 0 .103-.087.19-.19.19H16.876v9.206c0 .103-.087.19-.19.19z" fill="#000"/></svg>