<svg width="993" height="958" viewBox="0 0 993 958" fill="none" xmlns="http://www.w3.org/2000/svg">
<g style="mix-blend-mode:multiply" opacity="0.5">
<mask id="mask0_2_62482" style="mask-type:luminance" maskUnits="userSpaceOnUse" x="84" y="839" width="808" height="119">
<path d="M487.998 958C710.672 958 891.184 931.428 891.184 898.649C891.184 865.87 710.672 839.297 487.998 839.297C265.325 839.297 84.8125 865.87 84.8125 898.649C84.8125 931.428 265.325 958 487.998 958Z" fill="white"/>
</mask>
<g mask="url(#mask0_2_62482)">
<path d="M891.183 839.297H84.7988V958H891.183V839.297Z" fill="white"/>
<path d="M848.039 899.089C848.191 925.878 686.687 948.507 487.317 949.629C287.948 950.751 126.192 929.95 126.041 903.161C125.89 876.372 287.394 853.743 486.763 852.621C686.133 851.499 847.888 872.3 848.039 899.089Z" fill="white"/>
<path d="M486.02 949.473C684.612 948.363 845.482 925.835 845.333 899.155C845.185 872.476 684.073 851.747 485.481 852.857C286.889 853.967 126.019 876.495 126.168 903.175C126.317 929.855 287.428 950.583 486.02 949.473Z" fill="white"/>
<path d="M484.785 949.29C682.598 948.184 842.837 925.744 842.689 899.169C842.54 872.594 682.061 851.947 484.248 853.053C286.435 854.158 126.196 876.598 126.345 903.173C126.493 929.748 286.972 950.396 484.785 949.29Z" fill="white"/>
<path d="M840.078 899.14C840.229 925.613 680.627 947.978 483.601 949.087C286.574 950.196 126.733 929.635 126.582 903.174C126.431 876.7 286.033 854.336 483.059 853.226C680.086 852.117 839.927 872.678 840.078 899.14Z" fill="white"/>
<path d="M837.434 899.155C837.585 925.528 678.613 947.791 482.368 948.9C286.122 950.01 126.911 929.537 126.76 903.164C126.609 876.791 285.58 854.527 481.826 853.418C678.072 852.309 837.283 872.782 837.434 899.155Z" fill="white"/>
<path d="M481.066 948.73C676.528 947.637 834.862 925.462 834.715 899.2C834.568 872.939 675.997 852.535 480.535 853.627C285.074 854.72 126.74 876.895 126.886 903.157C127.033 929.419 285.605 949.822 481.066 948.73Z" fill="#FDFFFF"/>
<path d="M832.13 899.179C832.282 925.338 674.582 947.437 479.899 948.534C285.215 949.631 127.276 929.321 127.125 903.163C126.974 877.004 284.673 854.905 479.357 853.808C674.04 852.711 831.979 873.02 832.13 899.179Z" fill="#FDFFFF"/>
<path d="M829.472 899.19C829.623 925.248 672.554 947.247 478.651 948.343C284.748 949.44 127.439 929.207 127.301 903.149C127.15 877.091 284.219 855.092 478.122 853.996C672.024 852.899 829.333 873.133 829.472 899.19Z" fill="#FDFDFF"/>
<path d="M826.814 899.204C826.965 925.148 670.526 947.071 477.404 948.155C284.283 949.239 127.616 929.094 127.465 903.149C127.314 877.205 283.754 855.282 476.875 854.198C669.997 853.114 826.663 873.259 826.814 899.204Z" fill="#FDFDFF"/>
<path d="M824.169 899.215C824.32 925.058 668.51 946.88 476.182 947.977C283.841 949.061 127.805 928.991 127.666 903.148C127.515 877.304 283.325 855.482 475.653 854.386C667.993 853.302 824.03 873.371 824.169 899.215Z" fill="#FDFDFF"/>
<path d="M821.511 899.241C821.649 924.983 666.482 946.717 474.935 947.801C283.375 948.885 127.981 928.891 127.83 903.161C127.679 877.419 282.859 855.685 474.406 854.601C665.966 853.517 821.36 873.511 821.511 899.241Z" fill="#FCFDFF"/>
<path d="M473.639 947.624C664.412 946.557 818.948 924.917 818.805 899.289C818.661 873.66 663.894 853.749 473.121 854.815C282.349 855.882 127.813 877.522 127.956 903.15C128.099 928.779 282.867 948.69 473.639 947.624Z" fill="#FCFDFD"/>
<path d="M472.404 947.456C662.397 946.394 816.302 924.842 816.16 899.319C816.017 873.795 661.882 853.964 471.888 855.026C281.895 856.088 127.99 877.64 128.133 903.164C128.275 928.688 282.411 948.518 472.404 947.456Z" fill="#FCFDFD"/>
<path d="M813.563 899.28C813.701 924.708 660.436 946.177 471.232 947.248C282.028 948.32 128.523 928.578 128.385 903.15C128.246 877.723 281.512 856.254 470.716 855.182C659.92 854.111 813.424 873.853 813.563 899.28Z" fill="#FCFDFD"/>
<path d="M810.903 899.293C811.042 924.607 658.406 946.001 469.983 947.06C281.56 948.119 128.686 928.465 128.547 903.151C128.408 877.837 281.044 856.444 469.467 855.385C657.89 854.326 810.765 873.979 810.903 899.293Z" fill="#FBFCFD"/>
<path d="M808.258 899.305C808.397 924.518 656.404 945.81 468.749 946.869C281.107 947.928 128.875 928.35 128.736 903.137C128.598 877.924 280.591 856.631 468.245 855.572C655.887 854.513 808.12 874.091 808.258 899.305Z" fill="#FBFCFD"/>
<path d="M467.462 946.714C654.324 945.669 805.693 924.47 805.553 899.364C805.413 874.258 653.817 854.752 466.954 855.796C280.092 856.841 128.723 878.04 128.863 903.146C129.003 928.252 280.599 947.758 467.462 946.714Z" fill="#FBFCFD"/>
<path d="M802.956 899.329C803.094 924.328 652.361 945.444 466.281 946.503C280.201 947.549 129.241 928.135 129.09 903.136C128.951 878.137 279.685 857.021 465.765 855.962C651.845 854.916 802.805 874.33 802.956 899.329Z" fill="#FAFCFD"/>
<path d="M800.297 899.356C800.436 924.254 650.332 945.281 465.034 946.328C279.735 947.374 129.404 928.036 129.266 903.138C129.127 878.24 279.231 857.212 464.53 856.166C649.829 855.119 800.159 874.458 800.297 899.356Z" fill="#FAFCFD"/>
<path d="M463.743 946.165C648.262 945.134 797.731 924.199 797.593 899.407C797.454 874.614 647.761 855.351 463.242 856.383C278.724 857.414 129.255 878.349 129.393 903.141C129.531 927.934 279.225 947.197 463.743 946.165Z" fill="#FAFBFD"/>
<path d="M794.994 899.38C795.133 924.064 646.301 944.915 462.564 945.961C278.827 946.995 129.77 927.833 129.631 903.137C129.492 878.453 278.324 857.602 462.061 856.556C645.798 855.522 794.856 874.684 794.994 899.38Z" fill="#F9FBFD"/>
<path d="M792.348 899.394C792.487 923.977 644.285 944.74 461.329 945.774C278.373 946.808 129.945 927.721 129.807 903.139C129.668 878.556 277.87 857.793 460.826 856.759C643.781 855.725 792.21 874.811 792.348 899.394Z" fill="#F9FBFC"/>
<path d="M789.692 899.405C789.83 923.887 642.259 944.562 460.084 945.583C277.909 946.617 130.123 927.606 129.984 903.124C129.846 878.642 277.417 857.968 459.592 856.946C641.767 855.913 789.553 874.923 789.692 899.405Z" fill="#F9FBFC"/>
<path d="M787.045 899.419C787.183 923.787 640.242 944.374 458.86 945.395C277.466 946.416 130.311 927.494 130.172 903.125C130.033 878.757 276.975 858.17 458.356 857.149C639.75 856.128 786.906 875.05 787.045 899.419Z" fill="#F9FBFC"/>
<path d="M784.388 899.43C784.527 923.698 638.228 944.196 457.615 945.217C277.002 946.238 130.488 927.391 130.35 903.124C130.211 878.856 276.51 858.358 457.123 857.336C637.736 856.315 784.25 875.162 784.388 899.43Z" fill="#F8FAFC"/>
<path d="M456.33 945.047C636.16 944.042 781.831 923.642 781.696 899.483C781.561 875.324 635.671 856.554 455.842 857.559C276.013 858.564 130.342 878.964 130.477 903.123C130.611 927.282 276.501 946.052 456.33 945.047Z" fill="#F8FAFC"/>
<path d="M455.083 944.88C634.126 943.879 779.16 923.568 779.026 899.513C778.891 875.458 633.64 856.769 454.596 857.77C275.553 858.771 130.519 879.082 130.653 903.137C130.787 927.192 276.039 945.881 455.083 944.88Z" fill="#F8FAFC"/>
<path d="M776.439 899.48C776.578 923.433 632.168 943.666 453.911 944.675C275.653 945.683 131.029 927.076 130.891 903.136C130.752 879.184 275.162 858.95 453.419 857.941C631.677 856.933 776.301 875.54 776.439 899.48Z" fill="#F7F9FC"/>
<path d="M773.781 899.494C773.919 923.346 630.152 943.479 452.663 944.487C275.187 945.483 131.192 926.977 131.067 903.125C130.928 879.273 274.695 859.141 452.184 858.132C629.661 857.136 773.655 875.643 773.781 899.494Z" fill="#F7F9FB"/>
<path d="M451.376 944.32C628.075 943.332 771.21 923.286 771.077 899.544C770.945 875.803 627.595 857.357 450.896 858.345C274.198 859.332 131.062 879.379 131.195 903.121C131.327 926.862 274.677 945.308 451.376 944.32Z" fill="#F7F9FB"/>
<path d="M768.477 899.52C768.616 923.157 626.108 943.126 450.194 944.109C274.28 945.105 131.558 926.75 131.432 903.113C131.293 879.475 273.801 859.506 449.715 858.523C625.63 857.527 768.351 875.882 768.477 899.52Z" fill="#F6F9FB"/>
<path d="M765.833 899.53C765.972 923.066 624.094 942.934 448.961 943.93C273.827 944.914 131.748 926.647 131.609 903.11C131.471 879.574 273.349 859.706 448.482 858.71C623.615 857.726 765.695 875.993 765.833 899.53Z" fill="#F6F8FB"/>
<path d="M763.174 899.544C763.3 922.967 622.077 942.759 447.712 943.743C273.36 944.726 131.91 926.535 131.772 903.112C131.646 879.689 272.868 859.896 447.233 858.913C621.586 857.93 763.035 876.121 763.174 899.544Z" fill="#F5F8FB"/>
<path d="M760.53 899.567C760.656 922.889 620.063 942.581 446.492 943.564C272.92 944.547 132.101 926.432 131.975 903.109C131.849 879.787 272.442 860.096 446.013 859.112C619.584 858.129 760.404 876.245 760.53 899.567Z" fill="#F5F8FB"/>
<path d="M757.872 899.583C757.998 922.805 618.035 942.408 445.245 943.391C272.455 944.362 132.277 926.334 132.139 903.126C132.013 879.904 271.976 860.301 444.766 859.33C617.557 858.36 757.734 876.387 757.872 899.596V899.583Z" fill="#F4F8FB"/>
<path d="M443.949 943.214C615.959 942.252 755.296 922.74 755.167 899.632C755.038 876.524 615.492 858.571 443.482 859.533C271.473 860.494 132.136 880.006 132.265 903.114C132.394 926.222 271.94 944.175 443.949 943.214Z" fill="#F4F7FA"/>
<path d="M442.715 943.031C613.939 942.074 752.639 922.65 752.51 899.647C752.382 876.643 613.474 858.771 442.25 859.728C271.027 860.685 132.327 880.109 132.455 903.112C132.583 926.116 271.492 943.988 442.715 943.031Z" fill="#F3F7FA"/>
<path d="M749.922 899.62C750.048 922.526 611.987 941.864 441.54 942.823C271.093 943.781 132.817 926.005 132.691 903.099C132.566 880.193 270.626 860.854 441.074 859.896C611.521 858.938 749.796 876.714 749.922 899.62Z" fill="#F3F7FA"/>
<path d="M747.265 899.634C747.391 922.427 609.96 941.689 440.293 942.648C270.627 943.606 132.994 925.906 132.856 903.113C132.73 880.321 270.161 861.058 439.827 860.1C609.493 859.142 747.126 876.841 747.265 899.634Z" fill="#F2F6FA"/>
<path d="M744.619 899.645C744.745 922.337 607.944 941.499 439.071 942.457C270.186 943.415 133.183 925.791 133.057 903.099C132.931 880.407 269.732 861.245 438.605 860.287C607.49 859.329 744.493 876.953 744.619 899.645Z" fill="#F2F6FA"/>
<path d="M741.961 899.671C742.087 922.262 605.916 941.336 437.824 942.281C269.72 943.227 133.347 925.691 133.221 903.1C133.095 880.509 269.266 861.435 437.358 860.49C605.462 859.544 741.835 877.08 741.961 899.671Z" fill="#F1F6FA"/>
<path d="M739.316 899.681C739.442 922.159 603.913 941.157 436.59 942.09C269.279 943.035 133.536 925.575 133.41 903.098C133.284 880.62 268.813 861.622 436.137 860.689C603.447 859.744 739.19 877.204 739.316 899.681Z" fill="#F1F5F9"/>
<path d="M736.659 899.696C736.785 922.073 601.886 940.97 435.343 941.916C268.814 942.861 133.7 925.477 133.574 903.1C133.448 880.723 268.347 861.826 434.89 860.881C601.42 859.935 736.533 877.32 736.659 899.696Z" fill="#F0F5F9"/>
<path d="M734.013 899.71C734.139 921.985 599.87 940.794 434.121 941.727C268.372 942.66 133.901 925.364 133.775 903.101C133.65 880.825 267.919 862.016 433.668 861.083C599.416 860.15 733.887 877.446 734.013 899.71Z" fill="#F0F5F9"/>
<path d="M731.356 899.721C731.482 921.883 597.842 940.604 432.874 941.537C267.907 942.47 134.066 925.249 133.94 903.087C133.814 880.924 267.453 862.203 432.421 861.271C597.389 860.338 731.23 877.558 731.356 899.721Z" fill="#EFF4F8"/>
<path d="M728.697 899.731C728.823 921.793 595.826 940.425 431.627 941.358C267.44 942.291 134.229 925.158 134.115 903.097C133.989 881.035 266.986 862.403 431.186 861.47C595.372 860.537 728.584 877.669 728.697 899.731Z" fill="#EEF4F8"/>
<path d="M726.052 899.745C726.178 921.706 593.811 940.25 430.405 941.17C266.999 942.091 134.431 925.046 134.305 903.086C134.179 881.125 266.546 862.581 429.952 861.661C593.357 860.74 725.926 877.784 726.052 899.745Z" fill="#EEF4F8"/>
<path d="M723.395 899.759C723.521 921.606 591.783 940.063 429.158 940.983C266.534 941.903 134.595 924.935 134.469 903.087C134.343 881.24 266.08 862.784 428.705 861.864C591.33 860.944 723.269 877.912 723.382 899.759H723.395Z" fill="#EDF3F7"/>
<path d="M720.748 899.785C720.874 921.531 589.766 939.899 427.923 940.807C266.079 941.715 134.782 924.834 134.656 903.088C134.53 881.342 265.638 862.974 427.482 862.066C589.325 861.159 720.622 878.039 720.748 899.785Z" fill="#EDF3F7"/>
<path d="M426.628 940.638C587.687 939.737 718.154 921.466 718.033 899.827C717.912 878.188 587.25 861.376 426.19 862.276C265.131 863.176 134.664 881.448 134.785 903.087C134.906 924.726 265.568 941.538 426.628 940.638Z" fill="#ECF2F7"/>
<path d="M425.393 940.47C585.673 939.574 715.508 921.391 715.388 899.857C715.268 878.322 585.238 861.591 424.957 862.487C264.677 863.383 134.842 881.566 134.962 903.101C135.082 924.635 265.112 941.366 425.393 940.47Z" fill="#EBF2F7"/>
<path d="M712.787 899.821C712.913 921.252 583.707 939.355 424.207 940.25C264.706 941.145 135.312 924.504 135.186 903.073C135.06 881.642 264.265 863.539 423.766 862.644C583.267 861.749 712.661 878.389 712.787 899.821Z" fill="#EBF2F7"/>
<path d="M710.142 899.835C710.268 921.165 581.692 939.167 422.973 940.075C264.253 940.97 135.488 924.405 135.375 903.087C135.249 881.757 263.825 863.755 422.544 862.847C581.264 861.952 710.029 878.517 710.142 899.835Z" fill="#EAF1F6"/>
<path d="M421.686 939.91C579.622 939.027 707.558 921.109 707.44 899.888C707.321 878.666 579.193 862.179 421.257 863.062C263.321 863.945 135.385 881.863 135.503 903.084C135.622 924.306 263.75 940.793 421.686 939.91Z" fill="#EAF1F6"/>
<path d="M704.839 899.859C704.952 920.975 577.661 938.814 420.504 939.696C263.346 940.579 135.854 924.19 135.74 903.074C135.627 881.958 262.918 864.12 420.075 863.237C577.233 862.355 704.725 878.743 704.839 899.859Z" fill="#EAF1F6"/>
<path d="M702.181 899.882C702.294 920.897 575.634 938.635 419.257 939.517C262.88 940.4 136.03 924.087 135.904 903.072C135.791 882.056 262.452 864.319 418.829 863.437C575.205 862.554 702.055 878.867 702.181 899.882Z" fill="#E9F0F6"/>
<path d="M699.535 899.896C699.649 920.798 573.618 938.46 418.035 939.342C262.451 940.225 136.219 923.988 136.106 903.086C135.992 882.184 262.023 864.522 417.606 863.64C573.189 862.757 699.422 878.995 699.535 899.896Z" fill="#E9F0F5"/>
<path d="M696.878 899.911C696.991 920.711 571.59 938.285 416.788 939.155C261.986 940.025 136.383 923.876 136.27 903.075C136.156 882.274 261.557 864.7 416.359 863.83C571.162 862.961 696.764 879.11 696.878 899.911Z" fill="#E8EFF5"/>
<path d="M694.233 899.921C694.346 920.621 569.588 938.094 415.554 938.963C261.533 939.833 136.572 923.76 136.459 903.072C136.346 882.372 261.104 864.9 415.138 864.03C569.159 863.16 694.12 879.233 694.233 899.921Z" fill="#E7EFF5"/>
<path d="M414.261 938.804C567.508 937.947 691.646 920.563 691.531 899.976C691.416 879.388 567.092 863.393 413.845 864.25C260.598 865.106 136.46 882.49 136.575 903.078C136.69 923.665 261.014 939.661 414.261 938.804Z" fill="#E7EEF5"/>
<path d="M413.025 938.621C565.486 937.769 688.987 920.473 688.873 899.99C688.759 879.507 565.072 863.593 412.611 864.445C260.151 865.297 136.649 882.593 136.764 903.076C136.878 923.559 260.564 939.474 413.025 938.621Z" fill="#E6EEF5"/>
<path d="M686.272 899.96C686.385 920.345 563.516 937.553 411.838 938.41C260.16 939.268 137.102 923.446 136.988 903.061C136.875 882.677 259.744 865.469 411.422 864.611C563.1 863.754 686.159 879.575 686.272 899.96Z" fill="#E5EEF4"/>
<path d="M683.625 899.971C683.739 920.242 561.512 937.374 410.602 938.219C259.705 939.076 137.289 923.331 137.176 903.047C137.062 882.775 259.302 865.643 410.199 864.798C561.096 863.953 683.512 879.687 683.625 899.971Z" fill="#E5EDF4"/>
<path d="M680.969 899.996C681.082 920.167 559.485 937.198 409.369 938.056C259.253 938.9 137.467 923.243 137.354 903.072C137.24 882.902 258.837 865.87 408.953 865.013C559.069 864.168 680.855 879.826 680.969 899.996Z" fill="#E4EDF4"/>
<path d="M678.323 900.011C678.436 920.081 557.469 937.024 408.134 937.869C258.799 938.714 137.643 923.132 137.529 903.062C137.416 882.993 258.383 866.049 407.718 865.205C557.053 864.36 678.209 879.942 678.323 900.011Z" fill="#E3ECF4"/>
<path d="M675.664 900.021C675.778 919.977 555.44 936.845 406.886 937.677C258.332 938.521 137.819 923.015 137.705 903.059C137.592 883.103 257.929 866.235 406.483 865.403C555.037 864.571 675.551 880.065 675.664 900.021Z" fill="#E2ECF4"/>
<path d="M673.019 900.036C673.133 919.891 553.425 936.658 405.665 937.49C257.892 938.322 138.008 922.904 137.895 903.049C137.781 883.193 257.489 866.427 405.249 865.595C553.022 864.763 672.906 880.18 673.019 900.036Z" fill="#E2EBF3"/>
<path d="M670.361 900.046C670.474 919.801 551.409 936.479 404.417 937.311C257.425 938.143 138.184 922.801 138.07 903.059C137.957 883.317 257.022 866.626 404.014 865.794C551.006 864.962 670.247 880.304 670.361 900.046Z" fill="#E1EBF3"/>
<path d="M667.717 900.06C667.83 919.701 549.395 936.292 403.184 937.124C256.973 937.956 138.361 922.689 138.248 903.048C138.135 883.407 256.57 866.817 402.781 865.985C548.992 865.165 667.604 880.419 667.717 900.06Z" fill="#E0EBF3"/>
<path d="M665.059 900.074C665.172 919.615 547.367 936.117 401.936 936.936C256.506 937.756 138.537 922.59 138.424 903.05C138.311 883.509 256.116 867.007 401.546 866.188C546.976 865.369 664.945 880.534 665.059 900.074Z" fill="#E0EAF3"/>
<path d="M400.658 936.776C545.299 935.968 662.466 919.56 662.358 900.128C662.249 880.696 544.906 865.599 400.265 866.407C255.624 867.216 138.457 883.624 138.565 903.056C138.674 922.487 256.017 937.585 400.658 936.776Z" fill="#DFEAF2"/>
<path d="M659.755 900.111C659.868 919.437 543.335 935.762 399.467 936.581C255.612 937.388 138.89 922.387 138.789 903.061C138.676 883.735 255.209 867.409 399.077 866.59C542.932 865.783 659.654 880.785 659.755 900.111Z" fill="#DEE9F2"/>
<path d="M657.109 900.122C657.223 919.347 541.319 935.584 398.232 936.391C255.158 937.198 139.078 922.272 138.965 903.047C138.852 883.821 254.755 867.584 397.842 866.777C540.916 865.97 656.996 880.897 657.109 900.122Z" fill="#DEE9F2"/>
<path d="M396.938 936.228C539.234 935.432 654.502 919.289 654.396 900.17C654.289 881.052 538.848 866.198 396.551 866.993C254.255 867.789 138.987 883.932 139.094 903.051C139.2 922.169 254.641 937.023 396.938 936.228Z" fill="#DDE8F2"/>
<path d="M395.703 936.045C537.22 935.254 651.857 919.199 651.751 900.185C651.644 881.171 536.836 866.398 395.318 867.189C253.801 867.98 139.164 884.035 139.27 903.049C139.376 922.063 254.185 936.836 395.703 936.045Z" fill="#DDE8F1"/>
<path d="M649.149 900.161C649.25 919.071 535.249 935.044 394.518 935.838C253.786 936.632 139.609 921.945 139.508 903.036C139.407 884.126 253.408 868.153 394.14 867.359C534.871 866.565 649.049 881.251 649.149 900.161Z" fill="#DCE7F1"/>
<path d="M646.503 900.175C646.603 918.984 533.245 934.869 393.294 935.65C253.344 936.445 139.809 921.834 139.695 903.037C139.595 884.228 252.953 868.344 392.904 867.562C532.854 866.768 646.389 881.379 646.503 900.175Z" fill="#DBE7F1"/>
<path d="M391.996 935.5C531.169 934.723 643.907 918.932 643.802 900.231C643.698 881.53 530.791 867.001 391.618 867.779C252.445 868.557 139.708 884.347 139.812 903.048C139.916 921.749 252.823 936.278 391.996 935.5Z" fill="#DAE6F1"/>
<path d="M641.2 900.212C641.301 918.806 529.202 934.514 390.813 935.296C252.425 936.077 140.15 921.643 140.049 903.048C139.948 884.453 252.047 868.746 390.436 867.964C528.824 867.182 641.099 881.617 641.2 900.212Z" fill="#DAE6F0"/>
<path d="M638.542 900.223C638.643 918.717 527.174 934.324 389.567 935.105C251.959 935.887 140.326 921.528 140.213 903.034C140.112 884.54 251.581 868.933 389.189 868.152C526.796 867.37 638.429 881.729 638.542 900.223Z" fill="#D9E5F0"/>
<path d="M635.883 900.236C635.984 918.616 525.157 934.148 388.331 934.917C251.504 935.686 140.501 921.415 140.4 903.035C140.3 884.654 251.126 869.123 387.953 868.354C524.779 867.585 635.782 881.856 635.883 900.236Z" fill="#D8E4F0"/>
<path d="M633.239 900.251C633.34 918.531 523.143 933.974 387.098 934.743C251.052 935.512 140.692 921.317 140.578 903.037C140.465 884.758 250.674 869.314 386.72 868.545C522.765 867.776 633.126 881.971 633.239 900.251Z" fill="#D7E3F0"/>
<path d="M630.581 900.262C630.681 918.441 521.114 933.783 385.85 934.552C250.586 935.321 140.855 921.202 140.754 903.023C140.653 884.844 250.22 869.502 385.485 868.733C520.749 867.964 630.48 882.083 630.581 900.25V900.262Z" fill="#D6E3EF"/>
<path d="M627.936 900.275C628.037 918.341 519.099 933.607 384.629 934.364C250.145 935.12 141.044 921.089 140.943 903.024C140.843 884.958 249.78 869.692 384.251 868.935C518.734 868.179 627.835 882.21 627.936 900.275Z" fill="#D6E2EF"/>
<path d="M383.335 934.212C517.033 933.464 625.336 918.297 625.235 900.334C625.135 882.371 516.67 868.415 382.972 869.163C249.274 869.91 140.972 885.077 141.072 903.04C141.172 921.003 249.637 934.959 383.335 934.212Z" fill="#D5E2EF"/>
<path d="M622.631 900.312C622.732 918.176 515.067 933.253 382.146 934.01C249.237 934.766 141.396 920.886 141.295 903.035C141.194 885.172 248.859 870.094 381.781 869.338C514.689 868.582 622.531 882.461 622.631 900.312Z" fill="#D4E1EE"/>
<path d="M619.974 900.327C620.075 918.077 513.04 933.079 380.912 933.822C248.784 934.566 141.585 920.787 141.484 903.024C141.384 885.274 248.419 870.273 380.547 869.529C512.674 868.785 619.873 882.564 619.974 900.327Z" fill="#D3E1EE"/>
<path d="M617.328 900.337C617.429 917.986 511.024 932.887 379.677 933.631C248.33 934.375 141.761 920.671 141.66 903.022C141.559 885.373 247.965 870.472 379.311 869.728C510.658 868.984 617.227 882.688 617.328 900.337Z" fill="#D2E0EE"/>
<path d="M614.672 900.351C614.772 917.899 508.997 932.712 378.431 933.456C247.865 934.187 141.939 920.572 141.838 903.024C141.737 885.475 247.513 870.663 378.078 869.919C508.644 869.188 614.571 882.803 614.672 900.351Z" fill="#D2E0EE"/>
<path d="M612.026 900.361C612.126 917.796 506.993 932.533 377.196 933.264C247.411 933.996 142.115 920.456 142.014 903.021C141.913 885.586 247.046 870.849 376.843 870.118C506.628 869.387 611.925 882.926 612.026 900.361Z" fill="#D1DFED"/>
<path d="M609.368 900.376C609.469 917.711 504.966 932.347 375.962 933.078C246.958 933.809 142.291 920.345 142.203 903.011C142.102 885.677 246.605 871.041 375.609 870.31C504.613 869.578 609.28 883.042 609.368 900.376Z" fill="#D1DFED"/>
<path d="M606.722 900.39C606.823 917.623 502.95 932.171 374.727 932.889C246.504 933.608 142.48 920.232 142.379 903.012C142.278 885.779 246.151 871.231 374.374 870.512C502.597 869.793 606.622 883.169 606.722 900.39Z" fill="#D0DEEC"/>
<path d="M604.064 900.401C604.165 917.521 500.921 931.993 373.479 932.711C246.037 933.43 142.643 920.13 142.555 903.01C142.454 885.891 245.697 871.418 373.139 870.7C500.581 869.981 603.976 883.281 604.064 900.401Z" fill="#CFDEEC"/>
<path d="M601.419 900.427C601.52 917.446 498.919 931.817 372.258 932.536C245.597 933.254 142.845 920.03 142.744 903.024C142.643 886.005 245.244 871.633 371.905 870.915C498.566 870.196 601.318 883.42 601.419 900.427Z" fill="#CEDDEB"/>
<path d="M370.968 932.362C496.846 931.659 598.814 917.379 598.72 900.468C598.626 883.556 496.505 870.417 370.626 871.121C244.748 871.824 142.78 886.104 142.874 903.016C142.968 919.927 245.089 933.066 370.968 932.362Z" fill="#CDDDEB"/>
<path d="M596.117 900.452C596.217 917.257 494.876 931.452 369.777 932.158C244.678 932.864 143.199 919.816 143.098 902.999C142.997 886.194 244.338 871.999 369.437 871.293C494.536 870.587 596.016 883.635 596.117 900.452Z" fill="#CCDCEB"/>
<path d="M593.458 900.462C593.546 917.166 492.847 931.273 368.542 931.979C244.224 932.685 143.374 919.713 143.273 903.009C143.185 886.305 243.884 872.198 368.189 871.492C492.507 870.786 593.357 883.759 593.458 900.462Z" fill="#CBDCEA"/>
<path d="M367.25 931.818C490.784 931.127 590.853 917.112 590.76 900.514C590.667 883.916 490.448 871.02 366.914 871.711C243.38 872.401 143.311 886.416 143.404 903.015C143.497 919.613 243.716 932.508 367.25 931.818Z" fill="#CADBEA"/>
<path d="M366.013 931.635C488.767 930.949 588.205 917.022 588.113 900.528C588.021 884.035 488.434 871.22 365.679 871.906C242.925 872.592 143.487 886.519 143.579 903.013C143.671 919.507 243.258 932.321 366.013 931.635Z" fill="#C9DAEA"/>
<path d="M585.509 900.502C585.597 916.89 486.8 930.732 364.825 931.426C242.851 932.119 143.903 919.386 143.815 902.998C143.726 886.609 242.523 872.767 364.498 872.074C486.473 871.381 585.421 884.113 585.509 900.502Z" fill="#C9DAEA"/>
<path d="M582.852 900.527C582.94 916.814 484.774 930.568 363.592 931.249C242.398 931.93 144.093 919.285 143.992 903.01C143.904 886.723 242.071 872.969 363.252 872.288C484.446 871.607 582.752 884.252 582.852 900.527Z" fill="#C8D9E9"/>
<path d="M362.307 931.075C482.71 930.402 580.243 916.74 580.153 900.559C580.063 884.379 482.383 871.808 361.98 872.481C241.577 873.154 144.044 886.816 144.134 902.996C144.225 919.177 241.904 931.748 362.307 931.075Z" fill="#C7D9E9"/>
<path d="M577.548 900.552C577.636 916.625 480.741 930.203 361.11 930.871C241.49 931.552 144.432 919.059 144.344 902.998C144.256 886.924 241.15 873.347 360.782 872.679C480.401 871.998 577.46 884.491 577.548 900.552Z" fill="#C6D8E9"/>
<path d="M574.902 900.566C574.99 916.539 478.726 930.015 359.887 930.696C241.049 931.364 144.633 918.972 144.545 902.999C144.457 887.027 240.722 873.538 359.56 872.87C478.398 872.201 574.814 884.594 574.902 900.566Z" fill="#C6D8E8"/>
<path d="M572.245 900.577C572.333 916.436 476.698 929.837 358.641 930.505C240.583 931.174 144.797 918.857 144.709 902.985C144.621 887.126 240.256 873.725 358.313 873.057C476.37 872.389 572.156 884.706 572.245 900.577Z" fill="#C5D7E8"/>
<path d="M569.6 900.592C569.688 916.35 474.683 929.662 357.407 930.318C240.13 930.986 144.987 918.745 144.898 902.987C144.81 887.229 239.815 873.916 357.092 873.26C474.368 872.592 569.512 884.833 569.6 900.592Z" fill="#C4D6E8"/>
<path d="M566.941 900.602C567.029 916.259 472.667 929.471 356.171 930.139C239.676 930.795 145.162 918.642 145.074 902.985C144.986 887.327 239.349 874.115 355.844 873.447C472.339 872.792 566.853 884.944 566.941 900.602Z" fill="#C3D6E7"/>
<path d="M354.88 929.969C470.595 929.322 564.329 916.195 564.243 900.648C564.156 885.101 470.281 873.022 354.566 873.669C238.852 874.316 145.117 887.443 145.204 902.99C145.291 918.537 239.166 930.616 354.88 929.969Z" fill="#C2D5E7"/>
<path d="M561.639 900.642C561.727 916.085 468.624 929.133 353.691 929.776C238.758 930.419 145.516 918.43 145.428 902.987C145.34 887.544 238.443 874.496 353.376 873.853C468.309 873.21 561.551 885.199 561.639 900.642Z" fill="#C1D5E7"/>
<path d="M558.994 900.652C559.082 915.994 466.609 928.941 352.457 929.584C238.305 930.227 145.693 918.314 145.617 902.984C145.529 887.642 238.002 874.695 352.154 874.052C466.307 873.409 558.918 885.322 558.994 900.652Z" fill="#C0D4E6"/>
<path d="M556.335 900.667C556.424 915.896 464.593 928.767 351.222 929.41C237.85 930.053 145.881 918.216 145.793 902.987C145.705 887.758 237.536 874.887 350.907 874.244C464.278 873.601 556.247 885.438 556.335 900.667Z" fill="#BFD3E6"/>
<path d="M553.691 900.677C553.779 915.804 462.578 928.575 349.988 929.218C237.397 929.848 146.058 918.111 145.982 902.984C145.894 887.856 237.095 875.085 349.685 874.442C462.276 873.812 553.615 885.549 553.691 900.677Z" fill="#BED3E6"/>
<path d="M551.031 900.692C551.119 915.719 460.548 928.401 348.739 929.031C236.93 929.662 146.233 918 146.145 902.973C146.056 887.946 236.627 875.264 348.437 874.634C460.246 874.003 550.943 885.665 551.031 900.692Z" fill="#BDD2E6"/>
<path d="M548.386 900.702C548.474 915.615 458.533 928.222 347.518 928.84C236.489 929.47 146.422 917.885 146.334 902.971C146.246 888.057 236.187 875.451 347.203 874.833C458.231 874.203 548.298 885.788 548.386 900.702Z" fill="#BCD2E5"/>
<path d="M545.728 900.716C545.816 915.529 456.505 928.035 346.27 928.665C236.023 929.283 146.598 917.785 146.51 902.973C146.422 888.16 235.733 875.654 345.968 875.024C456.215 874.406 545.64 885.903 545.728 900.716Z" fill="#BBD1E5"/>
<path d="M543.084 900.743C543.172 915.455 454.503 927.872 345.037 928.49C235.583 929.108 146.776 917.686 146.688 902.974C146.599 888.262 235.268 875.845 344.735 875.227C454.201 874.609 542.996 886.031 543.084 900.743Z" fill="#BAD0E5"/>
<path d="M540.425 900.753C540.513 915.352 452.474 927.693 343.789 928.298C235.117 928.916 146.939 917.57 146.863 902.972C146.775 888.373 234.814 876.032 343.499 875.426C452.172 874.809 540.35 886.155 540.425 900.753Z" fill="#BAD0E4"/>
<path d="M537.767 900.767C537.842 915.265 450.446 927.506 342.554 928.123C234.662 928.729 147.127 917.471 147.039 902.973C146.951 888.476 234.36 876.235 342.252 875.617C450.143 875.012 537.679 886.27 537.767 900.767Z" fill="#B9CFE4"/>
<path d="M341.266 927.953C448.382 927.354 535.151 915.202 535.071 900.811C534.99 886.42 448.091 875.239 340.975 875.838C233.86 876.437 147.09 888.588 147.171 902.979C147.251 917.37 234.151 928.551 341.266 927.953Z" fill="#B8CFE4"/>
<path d="M532.464 900.793C532.54 915.076 446.416 927.153 340.073 927.745C233.744 928.351 147.481 917.257 147.393 902.961C147.317 888.678 233.441 876.601 339.784 876.008C446.113 875.403 532.376 886.497 532.464 900.793Z" fill="#B7CEE3"/>
<path d="M529.819 900.806C529.894 914.988 444.4 926.965 338.851 927.557C233.302 928.15 147.669 917.144 147.594 902.962C147.518 888.779 233.013 876.803 338.561 876.21C444.11 875.618 529.743 886.623 529.819 900.806Z" fill="#B6CDE3"/>
<path d="M527.161 900.817C527.237 914.899 442.372 926.787 337.604 927.379C232.837 927.972 147.833 917.042 147.758 902.96C147.682 888.879 232.547 876.991 337.315 876.398C442.082 875.805 527.085 886.735 527.161 900.817Z" fill="#B5CDE3"/>
<path d="M524.516 900.831C524.592 914.799 440.357 926.599 336.37 927.192C232.384 927.784 148.023 916.93 147.947 902.962C147.872 888.994 232.107 877.194 336.093 876.601C440.08 876.009 524.441 886.863 524.516 900.831Z" fill="#B4CCE2"/>
<path d="M521.858 900.853C521.933 914.72 438.341 926.432 335.135 927.012C231.93 927.592 148.199 916.826 148.123 902.958C148.048 889.091 231.64 877.38 334.846 876.8C438.051 876.22 521.782 886.986 521.858 900.853Z" fill="#B3CBE2"/>
<path d="M519.213 900.867C519.288 914.634 436.326 926.257 333.901 926.837C231.477 927.417 148.388 916.726 148.313 902.973C148.237 889.206 231.2 877.583 333.624 877.003C436.049 876.423 519.137 887.113 519.213 900.867Z" fill="#B2CBE2"/>
<path d="M332.617 926.652C434.258 926.084 516.592 914.555 516.515 900.902C516.439 887.249 433.982 876.642 332.341 877.21C230.701 877.778 148.366 889.306 148.443 902.959C148.519 916.613 230.977 927.22 332.617 926.652Z" fill="#B1CAE1"/>
<path d="M513.908 900.893C513.984 914.445 432.281 925.891 331.419 926.459C230.556 927.026 148.74 916.5 148.664 902.947C148.589 889.395 230.291 877.949 331.141 877.381C432.004 876.814 513.82 887.341 513.896 900.893H513.908Z" fill="#B0CAE1"/>
<path d="M511.252 900.906C511.327 914.357 430.254 925.716 330.185 926.27C230.116 926.825 148.917 916.399 148.842 902.948C148.766 889.497 229.839 878.138 329.908 877.584C429.977 877.029 511.176 887.455 511.252 900.906Z" fill="#AFC9E0"/>
<path d="M508.606 900.917C508.682 914.255 428.251 925.525 328.95 926.092C229.65 926.647 149.093 916.297 149.018 902.947C148.942 889.609 229.373 878.339 328.673 877.771C427.974 877.217 508.53 887.567 508.606 900.917Z" fill="#AEC8DF"/>
<path d="M505.947 900.931C506.023 914.168 426.222 925.35 327.703 925.905C229.183 926.46 149.269 916.185 149.193 902.948C149.118 889.711 228.919 878.529 327.438 877.975C425.958 877.42 505.872 887.694 505.947 900.931Z" fill="#AEC8DF"/>
<path d="M503.303 900.954C503.378 914.09 424.207 925.171 326.481 925.726C228.755 926.281 149.458 916.082 149.383 902.946C149.307 889.81 228.478 878.729 326.204 878.174C423.93 877.619 503.227 887.818 503.303 900.954Z" fill="#ADC7DF"/>
<path d="M500.644 900.968C500.72 913.991 422.179 924.996 325.234 925.551C228.289 926.093 149.634 915.983 149.559 902.96C149.483 889.937 228.024 878.932 324.969 878.377C421.914 877.823 500.569 887.946 500.644 900.968Z" fill="#ACC6DE"/>
<path d="M498 900.982C498.076 913.904 420.177 924.821 324.001 925.364C227.837 925.906 149.812 915.871 149.736 902.949C149.661 890.027 227.559 879.11 323.736 878.568C419.9 878.026 497.925 888.061 498 900.982Z" fill="#AAC6DE"/>
<path d="M495.341 900.993C495.416 913.814 418.148 924.63 322.765 925.172C227.382 925.714 149.999 915.755 149.924 902.947C149.848 890.126 227.117 879.309 322.5 878.767C417.883 878.225 495.265 888.184 495.341 900.993Z" fill="#A9C5DE"/>
<path d="M492.697 901.007C492.772 913.714 416.133 924.455 321.532 924.985C226.93 925.514 150.177 915.643 150.102 902.936C150.026 890.228 226.665 879.487 321.267 878.958C415.869 878.428 492.621 888.299 492.697 901.007Z" fill="#A8C4DD"/>
<path d="M490.038 901.017C490.114 913.624 414.105 924.276 320.284 924.806C226.463 925.335 150.34 915.552 150.277 902.946C150.202 890.339 226.211 879.687 320.032 879.157C413.853 878.628 489.975 888.423 490.038 901.017Z" fill="#A7C4DD"/>
<path d="M487.392 901.032C487.468 913.538 412.101 924.09 319.049 924.619C226.009 925.149 150.529 915.441 150.453 902.936C150.378 890.43 225.744 879.878 318.797 879.349C411.837 878.819 487.317 888.526 487.392 901.032Z" fill="#A6C3DC"/>
<path d="M484.735 901.042C484.811 913.435 410.074 923.911 317.815 924.428C225.556 924.944 150.706 915.326 150.643 902.921C150.567 890.528 225.304 880.052 317.563 879.536C409.822 879.019 484.672 888.637 484.735 901.042Z" fill="#A5C2DC"/>
<path d="M482.089 901.068C482.152 913.36 408.058 923.735 316.58 924.252C225.102 924.769 150.894 915.225 150.818 902.934C150.755 890.643 224.85 880.267 316.328 879.751C407.806 879.234 482.014 888.777 482.089 901.068Z" fill="#A5C2DC"/>
<path d="M479.433 901.083C479.496 913.274 406.031 923.561 315.334 924.078C224.637 924.595 151.059 915.127 150.996 902.936C150.933 890.746 224.398 880.459 315.095 879.942C405.792 879.425 479.37 888.893 479.433 901.083Z" fill="#A4C1DB"/>
<path d="M476.786 901.093C476.849 913.17 404.014 923.381 314.111 923.885C224.207 924.39 151.259 915.01 151.184 902.933C151.121 890.856 223.955 880.645 313.859 880.141C403.762 879.636 476.71 889.016 476.786 901.093Z" fill="#A3C0DB"/>
<path d="M474.129 901.108C474.192 913.084 402 923.195 312.865 923.699C223.73 924.203 151.424 914.899 151.361 902.923C151.298 890.947 223.491 880.836 312.626 880.332C401.761 879.828 474.066 889.131 474.129 901.108Z" fill="#A1C0DB"/>
<path d="M471.483 901.118C471.546 912.993 399.984 923.016 311.63 923.52C223.276 924.024 151.6 914.796 151.537 902.933C151.474 891.058 223.037 881.036 311.391 880.531C399.745 880.027 471.42 889.255 471.483 901.118Z" fill="#A0BFDA"/>
<path d="M468.826 901.132C468.889 912.894 397.956 922.841 310.396 923.332C222.823 923.824 151.79 914.684 151.727 902.922C151.664 891.16 222.596 881.214 310.157 880.722C397.73 880.23 468.763 889.37 468.826 901.132Z" fill="#9FBEDA"/>
<path d="M466.18 901.146C466.243 912.807 395.94 922.653 309.161 923.145C222.369 923.636 151.965 914.585 151.902 902.924C151.839 891.263 222.142 881.417 308.922 880.925C395.714 880.434 466.117 889.485 466.18 901.146Z" fill="#9EBDDA"/>
<path d="M307.869 922.983C393.87 922.502 463.536 912.743 463.471 901.186C463.407 889.628 393.637 880.649 307.635 881.13C221.634 881.61 151.968 891.369 152.033 902.927C152.097 914.484 221.867 923.464 307.869 922.983Z" fill="#9DBDD9"/>
<path d="M460.876 901.182C460.939 912.629 391.908 922.311 306.678 922.79C221.461 923.269 152.317 914.382 152.254 902.935C152.191 891.488 221.221 881.819 306.451 881.327C391.669 880.848 460.813 889.736 460.876 901.182Z" fill="#9CBCD9"/>
<path d="M458.219 901.194C458.282 912.54 389.881 922.121 305.445 922.6C221.009 923.079 152.495 914.267 152.432 902.921C152.369 891.575 220.769 881.994 305.206 881.515C389.642 881.036 458.156 889.848 458.219 901.194Z" fill="#9BBBD8"/>
<path d="M455.574 901.208C455.637 912.453 387.866 921.946 304.211 922.412C220.556 922.878 152.684 914.155 152.621 902.91C152.558 891.665 220.329 882.172 303.984 881.705C387.64 881.239 455.511 889.963 455.574 901.208Z" fill="#9ABBD8"/>
<path d="M452.915 901.222C452.978 912.354 385.849 921.758 302.962 922.224C220.088 922.691 152.846 914.043 152.783 902.911C152.72 891.78 219.849 882.375 302.736 881.909C385.61 881.442 452.852 890.09 452.915 901.222Z" fill="#99BAD8"/>
<path d="M450.271 901.233C450.334 912.264 383.835 921.58 301.742 922.047C219.649 922.513 153.049 913.94 152.986 902.91C152.923 891.879 219.422 882.563 301.515 882.096C383.609 881.63 450.208 890.202 450.271 901.233Z" fill="#98B9D7"/>
<path d="M447.611 901.246C447.674 912.176 381.806 921.404 300.493 921.858C219.181 922.312 153.211 913.828 153.148 902.91C153.085 891.98 218.954 882.752 300.267 882.299C381.579 881.845 447.548 890.329 447.611 901.246Z" fill="#97B8D7"/>
<path d="M444.955 901.257C445.018 912.074 379.779 921.214 299.248 921.668C218.716 922.121 153.389 913.725 153.326 902.896C153.263 892.08 218.502 882.94 299.033 882.486C379.565 882.032 444.892 890.428 444.955 901.257Z" fill="#96B8D7"/>
<path d="M442.308 901.283C442.371 911.999 377.762 921.051 298.024 921.504C218.274 921.958 153.577 913.638 153.514 902.922C153.451 892.207 218.06 883.155 297.798 882.701C377.548 882.247 442.245 890.568 442.308 901.283Z" fill="#95B7D6"/>
<path d="M439.651 901.298C439.714 911.912 375.748 920.876 296.779 921.317C217.809 921.758 153.742 913.526 153.691 902.911C153.628 892.296 217.595 883.333 296.564 882.892C375.534 882.451 439.601 890.683 439.651 901.298Z" fill="#93B6D6"/>
<path d="M437.006 901.308C437.069 911.809 373.732 920.684 295.543 921.125C217.355 921.567 153.93 913.41 153.867 902.909C153.804 892.408 217.141 883.533 295.329 883.091C373.518 882.65 436.943 890.807 437.006 901.308Z" fill="#93B6D5"/>
<path d="M294.255 920.967C371.657 920.534 434.357 911.751 434.299 901.349C434.241 890.948 371.447 882.866 294.044 883.299C216.642 883.731 153.942 892.514 154 902.916C154.058 913.318 216.852 921.399 294.255 920.967Z" fill="#92B5D5"/>
<path d="M431.702 901.332C431.765 911.632 369.688 920.318 293.074 920.759C216.448 921.188 154.295 913.195 154.232 902.908C154.169 892.608 216.247 883.923 292.86 883.481C369.487 883.053 431.639 891.045 431.702 901.332Z" fill="#91B4D5"/>
<path d="M429.044 901.347C429.107 911.533 367.672 920.144 291.827 920.572C215.981 921.001 154.459 913.084 154.408 902.898C154.345 892.712 215.78 884.101 291.625 883.673C367.471 883.244 428.993 891.161 429.044 901.347Z" fill="#90B3D4"/>
<path d="M426.4 901.358C426.463 911.443 365.658 919.965 290.594 920.381C215.529 920.81 154.649 912.968 154.586 902.883C154.523 892.798 215.328 884.276 290.392 883.86C365.456 883.444 426.337 891.272 426.4 901.358Z" fill="#8EB3D4"/>
<path d="M423.741 901.383C423.792 911.368 363.629 919.789 289.359 920.218C215.088 920.634 154.825 912.893 154.762 902.909C154.711 892.924 214.874 884.503 289.144 884.075C363.415 883.659 423.678 891.399 423.741 901.383Z" fill="#8DB2D4"/>
<path d="M421.096 901.399C421.147 911.27 361.614 919.615 288.125 920.031C214.635 920.447 155.002 912.782 154.951 902.899C154.901 893.028 214.433 884.682 287.923 884.266C361.413 883.85 421.046 891.515 421.096 901.399Z" fill="#8CB1D3"/>
<path d="M418.439 901.409C418.489 911.179 359.599 919.436 286.878 919.84C214.169 920.256 155.178 912.666 155.115 902.896C155.065 893.126 213.955 884.869 286.676 884.466C359.385 884.05 418.376 891.639 418.439 901.409Z" fill="#8BB0D2"/>
<path d="M415.793 901.423C415.844 911.092 357.583 919.249 285.656 919.652C213.728 920.055 155.367 912.555 155.316 902.885C155.266 893.216 213.526 885.06 285.454 884.656C357.382 884.253 415.743 891.754 415.793 901.423Z" fill="#8AB0D2"/>
<path d="M413.135 901.433C413.186 910.989 355.556 919.07 284.409 919.473C213.262 919.877 155.543 912.451 155.481 902.896C155.43 893.34 213.06 885.259 284.207 884.856C355.354 884.452 413.073 891.877 413.135 901.433Z" fill="#89AFD1"/>
<path d="M410.489 901.448C410.539 910.903 353.539 918.883 283.173 919.287C212.807 919.677 155.718 912.34 155.668 902.885C155.618 893.431 212.618 885.451 282.984 885.047C353.35 884.644 410.438 891.993 410.489 901.448Z" fill="#88AED1"/>
<path d="M407.831 901.461C407.882 910.816 351.511 918.707 281.926 919.098C212.341 919.489 155.882 912.228 155.832 902.886C155.782 893.532 212.152 885.64 281.737 885.249C351.322 884.859 407.781 892.12 407.831 901.461Z" fill="#87ADD0"/>
<path d="M405.185 901.472C405.236 910.712 349.508 918.528 280.704 918.907C211.9 919.297 156.084 912.112 156.033 902.871C155.983 893.63 211.711 885.814 280.515 885.436C349.319 885.058 405.135 892.231 405.185 901.472Z" fill="#86ADD0"/>
<path d="M402.528 901.498C402.578 910.637 347.48 918.353 279.457 918.743C211.434 919.122 156.248 912.024 156.197 902.897C156.147 893.757 211.245 886.042 279.268 885.651C347.291 885.273 402.477 892.37 402.528 901.498Z" fill="#84ACCF"/>
<path d="M278.181 918.573C345.419 918.197 399.886 910.567 399.836 901.53C399.785 892.492 345.237 885.471 277.998 885.847C210.76 886.223 156.293 893.853 156.343 902.89C156.394 911.928 210.942 918.949 278.181 918.573Z" fill="#83ABCF"/>
<path d="M397.224 901.524C397.275 910.449 343.436 918.001 276.988 918.366C210.527 918.744 156.613 911.811 156.563 902.873C156.512 893.947 210.351 886.396 276.799 886.03C343.26 885.652 397.174 892.586 397.224 901.524Z" fill="#82AACF"/>
<path d="M394.58 901.537C394.63 910.362 341.434 917.812 275.754 918.19C210.074 918.556 156.802 911.711 156.752 902.886C156.702 894.061 209.898 886.611 275.578 886.233C341.257 885.867 394.529 892.713 394.58 901.537Z" fill="#81AACE"/>
<path d="M391.922 901.548C391.972 910.272 339.406 917.634 274.507 918C209.608 918.365 156.966 911.596 156.916 902.872C156.866 894.148 209.432 886.786 274.331 886.42C339.23 886.055 391.872 892.825 391.922 901.548Z" fill="#80A9CE"/>
<path d="M389.276 901.563C389.327 910.173 337.39 917.447 273.285 917.812C209.167 918.178 157.155 911.484 157.117 902.874C157.067 894.263 209.003 886.989 273.109 886.624C337.226 886.258 389.238 892.952 389.276 901.563Z" fill="#80A8CD"/>
<path d="M386.619 901.573C386.669 910.082 335.362 917.268 272.038 917.621C208.714 917.974 157.332 911.368 157.281 902.859C157.231 894.349 208.538 887.163 271.862 886.81C335.186 886.457 386.568 893.063 386.619 901.573Z" fill="#7FA7CD"/>
<path d="M383.974 901.599C384.024 910.007 333.36 917.105 270.804 917.458C208.261 917.811 157.509 911.28 157.471 902.884C157.42 894.476 208.085 887.378 270.64 887.025C333.184 886.672 383.936 893.203 383.974 901.599Z" fill="#7EA6CD"/>
<path d="M381.314 901.61C381.365 909.905 331.33 916.914 269.555 917.267C207.793 917.62 157.683 911.166 157.633 902.87C157.582 894.575 207.617 887.566 269.392 887.213C331.154 886.86 381.264 893.315 381.314 901.61Z" fill="#7CA6CC"/>
<path d="M378.669 901.623C378.72 909.817 329.315 916.738 268.334 917.079C207.353 917.419 157.873 911.065 157.822 902.871C157.772 894.677 207.177 887.756 268.158 887.415C329.139 887.075 378.619 893.429 378.669 901.623Z" fill="#7BA5CC"/>
<path d="M376.011 901.638C376.061 909.732 327.287 916.564 267.086 916.905C206.886 917.245 158.048 910.967 157.998 902.874C157.948 894.78 206.723 887.947 266.923 887.607C327.123 887.267 375.961 893.545 376.011 901.638Z" fill="#7AA4CB"/>
<path d="M373.367 901.648C373.417 909.628 325.272 916.373 265.853 916.713C206.434 917.054 158.226 910.851 158.176 902.871C158.125 894.891 206.27 888.147 265.69 887.806C325.109 887.466 373.317 893.668 373.367 901.661V901.648Z" fill="#79A2CB"/>
<path d="M370.71 901.662C370.76 909.542 323.257 916.198 264.619 916.526C205.981 916.853 158.403 910.739 158.365 902.86C158.315 894.981 205.817 888.325 264.456 887.997C323.094 887.669 370.672 893.783 370.71 901.662Z" fill="#78A2CA"/>
<path d="M368.064 901.674C368.101 909.452 321.241 916.007 263.384 916.335C205.527 916.663 158.591 910.624 158.541 902.846C158.503 895.068 205.363 888.512 263.22 888.185C321.078 887.857 368.013 893.895 368.064 901.674Z" fill="#77A1CA"/>
<path d="M365.405 901.688C365.443 909.353 319.213 915.832 262.137 916.16C205.06 916.488 158.755 910.525 158.717 902.86C158.679 895.195 204.909 888.716 261.985 888.388C319.062 888.06 365.367 894.023 365.405 901.688Z" fill="#75A0CA"/>
<path d="M362.759 901.714C362.797 909.278 317.197 915.669 260.901 915.984C204.606 916.3 158.943 910.425 158.893 902.861C158.855 895.297 204.455 888.905 260.738 888.59C317.033 888.275 362.696 894.15 362.747 901.714H362.759Z" fill="#749FC9"/>
<path d="M360.102 901.724C360.14 909.187 315.182 915.478 259.668 915.793C204.153 916.108 159.12 910.309 159.082 902.859C159.044 895.395 204.002 889.105 259.516 888.79C315.03 888.474 360.064 894.273 360.102 901.724Z" fill="#739EC9"/>
<path d="M357.456 901.738C357.494 909.088 313.166 915.303 258.432 915.618C203.699 915.933 159.308 910.222 159.258 902.86C159.22 895.51 203.548 889.295 258.281 888.98C313.014 888.678 357.418 894.376 357.456 901.738Z" fill="#739EC8"/>
<path d="M354.799 901.748C354.837 908.997 311.139 915.124 257.187 915.427C203.235 915.729 159.473 910.107 159.436 902.858C159.398 895.609 203.096 889.482 257.048 889.18C311 888.877 354.762 894.5 354.799 901.748Z" fill="#719DC8"/>
<path d="M352.141 901.763C352.179 908.911 309.11 914.937 255.952 915.24C202.781 915.542 159.649 909.996 159.611 902.848C159.574 895.7 202.642 889.674 255.801 889.371C308.972 889.069 352.103 894.616 352.141 901.763Z" fill="#709CC7"/>
<path d="M349.496 901.777C349.534 908.811 307.108 914.761 254.718 915.051C202.328 915.341 159.839 909.883 159.801 902.848C159.763 895.814 202.189 889.863 254.579 889.574C306.969 889.284 349.458 894.742 349.496 901.777Z" fill="#6F9BC7"/>
<path d="M253.421 914.891C305.02 914.602 346.818 908.747 346.78 901.812C346.741 894.878 304.88 889.49 253.281 889.779C201.681 890.067 159.883 895.922 159.922 902.857C159.96 909.791 201.821 915.179 253.421 914.891Z" fill="#6D9AC7"/>
<path d="M344.193 901.802C344.231 908.635 303.064 914.396 252.249 914.686C201.433 914.976 160.204 909.669 160.166 902.848C160.128 896.016 201.295 890.254 252.11 889.964C302.926 889.675 344.155 894.982 344.193 901.802Z" fill="#6C99C6"/>
<path d="M341.535 901.824C341.573 908.543 301.036 914.229 251.002 914.506C200.967 914.784 160.368 909.564 160.33 902.845C160.292 896.126 200.829 890.44 250.863 890.163C300.898 889.886 341.497 895.105 341.535 901.824Z" fill="#6C99C6"/>
<path d="M338.889 901.839C338.927 908.458 299.02 914.042 249.767 914.32C200.513 914.597 160.544 909.453 160.506 902.835C160.468 896.216 200.375 890.632 249.628 890.354C298.882 890.077 338.851 895.221 338.889 901.839Z" fill="#6A98C5"/>
<path d="M336.231 901.849C336.269 908.367 297.004 913.863 248.519 914.141C200.047 914.418 160.719 909.35 160.682 902.845C160.644 896.328 199.908 890.831 248.393 890.554C296.878 890.276 336.193 895.344 336.231 901.849Z" fill="#6997C5"/>
<path d="M333.586 901.864C333.624 908.268 294.989 913.688 247.298 913.953C199.606 914.218 160.909 909.251 160.871 902.834C160.833 896.43 199.468 891.009 247.159 890.744C294.851 890.48 333.548 895.447 333.586 901.864Z" fill="#6796C4"/>
<path d="M330.927 901.878C330.965 908.181 292.961 913.501 246.05 913.766C199.14 914.03 161.085 909.139 161.047 902.836C161.009 896.532 199.014 891.212 245.924 890.948C292.835 890.683 330.89 895.574 330.927 901.878Z" fill="#6695C4"/>
<path d="M328.283 901.889C328.321 908.091 290.947 913.323 244.817 913.588C198.688 913.852 161.262 909.037 161.225 902.834C161.187 896.632 198.562 891.4 244.691 891.135C290.821 890.871 328.246 895.686 328.283 901.889Z" fill="#6594C4"/>
<path d="M325.624 901.902C325.662 907.991 288.93 913.147 243.581 913.399C198.233 913.651 161.45 908.924 161.412 902.835C161.374 896.746 198.107 891.59 243.455 891.338C288.804 891.086 325.586 895.813 325.624 901.902Z" fill="#6494C3"/>
<path d="M322.98 901.925C323.018 907.913 286.915 912.968 242.348 913.22C197.78 913.473 161.628 908.821 161.59 902.833C161.552 896.844 197.655 891.789 242.222 891.537C286.789 891.285 322.942 895.937 322.98 901.925Z" fill="#6393C3"/>
<path d="M320.322 901.939C320.359 907.826 284.887 912.793 241.1 913.033C197.314 913.285 161.791 908.709 161.766 902.834C161.728 896.947 197.2 891.98 240.987 891.74C284.773 891.488 320.296 896.065 320.322 901.939Z" fill="#6292C2"/>
<path d="M317.677 901.953C317.715 907.727 282.872 912.606 239.879 912.858C196.873 913.097 161.993 908.61 161.955 902.836C161.917 897.062 196.76 892.183 239.753 891.931C282.758 891.692 317.639 896.179 317.677 901.953Z" fill="#6191C2"/>
<path d="M315.018 901.964C315.056 907.637 280.856 912.428 238.631 912.667C196.407 912.907 162.156 908.495 162.131 902.822C162.093 897.149 196.293 892.358 238.518 892.119C280.742 891.879 314.993 896.291 315.018 901.964Z" fill="#6090C1"/>
<path d="M312.372 901.979C312.398 907.551 278.84 912.253 237.396 912.48C195.953 912.719 162.344 908.395 162.307 902.823C162.281 897.251 195.839 892.549 237.283 892.322C278.726 892.082 312.335 896.406 312.372 901.979Z" fill="#5F8FC0"/>
<path d="M309.716 901.989C309.741 907.448 276.813 912.062 236.15 912.301C195.488 912.528 162.51 908.292 162.484 902.821C162.459 897.362 195.387 892.748 236.05 892.509C276.712 892.282 309.691 896.518 309.716 901.989Z" fill="#5D8FC0"/>
<path d="M307.069 902.003C307.094 907.361 274.796 911.887 234.927 912.114C195.058 912.34 162.697 908.18 162.672 902.822C162.647 897.465 194.945 892.939 234.814 892.712C274.683 892.485 307.044 896.645 307.069 902.003Z" fill="#5C8EBF"/>
<path d="M304.413 902.029C304.438 907.286 272.769 911.723 233.681 911.938C194.594 912.152 162.875 908.08 162.85 902.823C162.824 897.566 194.493 893.129 233.581 892.914C272.669 892.7 304.387 896.772 304.413 902.029Z" fill="#5B8DBF"/>
<path d="M301.767 902.039C301.792 907.183 270.766 911.532 232.446 911.746C194.14 911.961 163.051 907.964 163.025 902.821C163 897.677 194.026 893.328 232.346 893.114C270.652 892.899 301.741 896.896 301.767 902.039Z" fill="#5A8CBE"/>
<path d="M231.169 911.574C268.695 911.364 299.092 907.107 299.064 902.067C299.036 897.026 268.593 893.11 231.067 893.319C193.542 893.529 163.144 897.786 163.172 902.826C163.2 907.867 193.643 911.783 231.169 911.574Z" fill="#598BBE"/>
<path d="M296.463 902.064C296.488 907.005 266.722 911.166 229.977 911.38C193.232 911.582 163.416 907.749 163.391 902.82C163.365 897.878 193.132 893.718 229.877 893.504C266.621 893.302 296.438 897.134 296.463 902.064Z" fill="#578ABD"/>
<path d="M293.806 902.079C293.831 906.907 264.694 910.992 228.731 911.193C192.767 911.395 163.592 907.638 163.555 902.81C163.53 897.982 192.666 893.897 228.63 893.695C264.594 893.494 293.768 897.25 293.806 902.079Z" fill="#5689BD"/>
<path d="M291.16 902.089C291.185 906.816 262.691 910.813 227.508 911.002C192.325 911.204 163.781 907.535 163.756 902.808C163.731 898.08 192.225 894.084 227.408 893.895C262.59 893.693 291.135 897.361 291.16 902.089Z" fill="#5589BC"/>
<path d="M288.502 902.103C288.528 906.73 260.663 910.625 226.262 910.827C191.86 911.016 163.945 907.436 163.92 902.809C163.895 898.182 191.759 894.287 226.161 894.085C260.563 893.896 288.477 897.477 288.502 902.103Z" fill="#5488BC"/>
<path d="M285.857 902.117C285.883 906.63 258.648 910.45 225.028 910.639C191.407 910.828 164.135 907.324 164.109 902.811C164.084 898.297 191.318 894.478 224.939 894.289C258.56 894.099 285.832 897.604 285.857 902.13V902.117Z" fill="#5387BB"/>
<path d="M283.198 902.14C283.223 906.552 256.619 910.284 223.779 910.461C190.939 910.65 164.297 907.221 164.272 902.808C164.246 898.396 190.851 894.664 223.691 894.488C256.53 894.299 283.173 897.728 283.198 902.14Z" fill="#5286BB"/>
<path d="M280.554 902.154C280.579 906.466 254.617 910.096 222.558 910.286C190.5 910.462 164.5 907.121 164.475 902.81C164.449 898.498 190.411 894.868 222.47 894.679C254.529 894.502 280.529 897.843 280.554 902.154Z" fill="#5185BA"/>
<path d="M277.895 902.165C277.92 906.363 252.588 909.918 221.31 910.094C190.032 910.271 164.662 907.006 164.637 902.808C164.612 898.61 189.944 895.054 221.222 894.878C252.499 894.701 277.869 897.967 277.895 902.165Z" fill="#4F84BA"/>
<path d="M275.25 902.18C275.275 906.277 250.573 909.731 220.076 909.907C189.579 910.084 164.851 906.894 164.826 902.797C164.801 898.7 189.503 895.246 220 895.069C250.497 894.893 275.225 898.082 275.25 902.18Z" fill="#4E83BA"/>
<path d="M272.591 902.193C272.616 906.189 248.544 909.555 218.841 909.719C189.125 909.883 165.027 906.782 165.002 902.798C164.977 898.802 189.049 895.436 218.753 895.272C248.468 895.108 272.566 898.209 272.591 902.193Z" fill="#4D82B9"/>
<path d="M217.553 909.545C246.48 909.384 269.912 906.103 269.89 902.218C269.869 898.333 246.401 895.315 217.474 895.477C188.547 895.638 165.115 898.919 165.137 902.804C165.159 906.689 188.626 909.707 217.553 909.545Z" fill="#4C81B9"/>
<path d="M267.289 902.218C267.314 906 244.514 909.19 216.36 909.354C188.219 909.517 165.381 906.58 165.355 902.798C165.33 899.016 188.13 895.827 216.284 895.663C244.426 895.499 267.264 898.436 267.289 902.218Z" fill="#4B81B8"/>
<path d="M264.643 902.24C264.668 905.921 242.498 909.023 215.138 909.174C187.777 909.325 165.569 906.476 165.557 902.795C165.531 899.114 187.702 896.013 215.062 895.861C242.422 895.71 264.631 898.559 264.643 902.24Z" fill="#4A80B8"/>
<path d="M261.985 902.254C262.011 905.822 240.47 908.848 213.891 908.999C187.312 909.15 165.746 906.377 165.721 902.809C165.696 899.241 187.236 896.216 213.815 896.064C240.395 895.913 261.96 898.687 261.985 902.254Z" fill="#4980B7"/>
<path d="M259.341 902.266C259.366 905.732 238.455 908.657 212.657 908.808C186.859 908.96 165.923 906.262 165.91 902.795C165.885 899.328 186.796 896.403 212.594 896.252C238.392 896.101 259.328 898.799 259.341 902.266Z" fill="#487FB7"/>
<path d="M256.683 902.28C256.696 905.646 236.44 908.482 211.41 908.621C186.393 908.759 166.099 906.15 166.074 902.784C166.049 899.418 186.317 896.581 211.347 896.443C236.364 896.304 256.67 898.914 256.683 902.28Z" fill="#467EB6"/>
<path d="M254.025 902.294C254.037 905.546 234.411 908.307 210.175 908.433C185.939 908.572 166.275 906.038 166.25 902.785C166.237 899.533 185.863 896.772 210.099 896.646C234.336 896.507 253.999 899.041 254.025 902.294Z" fill="#457DB6"/>
<path d="M251.38 902.305C251.392 905.457 232.396 908.117 208.941 908.255C185.486 908.394 166.452 905.936 166.439 902.784C166.427 899.632 185.423 896.972 208.878 896.834C232.333 896.695 251.367 899.153 251.38 902.305Z" fill="#447CB5"/>
<path d="M248.722 902.318C248.735 905.369 230.369 907.941 207.694 908.067C185.02 908.193 166.629 905.835 166.604 902.785C166.591 899.734 184.957 897.162 207.631 897.036C230.306 896.91 248.697 899.267 248.722 902.318Z" fill="#437BB5"/>
<path d="M246.076 902.329C246.089 905.267 228.365 907.75 206.472 907.876C184.579 908.002 166.817 905.721 166.805 902.771C166.792 899.821 184.516 897.35 206.409 897.224C228.302 897.098 246.064 899.379 246.076 902.329Z" fill="#427AB4"/>
<path d="M243.419 902.354C243.431 905.191 226.337 907.586 205.225 907.7C184.113 907.813 166.994 905.619 166.969 902.783C166.956 899.947 184.05 897.551 205.162 897.438C226.274 897.324 243.394 899.518 243.419 902.354Z" fill="#4179B4"/>
<path d="M240.772 902.369C240.785 905.105 224.321 907.412 203.989 907.525C183.658 907.639 167.169 905.521 167.156 902.785C167.144 900.05 183.608 897.743 203.939 897.629C224.27 897.516 240.759 899.634 240.772 902.369Z" fill="#4079B3"/>
<path d="M238.115 902.38C238.128 905.002 222.294 907.221 202.756 907.334C183.206 907.448 167.347 905.405 167.334 902.783C167.321 900.161 183.156 897.942 202.693 897.829C222.243 897.715 238.103 899.758 238.115 902.38Z" fill="#3F78B3"/>
<path d="M235.469 902.394C235.481 904.915 220.277 907.046 201.52 907.147C182.751 907.247 167.534 905.293 167.521 902.772C167.509 900.251 182.713 898.12 201.47 898.019C220.239 897.919 235.456 899.872 235.469 902.394Z" fill="#3E77B2"/>
<path d="M232.811 902.404C232.824 904.825 218.262 906.867 200.273 906.968C182.285 907.069 167.698 905.19 167.686 902.782C167.673 900.362 182.235 898.32 200.223 898.219C218.211 898.118 232.798 899.996 232.811 902.404Z" fill="#3D76B2"/>
<path d="M230.166 902.419C230.179 904.726 216.247 906.68 199.039 906.781C181.845 906.882 167.888 905.079 167.875 902.772C167.862 900.465 181.794 898.511 199.002 898.41C216.196 898.309 230.154 900.112 230.166 902.419Z" fill="#3C75B1"/>
<path d="M227.508 902.429C227.508 904.636 214.218 906.501 197.804 906.59C181.391 906.678 168.063 904.963 168.051 902.757C168.051 900.551 181.34 898.685 197.754 898.597C214.168 898.509 227.495 900.223 227.508 902.429Z" fill="#3B74B1"/>
<path d="M224.863 902.444C224.863 904.549 212.203 906.314 196.57 906.402C180.938 906.49 168.253 904.864 168.24 902.759C168.24 900.653 180.9 898.889 196.533 898.8C212.165 898.712 224.85 900.338 224.863 902.444Z" fill="#3A73B0"/>
<path d="M222.205 902.466C222.205 904.458 210.188 906.148 195.324 906.236C180.472 906.324 168.417 904.773 168.404 902.769C168.404 900.777 180.422 899.088 195.286 899C210.138 898.911 222.193 900.462 222.205 902.466Z" fill="#3972B0"/>
<path d="M219.56 902.48C219.56 904.371 208.172 905.972 194.101 906.047C180.031 906.123 168.605 904.661 168.605 902.77C168.605 900.879 179.993 899.278 194.064 899.202C208.134 899.126 219.56 900.589 219.56 902.48Z" fill="#3871B0"/>
<path d="M216.902 902.495C216.902 904.285 206.144 905.785 192.855 905.861C179.565 905.936 168.782 904.55 168.77 902.76C168.77 900.969 179.527 899.469 192.817 899.394C206.106 899.318 216.889 900.705 216.902 902.495Z" fill="#3770AF"/>
<path d="M214.257 902.505C214.257 904.182 204.129 905.606 191.621 905.682C179.112 905.758 168.959 904.446 168.959 902.77C168.959 901.093 179.087 899.669 191.595 899.593C204.104 899.517 214.257 900.828 214.27 902.505H214.257Z" fill="#366FAF"/>
<path d="M211.599 902.519C211.599 904.095 202.113 905.431 190.386 905.494C178.658 905.557 169.147 904.335 169.135 902.759C169.135 901.183 178.62 899.847 190.348 899.784C202.075 899.721 211.586 900.943 211.599 902.519Z" fill="#356EAE"/>
<path d="M208.953 902.533C208.953 904.008 200.097 905.244 189.151 905.307C178.204 905.37 169.323 904.223 169.311 902.76C169.311 901.285 178.166 900.05 189.113 899.987C200.059 899.924 208.94 901.071 208.953 902.533Z" fill="#346DAE"/>
<path d="M206.296 902.545C206.296 903.906 198.07 905.066 187.905 905.116C177.739 905.179 169.501 904.108 169.488 902.746C169.488 901.385 177.714 900.225 187.88 900.175C198.045 900.111 206.284 901.183 206.296 902.545Z" fill="#336CAD"/>
<path d="M203.65 902.57C203.65 903.83 196.054 904.889 186.67 904.952C177.285 905.003 169.677 904.032 169.664 902.771C169.664 901.511 177.26 900.452 186.645 900.389C196.029 900.338 203.638 901.309 203.65 902.57Z" fill="#326CAD"/>
<path d="M200.993 902.581C200.993 903.741 194.027 904.711 185.436 904.762C176.845 904.812 169.854 903.917 169.854 902.757C169.854 901.597 176.82 900.627 185.411 900.576C194.014 900.526 200.993 901.421 200.993 902.581Z" fill="#326BAC"/>
<path d="M198.347 902.595C198.347 903.641 192.023 904.536 184.201 904.574C176.378 904.624 170.042 903.805 170.029 902.746C170.017 901.687 176.353 900.805 184.176 900.767C191.998 900.729 198.334 901.536 198.347 902.595Z" fill="#316AAC"/>
<path d="M195.688 902.606C195.688 903.551 189.995 904.346 182.953 904.384C175.911 904.421 170.205 903.69 170.205 902.745C170.205 901.799 175.899 901.005 182.94 900.955C189.982 900.917 195.688 901.648 195.688 902.593V902.606Z" fill="#3069AB"/>
<path d="M193.044 902.62C193.044 903.465 187.98 904.171 181.732 904.209C175.484 904.246 170.407 903.591 170.395 902.746C170.395 901.902 175.458 901.196 181.706 901.158C187.967 901.12 193.031 901.775 193.044 902.62Z" fill="#2F68AB"/>
<path d="M190.385 902.633C190.385 903.365 185.951 903.995 180.484 904.02C175.004 904.045 170.57 903.478 170.57 902.747C170.57 902.016 175.004 901.385 180.471 901.36C185.938 901.335 190.385 901.902 190.385 902.633Z" fill="#2E67AA"/>
<path d="M187.739 902.645C187.739 903.275 183.948 903.804 179.249 903.83C174.563 903.855 170.746 903.363 170.746 902.733C170.746 902.102 174.538 901.573 179.236 901.548C183.922 901.523 187.739 902.014 187.739 902.645Z" fill="#2D66AA"/>
<path d="M185.083 902.671C185.083 903.2 181.921 903.641 178.003 903.666C174.086 903.692 170.924 903.276 170.924 902.759C170.924 902.229 174.086 901.788 178.003 901.763C181.908 901.738 185.083 902.154 185.083 902.671Z" fill="#2C65A9"/>
<path d="M182.436 902.685C182.436 903.101 179.904 903.454 176.78 903.479C173.656 903.491 171.111 903.176 171.111 902.748C171.111 902.332 173.643 901.979 176.767 901.953C179.891 901.941 182.436 902.256 182.436 902.685Z" fill="#2C64A9"/>
<path d="M179.779 902.695C179.779 903.01 177.877 903.275 175.534 903.287C173.191 903.3 171.289 903.061 171.289 902.745C171.289 902.43 173.191 902.165 175.534 902.153C177.877 902.14 179.779 902.38 179.779 902.695Z" fill="#2B63A8"/>
<path d="M177.133 902.709C177.133 902.924 175.874 903.1 174.299 903.1C172.737 903.1 171.465 902.949 171.465 902.735C171.465 902.52 172.725 902.344 174.299 902.344C175.861 902.344 177.133 902.495 177.133 902.709Z" fill="#2A62A8"/>
<path d="M174.476 902.719C174.476 902.82 173.846 902.909 173.065 902.921C172.284 902.921 171.654 902.846 171.654 902.745C171.654 902.644 172.284 902.556 173.065 902.543C173.846 902.543 174.476 902.619 174.476 902.719Z" fill="#2961A7"/>
</g>
</g>
<g opacity="0.5">
<path d="M1135.12 241.556C1135.06 241.392 1135 241.228 1134.92 241.064C1134.87 240.951 1134.82 240.837 1134.78 240.711C1134.73 240.598 1134.68 240.471 1134.63 240.358C1132.81 236.009 1129.96 232.328 1126.43 230.285L1125.44 229.705L1004.42 159.764L883.414 89.8227L882.418 89.2428C878.891 87.2131 875.352 87.1879 872.404 88.789C872.316 88.8268 872.24 88.8772 872.165 88.915C872.089 88.9655 872.001 89.0033 871.925 89.0537L855.953 98.2691L865.161 102.177L833.203 271.748C832.384 276.123 833.102 280.939 834.941 285.288C834.991 285.414 835.042 285.527 835.092 285.654C835.143 285.767 835.193 285.88 835.243 285.994C837.07 290.343 839.917 294.024 843.444 296.067L1084.8 435.571L1082.58 446.211L1097.71 437.437C1097.79 437.386 1097.87 437.349 1097.95 437.311C1100.9 435.735 1103.13 432.609 1103.95 428.234L1136.67 254.603C1137.47 250.393 1136.82 245.766 1135.14 241.543L1135.12 241.556Z" fill="white"/>
<path d="M1071.75 446.199L827.734 305.156C820.353 300.895 815.881 289.449 817.733 279.603L849.993 108.456C851.845 98.61 859.34 94.0842 866.722 98.3453L1110.73 239.388C1118.12 243.649 1122.59 255.096 1120.74 264.941L1088.48 436.088C1086.62 445.934 1079.13 450.46 1071.76 446.199H1071.75Z" fill="url(#paint0_linear_2_62482)"/>
<path d="M1109.73 238.809L988.721 168.867L950.805 370.068L1070.75 445.645C1078.67 450.234 1086.51 446.515 1088.24 437.35L1120.96 263.719C1122.69 254.554 1117.66 243.41 1109.74 238.821L1109.73 238.809Z" fill="url(#paint1_linear_2_62482)"/>
<path d="M867.704 98.9122L988.709 168.854L951.032 368.781L828.717 305.723C820.794 301.135 815.755 289.99 817.494 280.825L850.22 107.195C851.946 98.0298 859.781 94.3108 867.704 98.8996V98.9122Z" fill="url(#paint2_linear_2_62482)"/>
<path d="M819.043 293.9C821.021 298.867 824.447 303.267 828.73 305.738L1070.75 445.633C1075.04 448.104 1079.28 448.142 1082.57 446.226L974.135 246.285L819.043 293.9Z" fill="url(#paint3_linear_2_62482)"/>
<path d="M1119.43 250.644C1117.45 245.677 1114.02 241.277 1109.74 238.806L867.716 98.9109C863.433 96.44 859.188 96.4022 855.9 98.3184L964.334 298.259L1119.43 250.644Z" fill="url(#paint4_linear_2_62482)"/>
</g>
<path d="M4.73526 388.787C4.89902 388.371 5.06278 387.955 5.23914 387.551C5.35251 387.249 5.47847 386.971 5.60444 386.669C5.73041 386.366 5.85638 386.064 5.99494 385.761C10.6054 374.768 17.8107 365.477 26.7041 360.334L29.2234 358.884L334.923 182.19L640.609 5.48324L643.129 4.03349C652.022 -1.11 660.966 -1.14782 668.41 2.88629C668.612 2.98714 668.813 3.1006 669.015 3.20145C669.217 3.31491 669.418 3.41576 669.62 3.54183L709.98 26.8262L686.714 36.7098L767.446 465.069C769.525 476.125 767.686 488.29 763.063 499.283C762.937 499.599 762.811 499.901 762.685 500.204C762.559 500.494 762.445 500.784 762.32 501.061C757.709 512.054 750.504 521.358 741.61 526.501L131.887 878.918L137.506 905.796L99.2743 883.633C99.0727 883.52 98.8712 883.419 98.6822 883.305C91.2249 879.309 85.6067 871.443 83.5283 860.387L0.855448 421.765C-1.14744 411.126 0.477544 399.439 4.73526 388.787Z" fill="white"/>
<path d="M164.828 905.758L781.253 549.458C799.896 538.679 811.208 509.772 806.509 484.9L725.021 52.5441C720.335 27.6586 701.414 16.2245 682.771 27.0031L66.359 383.291C47.7158 394.069 36.4038 422.976 41.1024 447.849L122.591 880.205C127.277 905.09 146.198 916.524 164.828 905.745V905.758Z" fill="url(#paint5_linear_2_62482)"/>
<path d="M68.8791 381.842L374.578 205.148L470.364 713.408L167.348 904.31C147.319 915.883 127.542 906.504 123.171 883.345L40.5111 444.724C36.1526 421.566 48.8502 393.415 68.8791 381.83V381.842Z" fill="url(#paint6_linear_2_62482)"/>
<path d="M680.266 28.4415L374.566 205.135L469.76 710.206L778.735 550.909C798.764 539.336 811.461 511.173 807.103 488.015L724.443 49.4063C720.084 26.2479 700.307 16.8686 680.266 28.4415Z" fill="url(#paint7_linear_2_62482)"/>
<path d="M803.222 521.003C798.221 533.534 789.567 544.653 778.734 550.906L167.348 904.306C156.527 910.559 145.795 910.648 137.506 905.794L411.436 400.711L803.222 520.99V521.003Z" fill="url(#paint8_linear_2_62482)"/>
<path d="M44.3906 411.745C49.3916 399.214 58.0456 388.095 68.8788 381.842L680.265 28.4414C691.085 22.1886 701.818 22.1003 710.106 26.9538L436.176 532.037L44.3906 411.745Z" fill="url(#paint9_linear_2_62482)"/>
<defs>
<linearGradient id="paint0_linear_2_62482" x1="81.2977" y1="-241.874" x2="351.564" y2="-85.8945" gradientUnits="userSpaceOnUse">
<stop stop-color="#91D7FA"/>
<stop offset="1" stop-color="#73BAE9"/>
</linearGradient>
<linearGradient id="paint1_linear_2_62482" x1="322.37" y1="110.258" x2="250.76" y2="-144.546" gradientUnits="userSpaceOnUse">
<stop offset="0.77" stop-color="#73BAE9"/>
<stop offset="0.85" stop-color="#6FB5E5"/>
<stop offset="0.93" stop-color="#63A7DB"/>
<stop offset="1" stop-color="#5698CF"/>
</linearGradient>
<linearGradient id="paint2_linear_2_62482" x1="-90.9444" y1="-129.049" x2="165.37" y2="-194.295" gradientUnits="userSpaceOnUse">
<stop offset="0.77" stop-color="#73BAE9"/>
<stop offset="0.85" stop-color="#6FB5E5"/>
<stop offset="0.93" stop-color="#63A7DB"/>
<stop offset="1" stop-color="#5698CF"/>
</linearGradient>
<linearGradient id="paint3_linear_2_62482" x1="68.257" y1="92.8694" x2="214.582" y2="-160.274" gradientUnits="userSpaceOnUse">
<stop offset="0.77" stop-color="#5698CF"/>
<stop offset="0.84" stop-color="#5293CB"/>
<stop offset="0.92" stop-color="#4985C2"/>
<stop offset="1" stop-color="#3C71B4"/>
</linearGradient>
<linearGradient id="paint4_linear_2_62482" x1="196.621" y1="-338.094" x2="372.455" y2="-82.3371" gradientUnits="userSpaceOnUse">
<stop stop-color="#91D7FA"/>
<stop offset="1" stop-color="#73BAE9"/>
</linearGradient>
<linearGradient id="paint5_linear_2_62482" x1="933.514" y1="171.548" x2="250.763" y2="565.587" gradientUnits="userSpaceOnUse">
<stop stop-color="#91D7FA"/>
<stop offset="1" stop-color="#73BAE9"/>
</linearGradient>
<linearGradient id="paint6_linear_2_62482" x1="324.498" y1="1061.12" x2="505.409" y2="417.422" gradientUnits="userSpaceOnUse">
<stop offset="0.77" stop-color="#73BAE9"/>
<stop offset="0.85" stop-color="#6FB5E5"/>
<stop offset="0.93" stop-color="#63A7DB"/>
<stop offset="1" stop-color="#5698CF"/>
</linearGradient>
<linearGradient id="paint7_linear_2_62482" x1="1342.59" y1="471.736" x2="695.064" y2="306.899" gradientUnits="userSpaceOnUse">
<stop offset="0.77" stop-color="#73BAE9"/>
<stop offset="0.85" stop-color="#6FB5E5"/>
<stop offset="0.93" stop-color="#63A7DB"/>
<stop offset="1" stop-color="#5698CF"/>
</linearGradient>
<linearGradient id="paint8_linear_2_62482" x1="966.448" y1="1017.14" x2="596.813" y2="377.671" gradientUnits="userSpaceOnUse">
<stop offset="0.77" stop-color="#5698CF"/>
<stop offset="0.84" stop-color="#5293CB"/>
<stop offset="0.92" stop-color="#4985C2"/>
<stop offset="1" stop-color="#3C71B4"/>
</linearGradient>
<linearGradient id="paint9_linear_2_62482" x1="642.177" y1="-71.5102" x2="197.982" y2="574.588" gradientUnits="userSpaceOnUse">
<stop stop-color="#91D7FA"/>
<stop offset="1" stop-color="#73BAE9"/>
</linearGradient>
</defs>
</svg>
