<svg width="255" height="170" fill="none" xmlns="http://www.w3.org/2000/svg"><g clip-path="url(#a)"><path d="m92.484 61.986 20.653-18.604s-.288-4.715-11.148-1.05c-10.86 3.664-40.52 14.049-40.52 14.049l2.043 10.456 28.98-4.843-.008-.008z" fill="#5479F7"/><path d="M34.245 129.056c-.456 0-.865-.241-1.066-.634-.2-.385-.168-.826.089-1.179l1.122-1.547a122.661 122.661 0 0 1-29.501 2.574c-1.787-.056-3.767-.273-4.592-2.053-.249-.529-.337-1.147-.265-1.788.168-1.5 1.058-2.711 2.028-3.929 5.922-7.378 13.023-13.905 19.923-20.216l-4.28.465a.905.905 0 0 1-.913-.489.85.85 0 0 1 .128-.978c4.713-5.229 12.607-10.85 21.11-15.028a.198.198 0 0 1 .265.08l22.015 35.732a.204.204 0 0 1-.056.273c-7.39 5.485-16.622 8.58-25.99 8.717h-.017zm.617-3.881c.073 0 .137.032.169.096a.205.205 0 0 1 0 .232l-1.427 1.981a.7.7 0 0 0-.056.746.786.786 0 0 0 .713.417c9.217-.137 18.297-3.16 25.598-8.524L38.044 84.711c-8.399 4.146-16.173 9.687-20.821 14.851a.45.45 0 0 0-.072.521.488.488 0 0 0 .505.265l4.904-.53a.211.211 0 0 1 .209.121c.04.08.016.177-.048.233-7.037 6.431-14.306 13.07-20.34 20.592-.97 1.211-1.788 2.326-1.94 3.713-.064.561.016 1.106.232 1.564.73 1.571 2.565 1.764 4.232 1.82a122.5 122.5 0 0 0 29.925-2.678h.04l-.008-.008z" fill="#000"/><path d="M28.153 102.168a.21.21 0 0 1-.168-.088.197.197 0 0 1 .056-.281l8.56-5.717c.096-.064.224-.04.28.056.064.096.04.225-.056.28l-8.56 5.718s-.072.032-.112.032zM12.183 122.216a.188.188 0 0 1-.16-.081c-.072-.088-.048-.216.04-.288a297.104 297.104 0 0 1 27.297-18.564.207.207 0 0 1 .28.072.208.208 0 0 1-.072.281 296.457 296.457 0 0 0-27.257 18.539.177.177 0 0 1-.12.041h-.008zM37.298 115.48a.208.208 0 0 1-.177-.105.206.206 0 0 1 .072-.28l7.462-4.354a.206.206 0 0 1 .28.072.206.206 0 0 1-.072.28l-7.461 4.355s-.064.024-.104.024v.008z" fill="#000"/><path d="m60.125 116.666 2.028 16.158c.16 1.251 1.587 1.885 2.604 1.155 6.997-5.012 27.706-21.386 26.688-38.795l-31.328 21.482h.008z" fill="#fff"/><path d="M63.802 134.492c-.248 0-.505-.048-.745-.16a1.845 1.845 0 0 1-1.106-1.483l-2.028-16.158a.204.204 0 0 1 .088-.193L91.34 95.015a.214.214 0 0 1 .209-.016.195.195 0 0 1 .112.169c.44 7.514-3.062 15.653-10.395 24.185-5.914 6.88-12.799 12.213-16.381 14.779-.32.232-.697.352-1.074.352l-.008.008zm-3.454-17.729 2.011 16.037c.065.522.385.955.866 1.163a1.409 1.409 0 0 0 1.419-.152c3.566-2.558 10.426-7.867 16.309-14.715 7.14-8.315 10.61-16.23 10.314-23.535l-30.92 21.202z" fill="#000"/><path d="m40.658 86.034-13.729-8.628c-1.066-.666-1.034-2.237.056-2.863 7.454-4.29 30.904-16.35 46.179-8.13L40.658 86.033z" fill="#fff"/><path d="M40.656 86.243s-.072-.008-.112-.032l-13.728-8.629a1.856 1.856 0 0 1-.874-1.627c.016-.666.36-1.26.938-1.588 3.815-2.197 11.516-6.255 20.204-8.773 10.771-3.127 19.579-2.91 26.175.642a.2.2 0 0 1 .104.176.215.215 0 0 1-.096.185L40.76 86.219s-.073.032-.105.032v-.008zm20.229-22.437c-4.12 0-8.688.722-13.689 2.173-8.64 2.51-16.31 6.552-20.108 8.74a1.443 1.443 0 0 0-.73 1.244c-.007.52.25.994.682 1.275l13.624 8.556 32.09-19.374c-3.382-1.748-7.35-2.614-11.862-2.614h-.008z" fill="#000"/><path d="M148.984 37.873v-.016c-27.801-8.163-93.968 33.816-109.628 44.12a6.223 6.223 0 0 0-2.668 6.415c2.604 12.838 9.152 23.134 19.643 30.897a6.141 6.141 0 0 0 6.908.256c15.86-9.983 81.458-52.86 85.737-81.672h.008z" fill="#fff"/><path d="M59.97 120.708a6.325 6.325 0 0 1-3.758-1.243c-10.483-7.754-17.119-18.187-19.724-31.025a6.394 6.394 0 0 1 2.758-6.632c7.79-5.132 28.29-18.226 50.281-29.004 27.634-13.536 47.654-18.628 59.507-15.147a.207.207 0 0 1 .112.088v.016c.04.04.048.088.04.136-1.827 12.293-14.81 28.451-38.597 48.025-18.93 15.581-39.342 28.82-47.236 33.792a6.33 6.33 0 0 1-3.383.986v.008zm80.881-83.685c-5.193 0-11.372 1.01-18.473 3.031-9.329 2.654-20.324 7.073-32.674 13.12C67.736 63.933 47.26 77.02 39.47 82.144a5.988 5.988 0 0 0-2.58 6.207c2.58 12.726 9.16 23.078 19.562 30.776a5.891 5.891 0 0 0 6.676.249c7.886-4.964 28.283-18.195 47.189-33.76 10.635-8.748 19.226-16.943 25.533-24.36 7.534-8.854 11.877-16.68 12.903-23.248-2.308-.657-4.945-.986-7.91-.986h.008z" fill="#000"/><path d="M60.121 106.948c7.197 0 13.032-5.87 13.032-13.111 0-7.241-5.835-13.111-13.032-13.111s-13.031 5.87-13.031 13.11c0 7.242 5.834 13.112 13.031 13.112z" fill="#fff"/><path d="M60.147 107.156c-.946 0-1.9-.104-2.853-.313a13.13 13.13 0 0 1-8.327-5.837c-3.935-6.183-2.132-14.434 4.015-18.396a13.084 13.084 0 0 1 9.954-1.796c3.462.762 6.42 2.83 8.327 5.838 3.935 6.182 2.131 14.434-4.016 18.395a13.095 13.095 0 0 1-7.108 2.101l.008.008zm-.048-26.238c-2.42 0-4.801.698-6.885 2.037-5.954 3.833-7.701 11.836-3.895 17.834a12.732 12.732 0 0 0 8.07 5.653c3.343.738 6.765.121 9.65-1.74 5.955-3.833 7.702-11.835 3.895-17.834a12.734 12.734 0 0 0-8.07-5.653c-.922-.2-1.844-.305-2.757-.305l-.008.008z" fill="#000"/><path d="M60.121 102.898c4.975 0 9.008-4.057 9.008-9.061 0-5.005-4.033-9.062-9.008-9.062-4.975 0-9.008 4.057-9.008 9.062 0 5.004 4.033 9.061 9.008 9.061z" fill="#fff"/><path d="M60.14 103.107a9.262 9.262 0 0 1-1.98-.217 9.178 9.178 0 0 1-5.795-4.058c-2.733-4.306-1.482-10.047 2.797-12.798a9.125 9.125 0 0 1 6.925-1.25 9.178 9.178 0 0 1 5.794 4.057c2.733 4.306 1.483 10.048-2.797 12.798a9.138 9.138 0 0 1-4.945 1.468zm-.033-18.131a8.723 8.723 0 0 0-4.728 1.395c-4.087 2.63-5.29 8.123-2.669 12.237a8.738 8.738 0 0 0 5.538 3.881c2.292.505 4.64.08 6.62-1.195 4.087-2.63 5.281-8.123 2.669-12.236a8.74 8.74 0 0 0-5.538-3.882 8.991 8.991 0 0 0-1.892-.208v.008zM130.891 64.015a.216.216 0 0 1-.121-.04c-6.74-5.165-11.661-12.903-13.496-21.218a.203.203 0 0 1 .152-.241.203.203 0 0 1 .241.152c1.819 8.228 6.684 15.878 13.344 20.986.088.072.104.2.04.288a.196.196 0 0 1-.16.08v-.007z" fill="#000"/><path d="M85.311 78.056c-2.548 2.782-4.608 5.204-5.121 6.294-1.57 3.352-.874 20.978.641 25.268 0 0 3.366-3.424 8.087-8.444.609-3.769 1.138-9.486.609-11.916-1.355-6.215-2.332-7.802-4.216-11.202z" fill="#fff"/><path d="M80.84 109.818h-.048a.208.208 0 0 1-.152-.128c-1.523-4.314-2.22-22.044-.633-25.42.465-.986 2.196-3.119 5.153-6.343a.213.213 0 0 1 .176-.064c.064 0 .12.048.153.105l.24.432c1.739 3.128 2.693 4.852 4 10.826.56 2.574-.057 8.58-.61 11.996 0 .04-.024.08-.056.104a563.374 563.374 0 0 1-8.087 8.444.2.2 0 0 1-.144.064l.008-.016zM85.272 78.4c-2.813 3.08-4.456 5.108-4.889 6.03-1.53 3.248-.89 20.04.545 24.795.842-.866 3.863-3.961 7.806-8.155.666-4.17 1.09-9.535.601-11.78-1.29-5.918-2.236-7.618-3.959-10.713l-.104-.184v.007z" fill="#000"/><path d="M100.669 49.998c-17.584 4.458-31.641 9.213-31.641 9.213l-2.276-4.675-7.221 3.472s-2.965 17.417 9.497 16.046c12.462-1.371 28.988-9.077 28.988-9.077s-7.398 7.305-12.695 13.087c-.136 5.14.216 14.434 3.606 23.118 9.77-10.376 25.334-27.569 28.9-35.307 5.282-11.475.425-20.328-17.158-15.87v-.007z" fill="#5479F7"/><path d="M98.971 64.664a.187.187 0 0 1-.16-.08.205.205 0 0 1 .032-.289l3.294-2.622a.205.205 0 1 1 .256.32L99.1 64.617s-.08.048-.129.048zM80.24 9.567c-.425-1.508-1.875-2.583-3.406-2.871-1.53-.289-3.126.096-4.544.737-1.419.642-2.717 1.532-4.064 2.334a33.237 33.237 0 0 1-8.198 3.464c-5.875 1.596-12.142 1.564-17.888 3.593-2.428.858-4.977 2.373-5.578 4.9-.377 1.579.128 3.303 1.162 4.554 1.034 1.25 2.54 2.053 4.12 2.405.28 1.524 1.418 2.783 2.772 3.537 1.355.746 2.901 1.042 4.432 1.235 6.54.818 13.44-.217 19.066-3.68a22.617 22.617 0 0 0 7.109-6.921 20.927 20.927 0 0 0 2.204-4.45c.52-1.476.52-3.128 1.042-4.563.264-.714.946-1.05 1.346-1.676.49-.754.665-1.732.425-2.607v.009z" fill="#000"/><path d="M112.339 6.784c3.719-1.732 10.258-5.413 14.225-6.431.353-.088.714-.169 1.066-.088.353.08.681.368.697.73.016.368-.28.665-.569.89-.897.713-2.091 1.37-3.197 1.683 0 0 1.45.714.921 2.133 0 0 .85.45-.104 2.061 0 0 .08 1.524-1.37 1.9-1.042.273-1.547-.128-1.547-.128s-9.072 5.269-11.372 5.926c-2.292.658-.754-7.738 1.25-8.668v-.008z" fill="#fff"/><path d="M112.396 15.164a.206.206 0 0 1-.081-.393c2.228-1.003 9.978-5.373 10.058-5.421a.208.208 0 0 1 .225.016c.016.008.457.329 1.37.088 1.275-.329 1.218-1.636 1.218-1.692 0-.04 0-.08.033-.112.44-.754.456-1.203.392-1.451-.064-.233-.208-.321-.216-.33a.21.21 0 0 1-.096-.248c.456-1.219-.762-1.852-.818-1.876a.213.213 0 0 1-.112-.2.196.196 0 0 1 .152-.177c1.018-.28 2.188-.898 3.126-1.644.344-.273.497-.505.489-.73-.008-.272-.289-.48-.537-.537-.305-.072-.633 0-.97.088-2.861.73-7.453 3.047-11.14 4.908-1.13.57-2.196 1.106-3.045 1.515a.21.21 0 0 1-.273-.096.21.21 0 0 1 .096-.272c.85-.41 1.916-.939 3.046-1.508 3.71-1.868 8.319-4.194 11.228-4.932.377-.096.769-.184 1.162-.088.409.096.841.441.858.922.016.481-.361.834-.642 1.059a10.04 10.04 0 0 1-2.853 1.588c.481.384.954 1.074.681 1.996.089.088.201.233.265.45.128.456 0 1.042-.409 1.731 0 .321-.112 1.676-1.522 2.045-.842.217-1.379.032-1.603-.088-.938.53-7.878 4.434-9.986 5.38-.024.017-.056.017-.08.017l-.016-.008z" fill="#000"/><path d="M122.452 8.476c-.409 0-.786-.168-.994-.465a.98.98 0 0 1-.128-.794.758.758 0 0 1 .433-.513c.104-.04.224 0 .264.112.04.104 0 .225-.112.265-.128.056-.176.176-.201.248a.575.575 0 0 0 .065.45c.184.264.561.328.849.28.321-.056.617-.225.962-.473.401-.28.897-.666 1.25-1.17.12-.177.224-.362.297-.554.04-.104.16-.16.264-.12.104.04.16.16.12.264-.088.225-.2.433-.344.642-.393.56-.93.978-1.355 1.275-.336.232-.705.465-1.13.537a1.383 1.383 0 0 1-.256.024l.016-.008z" fill="#000"/><path d="M123.334 6.864c-.056 0-.104 0-.16-.016-.272-.048-.489-.2-.689-.345-.168-.12-.321-.224-.489-.264-.296-.072-.633.064-.89.2l-.136.072c-.288.153-.593.313-.937.337-.441.04-.97-.216-1.05-.698a.201.201 0 0 1 .168-.232.201.201 0 0 1 .232.168c.04.24.353.377.609.361.265-.024.513-.152.786-.297l.136-.072c.321-.168.745-.336 1.178-.232.241.064.433.2.625.329.177.128.345.24.521.272.161.032.337-.024.489-.152a.942.942 0 0 0 .329-.69c0-.585-.457-1.05-.73-1.275a3.452 3.452 0 0 0-1.771-.786.207.207 0 0 1 .056-.409 3.94 3.94 0 0 1 1.972.882c.328.273.873.842.873 1.588 0 .369-.184.754-.472 1.003a1.037 1.037 0 0 1-.666.256h.016zM122.693 9.35c-.32 0-.609-.096-.817-.28-.257-.225-.377-.578-.297-.883a.202.202 0 0 1 .249-.144.201.201 0 0 1 .144.248.477.477 0 0 0 .168.466c.137.12.345.184.561.176.233 0 .465-.072.665-.136.682-.225 1.187-.522 1.555-.898.08-.08.209-.089.289 0 .08.08.088.208 0 .288-.409.433-.978.762-1.715 1.01-.233.08-.505.153-.794.161h-.016l.008-.008z" fill="#000"/><path d="M122.446 9.655a.213.213 0 0 1-.185-.113.93.93 0 0 1-.112-.384c-.008-.113.072-.217.184-.225a.201.201 0 0 1 .225.184c.008.08.032.169.072.241.048.104.016.225-.088.273a.213.213 0 0 1-.096.024z" fill="#000"/><path d="M87.72 29.806 85.907 45.17a5.098 5.098 0 0 1-3.078 4.106L57.85 59.805 59.934 44.8l-10.002 5.293-1.147 10.93a1.644 1.644 0 0 0 .994 1.684c.842.352 1.956.81 2.605 1.05 1.138.425 1.386 2.39-1.05 2.101-2.444-.289-2.757-.297-3.743-.088 0 0-3.494 1.547-5.457 4.37-1.13 1.62-1.114 2.959-4.216 2.839 0 0-2.597 1.596-2.332-1.275 0 0-3.815-1.267 5.009-5.974 0 0-2.493-13.656 1.923-21.066 4.68-7.842 28.243-18.25 28.243-18.25l41.594-19.64c-.889 3-1.106 5.79.048 8.18L87.727 29.806h-.008z" fill="#fff"/><path d="M36.547 73.63c-.217 0-.433-.049-.625-.161-.425-.265-.61-.81-.561-1.628-.257-.12-.754-.441-.802-1.058-.112-1.291 1.844-3.024 5.803-5.157-.249-1.507-2.18-14.08 1.98-21.057 4.656-7.81 27.368-17.906 28.33-18.331L112.258 6.6a.211.211 0 0 1 .225.032.203.203 0 0 1 .064.216c-.994 3.36-.986 5.91.04 8.027a.206.206 0 0 1-.08.265L87.919 29.934l-1.795 15.268a5.317 5.317 0 0 1-3.198 4.274c-.104.04-.225 0-.265-.112-.04-.104 0-.224.112-.264a4.879 4.879 0 0 0 2.95-3.946l1.811-15.364c0-.064.04-.12.096-.152l24.516-14.755c-.938-2.06-.97-4.587-.112-7.722L70.848 26.607c-.24.104-23.562 10.472-28.154 18.17-4.328 7.265-1.924 20.785-1.9 20.922a.2.2 0 0 1-.104.216c-5.097 2.718-5.77 4.194-5.714 4.827.048.554.673.77.673.77a.21.21 0 0 1 .136.217c-.048.505-.024 1.162.361 1.395.473.297 1.362-.12 1.667-.313a.183.183 0 0 1 .112-.032c2.364.097 2.797-.665 3.463-1.812.168-.297.352-.61.577-.938 1.971-2.83 5.393-4.379 5.537-4.443.016 0 .024-.008.04-.016 1.018-.216 1.37-.208 3.815.08.906.113 1.523-.112 1.635-.593.104-.425-.208-.938-.681-1.115-.657-.24-1.78-.705-2.613-1.05a1.862 1.862 0 0 1-1.122-1.893l1.146-10.93c0-.063.048-.128.105-.16l10.001-5.292c.073-.032.153-.032.217.016s.096.12.088.192l-2.028 14.603 1.195-.65c.096-.056.224-.016.28.08.056.097.016.225-.08.281l-1.547.842c-.064.04-.152.032-.216-.008a.21.21 0 0 1-.089-.2l2.028-14.61-9.553 5.06-1.138 10.825a1.44 1.44 0 0 0 .874 1.475c.825.345 1.947.802 2.596 1.042.665.25 1.09.963.938 1.596-.064.265-.4 1.107-2.084.906-2.388-.28-2.709-.296-3.654-.096-.28.129-3.527 1.66-5.354 4.29-.216.313-.393.618-.56.906-.674 1.171-1.211 2.101-3.768 2.021-.192.104-.817.441-1.418.441h-.008z" fill="#000"/><path d="M40.186 61.497a.197.197 0 0 1-.193-.145.205.205 0 0 1 .137-.256c2.845-.882 5.762-1.66 8.663-2.326a.209.209 0 0 1 .248.153c.033.112-.04.216-.152.248a114.106 114.106 0 0 0-8.631 2.318c-.016 0-.04.008-.064.008h-.008zM43.874 56.79c-.24 0-.465-.097-.666-.177l-.064-.032a5.166 5.166 0 0 0-3.11-.257.209.209 0 0 1-.248-.152.209.209 0 0 1 .152-.248 5.598 5.598 0 0 1 3.359.272l.072.032c.2.088.392.169.569.145.2-.024.384-.185.56-.337l.025-.016a10.712 10.712 0 0 1 4.912-2.382.202.202 0 0 1 .241.16.202.202 0 0 1-.16.241 10.276 10.276 0 0 0-4.729 2.294l-.024.016c-.216.184-.457.393-.77.433h-.12v.008zM107.426 18.21a.205.205 0 0 1-.2-.168 7.067 7.067 0 0 1 .753-4.498 8.29 8.29 0 0 1-1.723-4.01.207.207 0 0 1 .176-.232.208.208 0 0 1 .233.176 7.881 7.881 0 0 0 1.715 3.914c.056.064.064.16.024.232a6.726 6.726 0 0 0-.778 4.346.201.201 0 0 1-.168.233h-.032v.008zM36.257 71.568a.206.206 0 0 1-.2-.176.201.201 0 0 1 .168-.233c.537-.08 1.042-.344 1.555-.633a73.786 73.786 0 0 0 2.468-1.451c2.349-1.412 4.777-2.871 7.47-3.569.112-.024.224.04.248.144a.2.2 0 0 1-.144.249c-2.637.682-5.033 2.125-7.357 3.52-.81.49-1.643.987-2.485 1.452-.545.305-1.082.585-1.69.673h-.033v.024zM38.045 73.14a.198.198 0 0 1-.152-.072.21.21 0 0 1 .016-.289l3.943-3.504a.21.21 0 0 1 .289.016.21.21 0 0 1-.016.289l-3.943 3.504s-.088.048-.137.048v.008zM60.335 44.834a.199.199 0 0 1-.177-.105c-.056-.096-.016-.224.08-.28l3.343-1.813c.096-.056.224-.016.28.08.056.097.016.225-.08.281l-3.342 1.812s-.064.025-.096.025h-.008zM71.54 42.187A7.51 7.51 0 0 1 70.4 42.1c-1.811-.28-3.382-1.331-4.103-2.75a.206.206 0 0 1 .088-.273.206.206 0 0 1 .272.088c.657 1.3 2.116 2.27 3.8 2.526 1.37.209 2.924 0 4.736-.625a.205.205 0 0 1 .264.128.194.194 0 0 1-.128.257c-1.403.489-2.653.73-3.799.73l.008.007zM81.38 38.811a.212.212 0 0 1-.2-.152.195.195 0 0 1 .144-.249 5.778 5.778 0 0 0 3.63-3.087 5.863 5.863 0 0 0 .049-4.787.205.205 0 0 1 .104-.273.205.205 0 0 1 .273.104 6.293 6.293 0 0 1-.048 5.132 6.211 6.211 0 0 1-3.895 3.312h-.056z" fill="#000"/><path d="m72.458 18.17-1.747 6.753s2.324.264 3.414.12c1.098-.144 1.875-1.5 1.875-1.5l1.146-4.394-4.688-.978z" fill="#fff"/><path d="M73.267 25.291c-1.13 0-2.508-.152-2.58-.16-.057 0-.113-.04-.145-.088-.032-.048-.048-.112-.032-.168l1.747-6.752c.024-.105.137-.169.24-.153l4.69.979a.208.208 0 0 1 .135.096.19.19 0 0 1 .024.16L76.2 23.6s-.008.032-.024.048c-.032.056-.841 1.443-2.027 1.603a7.11 7.11 0 0 1-.882.048v-.008zm-2.3-.545c.617.064 2.276.209 3.134.097.913-.12 1.603-1.211 1.707-1.38l1.082-4.154-4.28-.898-1.643 6.335z" fill="#000"/><path d="m69.044 26.88.61-3.08 4.872.682 2.26-2.382.73.802 4.624-2.117-6.636 10.056c-.313.465-.882.69-1.419.56-2.06-.48-7.124-1.37-9.416-1.467-.177 0-.233-.24-.08-.328l4.463-2.727h-.008z" fill="#E2EAFF"/><path d="M74.244 28.018s-.056 0-.08-.016c-1.515-.618-3.174-.834-4.8-.618a.207.207 0 0 1-.233-.176.207.207 0 0 1 .176-.232 10.021 10.021 0 0 1 4.76.545l.297-2.286a.207.207 0 0 1 .233-.176c.112.016.192.12.176.232l-.329 2.543c0 .064-.048.12-.096.152a.221.221 0 0 1-.104.024v.008z" fill="#fff"/><path d="M76.449 26.815a.196.196 0 0 1-.129-.048 9.48 9.48 0 0 1-1.578-1.628c-.073-.088-.048-.216.04-.288.088-.073.216-.049.288.04.377.489.802.946 1.267 1.347.248-.914.569-1.813.945-2.679a.205.205 0 0 1 .273-.104.205.205 0 0 1 .104.273 21.042 21.042 0 0 0-1.01 2.927.205.205 0 0 1-.136.144c-.024 0-.04.008-.064.008v.008zM79.375 15.452c.137 1.003.193 2.077-.272 2.975-.513.987-1.619 1.588-2.725 1.62-1.106.032-2.188-.465-2.997-1.219-.561.177-1.186.217-1.723 0-.545-.224-.978-.761-.986-1.347 0-.593.505-1.17 1.09-1.139.392.024.73.281 1.026.546.096.088.208.184.344.192.217.016.385-.232.385-.449 0-.224-.112-.425-.192-.625-.537-1.307 0-2.895 1.034-3.865.833-.786 1.923-1.227 3.029-1.468.16-.032.641-.2.785-.12.16.096.249.673.297.85a26.989 26.989 0 0 1 .913 4.057l-.008-.008z" fill="#fff"/><path d="M76.3 20.248c-1.035 0-2.1-.433-2.966-1.203-.633.176-1.25.16-1.755-.048-.657-.273-1.106-.89-1.106-1.54 0-.36.16-.738.432-1.002.249-.24.561-.361.874-.345.457.024.818.305 1.154.601.072.065.152.137.216.145.032 0 .049-.008.08-.032a.291.291 0 0 0 .089-.209c0-.136-.064-.28-.129-.433a1.532 1.532 0 0 0-.048-.112c-.537-1.3-.088-2.983 1.082-4.09.77-.73 1.82-1.235 3.134-1.515.032 0 .08-.024.136-.04.353-.097.625-.16.794-.065.184.105.264.393.352.794.016.072.032.137.04.177.2.657.377 1.307.521 1.932.169.73.305 1.46.401 2.165.136.995.208 2.133-.288 3.096-.53 1.018-1.668 1.7-2.902 1.732h-.096l-.016-.008zm-2.918-1.628c.048 0 .104.016.136.056.826.77 1.867 1.195 2.853 1.17 1.09-.023 2.092-.617 2.549-1.507.449-.858.376-1.924.248-2.855a23.93 23.93 0 0 0-.393-2.125 27.03 27.03 0 0 0-.512-1.9 1.667 1.667 0 0 1-.049-.208c-.023-.12-.096-.433-.16-.522-.104-.008-.368.072-.473.097l-.16.04c-1.234.264-2.22.737-2.933 1.41-1.05.995-1.45 2.487-.978 3.633.016.032.032.073.048.113.08.176.16.377.16.601 0 .193-.08.385-.216.513a.516.516 0 0 1-.385.145c-.208-.016-.352-.153-.464-.249-.273-.248-.57-.481-.898-.497a.78.78 0 0 0-.57.232 1.006 1.006 0 0 0-.312.706c0 .473.353.954.858 1.163.44.184 1.002.184 1.587 0 .024 0 .04-.008.064-.008v-.008z" fill="#000"/><path d="M72.796 18.227h-.008l-.85-.032c-.111 0-.2-.096-.191-.217 0-.112.104-.2.216-.192l.85.032c.112 0 .2.096.192.216a.197.197 0 0 1-.2.193h-.009z" fill="#000"/><path d="M82.313 146.689H50.801V170h31.512v-23.311zM124.403 121.582H92.891V170h31.512v-48.418zM166.489 92.177h-31.512V170h31.512V92.177z" fill="#E2EAFF"/><path d="M188.087 68.24c1.362.931 3.222.57 4.151-.793.073-.104.129-.209.185-.313 1.162.425 2.356.674 3.558.738a2.988 2.988 0 1 0 5.915-.762 4.545 4.545 0 0 0-.088-.353 12.34 12.34 0 0 0 3.037-2.004 2.99 2.99 0 1 0 3.646-4.723c-.104-.073-.208-.129-.312-.185.425-1.163.673-2.358.737-3.56a2.988 2.988 0 1 0-1.114-5.83 12.308 12.308 0 0 0-1.995-3.04 2.993 2.993 0 0 0-.569-4.442 2.99 2.99 0 0 0-4.152.794c-.072.104-.128.209-.184.313a12.245 12.245 0 0 0-3.558-.738 2.788 2.788 0 0 0-.049-.36 2.987 2.987 0 1 0-5.778 1.475 12.303 12.303 0 0 0-3.037 2.005 2.989 2.989 0 0 0-4.44.57 2.993 2.993 0 0 0 .793 4.153c.104.072.209.128.313.184a12.286 12.286 0 0 0-.738 3.56 2.988 2.988 0 1 0 1.114 5.83 12.282 12.282 0 0 0 1.996 3.04 2.993 2.993 0 0 0 .569 4.442zm5.45-8.042A5.557 5.557 0 0 1 199.772 51a5.558 5.558 0 0 1 1.475 7.714 5.56 5.56 0 0 1-7.71 1.484z" fill="#fff"/><path d="M198.955 70.855a3.135 3.135 0 0 1-1.788-.553 3.179 3.179 0 0 1-1.378-2.254 12.352 12.352 0 0 1-3.278-.673c-.04.064-.072.12-.112.176a3.205 3.205 0 0 1-4.44.858 3.197 3.197 0 0 1-.85-4.434l.121-.169a12.515 12.515 0 0 1-1.844-2.798 7.162 7.162 0 0 0-.2.048 3.205 3.205 0 0 1-2.396-.49 3.18 3.18 0 0 1-1.347-2.044 3.2 3.2 0 0 1 2.533-3.737c.064-.016.136-.024.208-.032.08-1.123.305-2.221.673-3.28-.064-.04-.12-.072-.176-.112a3.196 3.196 0 0 1-.849-4.434 3.191 3.191 0 0 1 4.6-.73 12.689 12.689 0 0 1 2.797-1.844c-.016-.073-.032-.137-.048-.2a3.198 3.198 0 0 1 4.928-3.248 3.176 3.176 0 0 1 1.347 2.044c.016.064.024.137.032.209 1.122.072 2.22.304 3.278.673.04-.064.072-.12.112-.176a3.205 3.205 0 0 1 4.44-.858 3.179 3.179 0 0 1 1.346 2.045 3.176 3.176 0 0 1-.497 2.397l-.12.169c.738.85 1.355 1.788 1.844 2.798.072-.016.136-.032.2-.048a3.206 3.206 0 0 1 2.396.49 3.184 3.184 0 0 1 1.347 2.044 3.2 3.2 0 0 1-2.741 3.77 12.68 12.68 0 0 1-.674 3.279c.065.04.121.072.177.112a3.192 3.192 0 0 1-3.583 5.285l-.168-.12a12.689 12.689 0 0 1-2.797 1.844c.016.072.032.136.048.2a3.198 3.198 0 0 1-2.532 3.737c-.201.04-.409.056-.609.056zm-6.532-3.93s.048 0 .072.017c1.13.417 2.308.657 3.502.721.104 0 .185.089.193.193.008.128.024.232.04.337.136.73.553 1.363 1.17 1.78a2.78 2.78 0 0 0 2.084.433 2.79 2.79 0 0 0 2.211-3.264 2.271 2.271 0 0 0-.088-.329.204.204 0 0 1 .112-.248 12.137 12.137 0 0 0 2.99-1.965.198.198 0 0 1 .272 0c.097.088.185.153.265.209a2.783 2.783 0 0 0 3.863-.746 2.792 2.792 0 0 0-.738-3.865 3.037 3.037 0 0 0-.288-.169.205.205 0 0 1-.096-.256c.416-1.13.657-2.31.721-3.504 0-.105.088-.185.192-.193.129-.008.233-.024.337-.04a2.79 2.79 0 0 0 2.212-3.264 2.744 2.744 0 0 0-1.17-1.78 2.781 2.781 0 0 0-2.084-.433 2.047 2.047 0 0 0-.329.088.203.203 0 0 1-.248-.112 12.151 12.151 0 0 0-1.963-2.99.197.197 0 0 1 0-.274c.088-.096.152-.184.208-.264a2.784 2.784 0 0 0 .433-2.085 2.748 2.748 0 0 0-1.17-1.78 2.782 2.782 0 0 0-2.084-.433 2.741 2.741 0 0 0-1.779 1.17c-.056.089-.113.177-.169.29a.204.204 0 0 1-.256.095 11.953 11.953 0 0 0-3.502-.721c-.105 0-.185-.088-.193-.193-.008-.128-.024-.232-.04-.337a2.744 2.744 0 0 0-1.17-1.78 2.78 2.78 0 0 0-2.084-.433 2.792 2.792 0 0 0-2.212 3.264c.016.104.049.208.089.329a.203.203 0 0 1-.113.248 12.13 12.13 0 0 0-2.989 1.965.198.198 0 0 1-.272 0 4.48 4.48 0 0 0-.265-.209 2.783 2.783 0 0 0-3.863.746 2.792 2.792 0 0 0 .738 3.865c.088.056.176.112.288.169a.205.205 0 0 1 .096.256 11.963 11.963 0 0 0-.721 3.505c0 .104-.088.184-.192.192-.129.008-.233.024-.337.04a2.79 2.79 0 0 0-2.212 3.264c.136.73.553 1.363 1.17 1.78.617.417 1.355.57 2.084.433a2.01 2.01 0 0 0 .328-.088.203.203 0 0 1 .249.112 12.151 12.151 0 0 0 1.963 2.991.197.197 0 0 1 0 .273 2.463 2.463 0 0 0-.208.264 2.783 2.783 0 0 0 2.821 4.298 2.741 2.741 0 0 0 1.779-1.17 2.58 2.58 0 0 0 .169-.297.195.195 0 0 1 .184-.112v.008zm4.215-5.564a5.669 5.669 0 0 1-3.213-.995 5.72 5.72 0 0 1-2.421-3.68 5.715 5.715 0 0 1 .89-4.315c1.779-2.63 5.362-3.311 7.99-1.531 2.629 1.78 3.31 5.364 1.531 7.995a5.718 5.718 0 0 1-3.679 2.421 5.648 5.648 0 0 1-1.098.105zm.024-11.098a5.337 5.337 0 0 0-4.431 2.341 5.297 5.297 0 0 0-.826 4.01 5.28 5.28 0 0 0 2.252 3.416 5.29 5.29 0 0 0 4.007.825 5.3 5.3 0 0 0 3.414-2.253c1.651-2.438 1.018-5.773-1.418-7.425a5.273 5.273 0 0 0-2.99-.922l-.008.008z" fill="#000"/><path d="M164.375 53.678a1.992 1.992 0 0 0 2.764-.529c.049-.064.089-.136.121-.208.769.28 1.57.449 2.372.489 0 .08.016.16.032.24a1.989 1.989 0 0 0 2.332 1.58 1.99 1.99 0 0 0 1.579-2.333c-.016-.08-.04-.16-.064-.233a8.358 8.358 0 0 0 2.027-1.33 1.9 1.9 0 0 0 .193.151 1.993 1.993 0 0 0 2.765-.529 1.996 1.996 0 0 0-.529-2.766 1.06 1.06 0 0 0-.209-.12c.289-.77.449-1.572.489-2.374.08 0 .161-.016.241-.032a1.99 1.99 0 0 0 1.579-2.334 1.99 1.99 0 0 0-2.333-1.58c-.08.017-.16.04-.232.065a8.375 8.375 0 0 0-1.33-2.03c.056-.063.104-.12.152-.192a1.995 1.995 0 0 0-.529-2.766 1.993 1.993 0 0 0-2.765.53 1.08 1.08 0 0 0-.12.208 8.128 8.128 0 0 0-2.372-.49c0-.08-.016-.16-.033-.24a1.989 1.989 0 0 0-2.332-1.58 1.99 1.99 0 0 0-1.579 2.334c.017.08.041.16.065.232a8.345 8.345 0 0 0-2.028 1.331 1.783 1.783 0 0 0-.192-.152 1.993 1.993 0 0 0-2.765.53 1.995 1.995 0 0 0 .529 2.766c.064.048.136.088.208.12a7.866 7.866 0 0 0-.489 2.374c-.08 0-.16.016-.24.032a1.99 1.99 0 0 0-1.579 2.333 1.989 1.989 0 0 0 2.332 1.58c.08-.016.16-.04.232-.064.337.73.786 1.411 1.331 2.029-.056.064-.104.12-.152.192a1.994 1.994 0 0 0 .529 2.767zm3.63-5.364a3.702 3.702 0 0 1-.986-5.14 3.697 3.697 0 0 1 5.137-.986 3.702 3.702 0 0 1 .986 5.14 3.697 3.697 0 0 1-5.137.986z" fill="#fff"/><path d="M171.619 55.49c-.433 0-.858-.128-1.226-.376a2.137 2.137 0 0 1-.922-1.403c0-.024-.008-.056-.016-.089a8.446 8.446 0 0 1-2.092-.433l-.048.072c-.328.49-.825.819-1.402.923a2.162 2.162 0 0 1-1.643-.337 2.136 2.136 0 0 1-.922-1.403 2.164 2.164 0 0 1 .337-1.644l.048-.072a8.493 8.493 0 0 1-1.178-1.789c-.032 0-.057.016-.089.016a2.162 2.162 0 0 1-1.643-.336 2.139 2.139 0 0 1-.921-1.404 2.207 2.207 0 0 1 1.747-2.574c.024 0 .056-.008.088-.016.056-.714.2-1.42.433-2.093l-.072-.048a2.204 2.204 0 0 1-.585-3.055c.328-.49.825-.818 1.402-.922a2.162 2.162 0 0 1 1.643.337l.072.048a8.517 8.517 0 0 1 1.787-1.179c0-.032-.016-.056-.016-.088a2.208 2.208 0 0 1 1.748-2.574 2.162 2.162 0 0 1 1.643.337 2.139 2.139 0 0 1 .937 1.491c.713.056 1.419.2 2.092.433l.048-.072a2.2 2.2 0 0 1 3.053-.586 2.204 2.204 0 0 1 .586 3.056l-.049.072a8.536 8.536 0 0 1 1.179 1.788c.032 0 .056-.016.088-.016a2.162 2.162 0 0 1 1.643.337c.489.329.817.826.921 1.403a2.207 2.207 0 0 1-1.747 2.574.413.413 0 0 0-.088.016c-.056.714-.2 1.42-.433 2.093l.072.048a2.203 2.203 0 0 1 .585 3.055c-.328.49-.825.818-1.402.923a2.162 2.162 0 0 1-1.643-.337l-.072-.048a8.517 8.517 0 0 1-1.787 1.178c0 .032.016.057.016.089a2.208 2.208 0 0 1-2.164 2.614l-.008-.008zm-4.36-2.758s.048 0 .072.016a7.887 7.887 0 0 0 2.316.474c.104 0 .185.088.193.192 0 .08.016.152.024.216.088.465.352.874.753 1.147a1.76 1.76 0 0 0 1.338.273 1.788 1.788 0 0 0 1.419-2.093c-.016-.064-.032-.136-.056-.209a.203.203 0 0 1 .112-.248 7.721 7.721 0 0 0 1.972-1.3.198.198 0 0 1 .272 0c.064.057.12.097.168.137a1.76 1.76 0 0 0 1.339.273 1.81 1.81 0 0 0 1.146-.754 1.799 1.799 0 0 0-.657-2.598.205.205 0 0 1-.097-.257 8.16 8.16 0 0 0 .481-2.317c0-.104.088-.185.193-.193.08 0 .152-.016.216-.024a1.788 1.788 0 0 0 .665-3.24 1.757 1.757 0 0 0-1.338-.272c-.064.016-.128.032-.209.056a.203.203 0 0 1-.248-.112 7.724 7.724 0 0 0-1.298-1.973.2.2 0 0 1 0-.273c.056-.064.096-.12.136-.168a1.798 1.798 0 0 0-.473-2.486 1.795 1.795 0 0 0-2.597.658.205.205 0 0 1-.256.096 7.887 7.887 0 0 0-2.316-.473c-.104 0-.184-.088-.193-.193 0-.08-.016-.152-.024-.216a1.777 1.777 0 0 0-.753-1.147 1.758 1.758 0 0 0-1.338-.272 1.788 1.788 0 0 0-1.419 2.093c.016.064.032.136.056.208a.203.203 0 0 1-.112.249 7.716 7.716 0 0 0-1.971 1.299.2.2 0 0 1-.273 0c-.064-.056-.12-.096-.168-.137a1.76 1.76 0 0 0-1.339-.272c-.464.088-.873.36-1.146.753a1.799 1.799 0 0 0 .658 2.599.205.205 0 0 1 .096.256 8.16 8.16 0 0 0-.481 2.318c0 .104-.088.184-.193.192-.08 0-.152.016-.216.024a1.787 1.787 0 0 0-1.418 2.093c.088.473.352.874.753 1.147.393.264.873.369 1.338.273.064-.017.137-.033.209-.057a.203.203 0 0 1 .248.113 7.726 7.726 0 0 0 1.298 1.972.197.197 0 0 1 0 .273c-.056.064-.096.12-.136.168a1.764 1.764 0 0 0-.272 1.34c.088.465.36.873.753 1.146a1.76 1.76 0 0 0 1.338.273 1.807 1.807 0 0 0 1.259-.938.195.195 0 0 1 .184-.113l-.008.008zm2.813-3.576a3.885 3.885 0 0 1-2.18-.674 3.924 3.924 0 0 1-1.042-5.428 3.892 3.892 0 0 1 2.493-1.644 3.857 3.857 0 0 1 2.925.601 3.924 3.924 0 0 1 1.042 5.429 3.892 3.892 0 0 1-2.493 1.644 3.91 3.91 0 0 1-.745.072zm.016-7.401a3.484 3.484 0 0 0-2.901 1.54 3.505 3.505 0 0 0 .93 4.858 3.473 3.473 0 0 0 2.62.538 3.505 3.505 0 0 0 1.307-6.335 3.432 3.432 0 0 0-1.956-.602zM207.075 83.044c-.85-1.275-1.547-2.855-1.066-4.306.513-1.54 2.452-2.414 3.943-1.789a17.353 17.353 0 0 1-1.515-3.464c4.08-.12 8.287.602 11.773 2.727 3.495 2.124 6.179 5.781 6.508 9.855.136 1.692-.16 3.488-1.17 4.851-1.058 1.435-2.781 2.253-4.512 2.686-2.252.562-4.737.546-6.796-.537-1.387-.73-2.517-2.012-3.006-3.512a4.896 4.896 0 0 1-.24-1.179c-.024-.288.12-.818.016-1.074-.128-.305-.689-.602-.938-.818a17.707 17.707 0 0 1-2.989-3.44h-.008z" fill="#000"/><path d="M210.842 83.228a.202.202 0 0 1-.145-.064 7.775 7.775 0 0 1-1.923-3.264.208.208 0 0 1 .136-.256.208.208 0 0 1 .257.136 7.274 7.274 0 0 0 1.819 3.087c.08.08.08.209 0 .289a.192.192 0 0 1-.144.056v.016z" fill="#000"/><path d="m211.217 105.272 2.284-.249-.601-7.802s1.9-9.51 9.209-2.406l1.338 10.593 2.148.273s-.874 4.939-7.004 4.931c-5.21-.008-7.462-1.772-7.374-5.332v-.008z" fill="#fff"/><path d="M224.722 105.769h-.024l-1.274-.16a.196.196 0 0 1-.177-.177l-1.33-10.52c-2.14-2.061-3.991-2.871-5.514-2.398-2.372.738-3.214 4.37-3.294 4.723l.601 7.77a.2.2 0 0 1-.184.217l-1.347.144c-.112.008-.216-.072-.224-.184a.201.201 0 0 1 .184-.225l1.146-.128-.585-7.602v-.056c.032-.169.874-4.218 3.575-5.06 1.691-.53 3.694.329 5.978 2.542a.222.222 0 0 1 .065.12l1.322 10.433 1.122.144a.205.205 0 0 1-.024.409l-.016.008z" fill="#000"/><path d="M218.729 95.176c-1.098.938-2.396 1.668-3.815 1.933-1.418.272-2.949.048-4.151-.746-2.012-1.34-2.741-4.041-2.389-6.431.353-2.39 1.595-4.539 2.829-6.616 0 0 4.713 3.609 9.033 4.194a6.72 6.72 0 0 1 .296 4.122s.962-.874 1.843-.297c.954.626 1.339 1.965.882 3.007-.457 1.043-1.651 1.684-2.781 1.572-.641-.064-1.226-.184-1.739-.73l-.008-.008z" fill="#fff"/><path d="M213.753 97.421c-1.138 0-2.228-.304-3.11-.89-1.915-1.267-2.885-3.873-2.476-6.631.376-2.518 1.755-4.836 2.861-6.688a.207.207 0 0 1 .136-.096c.056-.008.12 0 .16.04.048.032 4.721 3.584 8.936 4.154a.19.19 0 0 1 .16.128 6.953 6.953 0 0 1 .409 3.737c.409-.225 1.042-.417 1.651-.016 1.026.665 1.451 2.133.954 3.263-.489 1.107-1.747 1.813-2.989 1.692-.553-.056-1.179-.16-1.732-.657-1.178.97-2.476 1.612-3.766 1.86a6.761 6.761 0 0 1-1.194.113v-.009zm-2.493-13.808c-1.066 1.796-2.34 3.993-2.685 6.343-.32 2.133.273 4.883 2.3 6.23 1.098.73 2.557.995 4 .714 1.274-.24 2.564-.898 3.718-1.892a.202.202 0 0 1 .281.016c.441.465.945.601 1.611.665 1.074.105 2.163-.505 2.58-1.451.425-.954.064-2.19-.801-2.75-.738-.482-1.563.248-1.595.28-.064.056-.168.072-.24.024a.21.21 0 0 1-.097-.224 6.487 6.487 0 0 0-.248-3.881c-3.863-.57-7.91-3.409-8.824-4.082v.008z" fill="#000"/><path d="M219.635 94.11a.205.205 0 0 1-.2-.16.209.209 0 0 1 .152-.25 5.04 5.04 0 0 0 1.491-.609.207.207 0 0 1 .28.072.208.208 0 0 1-.072.281 5.545 5.545 0 0 1-1.611.658h-.048l.008.008z" fill="#000"/><path d="M196.717 129.521s-24.203 15.236-31.737-11.395c3.927-2.253 8.592-5.364 9.874-10.721 0 0 3.422 7.514 7.285 6.03 9.377-3.6 16.614-7.465 29.06-8.299.249.785.601 1.547 1.122 2.189 1.01 1.243 2.613 1.924 4.16 2.165 1.482.232 3.045.152 4.488-.249 1.298-.361 2.572-1.018 3.534-1.98a5.752 5.752 0 0 0 1.074-1.492c8.992.714 14.658 1.804 19.411 7.61 6.122 7.482 11.228 21.555 9.737 30.44-1.491 8.885-5.57 11.635-10.779 13.343l.224 4.803c.257 5.325-5.009 9.174-10.002 7.322l-41.602-15.421a3.991 3.991 0 0 1-2.396-5.02l6.531-19.341.016.016z" fill="#5479F7"/><path d="M196.814 129.345s-.04 0-.064-.008a.201.201 0 0 1-.129-.257l1.122-3.352a.201.201 0 0 1 .257-.128.2.2 0 0 1 .128.256l-1.122 3.352a.205.205 0 0 1-.192.137z" fill="#000"/><path d="M175.278 108.479c-2.781-6.944-4.888-14.233-8.895-20.544-.353-.553-.738-1.123-1.307-1.46-.569-.336-1.362-.368-1.835.089-.473.465-.457 1.227-.361 1.892.305 2.07 1.066 4.435 2.156 6.223 0 0-2.813-.866-3.871 1.668 0 0-1.675-.473-2.42 2.847 0 0-2.004 1.908-.545 4.226 1.05 1.668 2.22 1.772 2.22 1.772s1.987 8.716 4.215 12.453c2.228 3.737 12.126-5.437 10.635-9.174l.008.008z" fill="#fff"/><path d="M164.397 117.493c-.08 0-.152-.048-.193-.129-1.602-3.857-3.654-10.969-3.951-11.996-.36-.08-1.338-.433-2.228-1.836-1.402-2.221.233-4.122.529-4.435.321-1.387.842-2.309 1.547-2.734.385-.233.729-.257.93-.24.873-1.885 2.725-1.861 3.59-1.74-.929-1.669-1.651-3.834-1.955-5.903-.088-.625-.145-1.515.416-2.069.561-.553 1.475-.48 2.084-.12.601.353 1.01.947 1.371 1.524 2.997 4.715 5.129 10.465 7.197 16.022.593 1.587 1.146 3.087 1.723 4.554a.204.204 0 0 1-.377.153c-.577-1.476-1.13-2.975-1.723-4.563-2.06-5.541-4.184-11.267-7.157-15.942-.353-.553-.713-1.082-1.234-1.387-.465-.273-1.17-.345-1.587.056-.433.425-.377 1.179-.297 1.716.321 2.181 1.114 4.483 2.132 6.143a.193.193 0 0 1-.016.232.215.215 0 0 1-.224.072c-.104-.032-2.653-.777-3.623 1.548a.206.206 0 0 1-.24.12c-.016 0-.369-.088-.801.177-.425.256-1.002.906-1.363 2.518a.265.265 0 0 1-.056.104c-.08.072-1.859 1.828-.513 3.969.97 1.548 2.052 1.676 2.06 1.676.08.008.152.064.176.145.024.08 2.252 7.954 3.967 12.076.04.104 0 .225-.112.265a.284.284 0 0 1-.08.016l.008.008z" fill="#000"/><path d="M163.299 104.302c-.633 0-1.283-.345-1.731-.939-.449-.593-.65-1.339-.802-2.052-.192-.915-.385-2.117-.208-3.32.064-.433.176-.842.328-1.227a.205.205 0 0 1 .265-.112c.104.04.152.16.112.264a4.817 4.817 0 0 0-.305 1.139c-.168 1.147.025 2.301.209 3.175.16.77.344 1.388.729 1.893.353.465.994.882 1.643.754.313-.065.601-.289.753-.586.129-.248.145-.505.049-.721a.205.205 0 0 1 .104-.273.205.205 0 0 1 .272.104c.152.337.128.714-.056 1.075-.216.409-.609.721-1.042.802a1.401 1.401 0 0 1-.32.032v-.008z" fill="#000"/><path d="M168.412 105.184c-.48 0-.977-.249-1.298-.602-.401-.449-.601-1.018-.785-1.563l-.096-.265c-.193-.529-.473-1.171-1.01-1.467-.305-.169-.657-.217-1.042-.273-.433-.064-.89-.128-1.274-.385-.401-.265-.658-.706-.714-1.235-.072-.641.145-1.323.569-1.78.882-.938 2.26-1.002 3.006-.954a7.006 7.006 0 0 1 3.622 1.275c.096.064.112.192.048.288-.064.097-.192.113-.288.049a6.724 6.724 0 0 0-3.414-1.203c-.673-.04-1.916 0-2.685.826-.345.368-.521.922-.465 1.451.048.409.24.746.537.938.313.209.697.265 1.106.321.401.056.809.12 1.178.321.649.369.978 1.09 1.194 1.684.032.088.064.176.096.272.177.514.361 1.035.706 1.428.368.409 1.05.633 1.482.312.088-.072.217-.048.289.04.072.089.048.217-.04.289a1.17 1.17 0 0 1-.73.241l.008-.008zM161.847 105.152h-.064c-.465-.024-.938-.241-1.338-.626-.361-.345-.617-.778-.826-1.155-.665-1.234-.994-2.341-1.01-3.4 0-.112.089-.208.201-.208.112 0 .2.088.208.2.008.987.329 2.037.962 3.208.192.353.425.746.745 1.058.329.313.705.49 1.074.506.401.016.785-.177.954-.489a.217.217 0 0 1 .28-.089.218.218 0 0 1 .088.281c-.232.433-.729.714-1.266.714h-.008z" fill="#000"/><path d="M160.541 105.32a.206.206 0 0 1-.064-.401c.16-.056.321-.144.449-.257a.203.203 0 0 1 .288.025.202.202 0 0 1-.024.288 1.693 1.693 0 0 1-.585.337c-.024 0-.048.008-.064.008zM196.084 115.079h20.965c.297 0 .561.2.65.481l7.966 26.855a.673.673 0 0 1-.649.866H204.05a.688.688 0 0 1-.649-.481l-7.966-26.855a.672.672 0 0 1 .649-.866z" fill="#000"/><path d="M206.848 135.992c-.898-.866-1.451-1.812-.874-2.734.578-.922 2.02-1.139 2.846-.425-.61-.481-1.235-.979-1.603-1.652-.369-.682-.417-1.596.088-2.173.449-.513 1.218-.642 1.875-.489.329.072.633.2.93.36-.289-.433-.369-1.042-.12-1.515.416-.81 1.434-1.155 2.332-1.051.905.105 1.723.562 2.508 1.003 5.29 2.983 15.74 9.029 15.74 9.029.273 1.508-5.233 13.632-7.317 15.653-1.346-.409-11.452-8.508-15.283-11.796-.641-.553-1.306-1.131-1.627-1.916-.328-.778-.208-1.821.497-2.286l.008-.008z" fill="#fff"/><path d="M216.322 133.089s-.072-.008-.105-.032a173.206 173.206 0 0 1-5.762-3.704.2.2 0 0 1-.056-.281.2.2 0 0 1 .281-.056 164.755 164.755 0 0 0 5.754 3.696.199.199 0 0 1 .064.281.2.2 0 0 1-.176.096zM213.869 136.714a.238.238 0 0 1-.12-.04l-4.993-3.577a.212.212 0 0 1-.048-.288.212.212 0 0 1 .289-.048l4.993 3.576a.213.213 0 0 1 .048.289.21.21 0 0 1-.169.088zM211.529 139.697s-.081-.008-.113-.032a60.087 60.087 0 0 1-4.44-3.32.213.213 0 0 1-.032-.289.213.213 0 0 1 .289-.032 58.539 58.539 0 0 0 4.408 3.296.2.2 0 0 1 .056.281.209.209 0 0 1-.168.088v.008zM239.258 158.012c-5.706 0-11.356-1.82-15.98-5.228a.205.205 0 0 1-.04-.289.203.203 0 0 1 .288-.04c5.69 4.194 12.959 5.942 19.94 4.811a.2.2 0 0 1 .232.169.2.2 0 0 1-.168.232c-1.41.233-2.845.345-4.264.345h-.008zM242.385 143.394s-.072-.008-.104-.024l-11.22-6.488a.205.205 0 0 1 .208-.353l11.22 6.488a.207.207 0 0 1 .072.28.207.207 0 0 1-.176.105v-.008zM238.793 140.515a.2.2 0 0 1-.201-.161l-3.021-14.738a.203.203 0 0 1 .16-.241.202.202 0 0 1 .241.161l3.021 14.738a.202.202 0 0 1-.16.241h-.04zM190.186 169.92s-.04 0-.056-.008c-.113-.032-.169-.144-.137-.257l4.224-14.498c.032-.112.144-.168.256-.136.113.032.169.144.137.257l-4.224 14.498a.2.2 0 0 1-.2.144zM124.286 111.406h-13.335a.207.207 0 0 1-.209-.208c0-.12.088-.209.209-.209h13.127v-27.97c0-.112.088-.208.208-.208h37.483c.113 0 .209.088.209.209 0 .12-.088.208-.209.208h-37.274v27.97a.207.207 0 0 1-.209.208z" fill="#000"/><path d="M163.057 86.075a3.054 3.054 0 1 0 0-6.109 3.054 3.054 0 0 0 0 6.109zM108.585 114.253a3.054 3.054 0 1 0-.002-6.108 3.054 3.054 0 0 0 .002 6.108z" fill="#5479F7"/><path d="M167.405 75.097a.2.2 0 0 1-.176-.096c-.056-.097-.032-.225.064-.281l12.759-7.85c.096-.057.224-.032.28.064.057.096.033.224-.064.28l-12.758 7.85s-.073.033-.105.033zM151.296 27.57a.2.2 0 0 1-.176-.097c-.056-.096-.032-.225.064-.28l12.759-7.851c.096-.056.224-.032.28.064.056.096.032.224-.064.28L151.4 27.538s-.072.032-.104.032zM91.285 9.086a.204.204 0 0 1-.184-.113.209.209 0 0 1 .096-.272l15.163-7.41a.21.21 0 0 1 .273.097.209.209 0 0 1-.097.272L91.373 9.07s-.056.024-.088.024v-.008zM200.265 37.938a.202.202 0 0 1-.177-.097c-.056-.096-.032-.224.065-.28l8.703-5.357c.096-.056.224-.032.281.064.056.096.032.225-.065.28l-8.703 5.357s-.072.032-.104.032zM106.298 33.52a.202.202 0 0 1-.177-.097.208.208 0 0 1 .072-.28L161.22.4a.206.206 0 0 1 .28.072.207.207 0 0 1-.072.281l-55.034 32.741s-.072.032-.104.032l.008-.008z" fill="#000"/><path d="M160.483 3.055s-.056 0-.08-.016a.204.204 0 0 1-.112-.264l.873-2.125-2.292-.233c-.112-.008-.192-.112-.184-.224.008-.113.112-.193.224-.185l2.565.265c.064 0 .12.04.152.096s.04.12.016.185l-.977 2.381a.21.21 0 0 1-.193.128l.008-.008zM180.573 30.255a.2.2 0 0 1-.176-.096c-.056-.096-.032-.224.064-.28l20.709-12.742c.096-.057.225-.032.281.064.056.096.032.224-.064.28l-20.71 12.742s-.072.032-.104.032z" fill="#000"/><path d="M200.675 19.678s-.056 0-.08-.015a.204.204 0 0 1-.113-.265l.874-2.125-2.292-.233c-.112-.008-.193-.112-.185-.224.008-.113.113-.193.225-.185l2.564.265a.18.18 0 0 1 .153.096c.032.056.04.12.016.185l-.978 2.381a.208.208 0 0 1-.192.128l.008-.008zM137.519 75.81a.201.201 0 0 1-.177-.096c-.056-.096-.032-.224.064-.28l19.74-12.149c.096-.056.224-.032.28.064.056.097.032.225-.064.28l-19.739 12.15s-.072.032-.104.032z" fill="#000"/><path d="M156.698 65.787s-.056 0-.08-.016a.204.204 0 0 1-.112-.265l.873-2.125-2.292-.232c-.112-.008-.192-.113-.184-.225.008-.112.112-.192.224-.184l2.565.264c.064 0 .12.04.152.097.032.056.04.12.016.184l-.978 2.382a.208.208 0 0 1-.192.128l.008-.008z" fill="#000"/></g><defs><clipPath id="a"><path fill="#fff" d="M0 0h255v170H0z"/></clipPath></defs></svg>